SplineFontDB: 3.0
FontName: Norican
FullName: Norican
FamilyName: Norican
Weight: Book
Copyright: Copyright (c) 2011 by vernon adams. All rights reserved.
Version: 1.002
ItalicAngle: 0
UnderlinePosition: -205
UnderlineWidth: 102
Ascent: 1638
Descent: 410
sfntRevision: 0x00010083
LayerCount: 2
Layer: 0 1 "Back"  1
Layer: 1 1 "Fore"  0
XUID: [1021 846 39740748 5396005]
FSType: 0
OS2Version: 1
OS2_WeightWidthSlopeOnly: 0
OS2_UseTypoMetrics: 1
CreationTime: 1327576143
ModificationTime: 1328297510
PfmFamily: 17
TTFWeight: 400
TTFWidth: 1
LineGap: 0
VLineGap: 0
Panose: 2 0 5 4 0 0 0 2 0 4
OS2TypoAscent: 457
OS2TypoAOffset: 1
OS2TypoDescent: -381
OS2TypoDOffset: 1
OS2TypoLinegap: 0
OS2WinAscent: 0
OS2WinAOffset: 1
OS2WinDescent: -1582
OS2WinDOffset: 1
HheadAscent: -1072
HheadAOffset: 1
HheadDescent: 405
HheadDOffset: 1
OS2SubXSize: 1331
OS2SubYSize: 1229
OS2SubXOff: 0
OS2SubYOff: 154
OS2SupXSize: 1331
OS2SupYSize: 1229
OS2SupXOff: 0
OS2SupYOff: 717
OS2StrikeYSize: 102
OS2StrikeYPos: 512
OS2Vendor: 'newt'
OS2CodePages: 00000001.00000000
OS2UnicodeRanges: 00000001.00000000.00000000.00000000
Lookup: 4 0 0 "Ligature Substitution lookup 0"  {"Ligature Substitution lookup 0 subtable"  } []
Lookup: 4 0 1 "'liga' Standard Ligatures in Latin lookup 1"  {"'liga' Standard Ligatures in Latin lookup 1 subtable"  } ['liga' ('DFLT' <'dflt' > 'latn' <'dflt' > ) ]
Lookup: 1 0 0 "Single Substitution lookup 2"  {"Single Substitution lookup 2 subtable"  } []
Lookup: 1 0 0 "Single Substitution lookup 3"  {"Single Substitution lookup 3 subtable"  } []

StartChar: .notdef
Encoding: 65536 -1 0
Width: 748
Flags: W
LayerCount: 2
Fore
SplineSet
68 0 m 1,0,-1
 68 1365 l 1,1,-1
 612 1365 l 1,2,-1
 612 0 l 1,3,-1
 68 0 l 1,0,-1
136 68 m 1,4,-1
 544 68 l 1,5,-1
 544 1297 l 1,6,-1
 136 1297 l 1,7,-1
 136 68 l 1,4,-1
EndSplineSet
EndChar

StartChar: exclam
Encoding: 33 33 5
Width: 608
GlyphClass: 2
Flags: W
LayerCount: 2
Fore
SplineSet
371 379 m 1,0,1
 346 369 346 369 317 369 c 0,2,3
 295 369 295 369 295 395.5 c 128,-1,4
 295 422 295 422 297 434 c 2,5,-1
 449 1296 l 1,6,7
 449 1332 449 1332 466 1404 c 128,-1,8
 483 1476 483 1476 496 1497 c 128,-1,9
 509 1518 509 1518 526 1518 c 2,10,-1
 709 1518 l 2,11,12
 741 1518 741 1518 741 1464 c 128,-1,13
 741 1410 741 1410 615 1058 c 128,-1,14
 489 706 489 706 430.5 544 c 128,-1,15
 372 382 372 382 371 379 c 1,0,1
282 207 m 0,16,17
 394 206 394 206 394 118 c 0,18,19
 394 74 394 74 342 22.5 c 128,-1,20
 290 -29 290 -29 236 -29 c 0,21,22
 144 -29 144 -29 144 49 c 0,23,24
 144 104 144 104 185 155.5 c 128,-1,25
 226 207 226 207 282 207 c 0,16,17
EndSplineSet
EndChar

StartChar: quotedbl
Encoding: 34 34 6
Width: 913
GlyphClass: 2
Flags: W
LayerCount: 2
Fore
SplineSet
539.5 1527.5 m 128,-1,1
 565 1517 565 1517 565 1486.5 c 128,-1,2
 565 1456 565 1456 539 1393.5 c 128,-1,3
 513 1331 513 1331 469.5 1213 c 128,-1,4
 426 1095 426 1095 421 1083 c 1,5,-1
 366 1083 l 1,6,7
 368 1126 368 1126 365 1209 c 0,8,9
 362 1292 362 1292 373.5 1415 c 128,-1,10
 385 1538 385 1538 436 1538 c 0,11,0
 514 1538 514 1538 539.5 1527.5 c 128,-1,1
813 1403 m 1,12,13
 778 1325 778 1325 737 1212 c 128,-1,14
 696 1099 696 1099 690 1083 c 1,15,-1
 634 1083 l 1,16,17
 636 1126 636 1126 633 1209 c 0,18,19
 630 1292 630 1292 641.5 1415 c 128,-1,20
 653 1538 653 1538 704 1538 c 0,21,22
 782 1538 782 1538 807.5 1527.5 c 128,-1,23
 833 1517 833 1517 833 1487.5 c 128,-1,24
 833 1458 833 1458 813 1403 c 1,12,13
EndSplineSet
EndChar

StartChar: numbersign
Encoding: 35 35 7
Width: 1069
GlyphClass: 2
Flags: W
LayerCount: 2
Fore
SplineSet
885 512 m 2,0,-1
 748 514 l 1,1,-1
 707 514 l 1,2,-1
 551 39 l 2,3,4
 548 28 548 28 540 -0 c 0,5,6
 503 -141 503 -141 460 -141 c 0,7,8
 432 -141 432 -141 425 -126 c 128,-1,9
 418 -111 418 -111 418 -81.5 c 128,-1,10
 418 -52 418 -52 430 -2.5 c 128,-1,11
 442 47 442 47 442 49 c 0,12,13
 486 175 486 175 567 512 c 1,14,-1
 350 506 l 1,15,-1
 223 39 l 2,16,17
 220 29 220 29 208.5 -13.5 c 128,-1,18
 197 -56 197 -56 178 -98.5 c 128,-1,19
 159 -141 159 -141 131.5 -141 c 128,-1,20
 104 -141 104 -141 97 -126 c 128,-1,21
 90 -111 90 -111 90 -74.5 c 128,-1,22
 90 -38 90 -38 121 77.5 c 128,-1,23
 152 193 152 193 209 500 c 1,24,25
 180 500 180 500 94 496 c 1,26,27
 37 496 37 496 37 537 c 0,28,29
 37 606 37 606 86 623 c 1,30,-1
 233 633 l 1,31,-1
 264 807 l 1,32,33
 233 807 233 807 139 803 c 1,34,35
 82 803 82 803 82 844 c 0,36,37
 82 911 82 911 110.5 924 c 128,-1,38
 139 937 139 937 179.5 937 c 128,-1,39
 220 937 220 937 289 940 c 1,40,41
 366 1373 366 1373 369 1381 c 128,-1,42
 372 1389 372 1389 382 1419 c 0,43,44
 400 1471 400 1471 412.5 1499.5 c 128,-1,45
 425 1528 425 1528 450.5 1553.5 c 128,-1,46
 476 1579 476 1579 594 1579 c 0,47,48
 606 1579 606 1579 618.5 1562 c 128,-1,49
 631 1545 631 1545 631 1526 c 1,50,-1
 473 948 l 1,51,52
 665 954 665 954 676 954 c 1,53,54
 774 1369 774 1369 776.5 1375.5 c 128,-1,55
 779 1382 779 1382 788 1413 c 128,-1,56
 797 1444 797 1444 811.5 1487 c 128,-1,57
 826 1530 826 1530 857.5 1554.5 c 128,-1,58
 889 1579 889 1579 1004 1579 c 0,59,60
 1016 1579 1016 1579 1028 1562 c 128,-1,61
 1040 1545 1040 1545 1040 1526 c 1,62,-1
 1038 1513 l 1,63,-1
 854 956 l 1,64,65
 1030 952 1030 952 1030 915 c 0,66,67
 1030 885 1030 885 998.5 852 c 128,-1,68
 967 819 967 819 930 819 c 2,69,-1
 809 821 l 1,70,-1
 752 649 l 1,71,-1
 776 649 l 2,72,73
 985 649 985 649 985 608 c 0,74,75
 985 578 985 578 954 545 c 128,-1,76
 923 512 923 512 885 512 c 2,0,-1
602 647 m 1,77,78
 639 802 639 802 643 819 c 1,79,80
 571 819 571 819 436 813 c 1,81,-1
 387 647 l 1,82,-1
 602 647 l 1,77,78
EndSplineSet
EndChar

StartChar: dollar
Encoding: 36 36 8
Width: 1069
GlyphClass: 2
Flags: W
LayerCount: 2
Fore
SplineSet
756 1423 m 1,0,-1
 721 1421 l 1,1,-1
 594 872 l 1,2,3
 701 805 701 805 813.5 692.5 c 128,-1,4
 926 580 926 580 926 446 c 0,5,6
 926 206 926 206 688 61 c 0,7,8
 552 -22 552 -22 379 -47 c 1,9,-1
 373 -80 l 2,10,11
 370 -94 370 -94 366 -126 c 128,-1,12
 362 -158 362 -158 358.5 -172 c 128,-1,13
 355 -186 355 -186 342 -199.5 c 128,-1,14
 329 -213 329 -213 307 -213 c 0,15,16
 279 -213 279 -213 279 -184 c 0,17,18
 279 -166 279 -166 289 -109 c 1,19,-1
 297 -55 l 1,20,21
 283 -57 283 -57 239.5 -57 c 128,-1,22
 196 -57 196 -57 141 -42.5 c 128,-1,23
 86 -28 86 -28 38 0 c 128,-1,24
 -10 28 -10 28 -40 75.5 c 128,-1,25
 -70 123 -70 123 -70 185 c 128,-1,26
 -70 247 -70 247 -21.5 287 c 128,-1,27
 27 327 27 327 96 330 c 2,28,-1
 139 332 l 1,29,30
 135 278 135 278 135 240.5 c 0,31,32
 136 203 136 203 136 190 c 0,33,34
 140 85 140 85 209 54 c 0,35,36
 247 37 247 37 315 35 c 1,37,38
 364 268 364 268 461 664 c 1,39,40
 454 670 454 670 387.5 724.5 c 128,-1,41
 321 779 321 779 245.5 859.5 c 128,-1,42
 170 940 170 940 170 1029.5 c 128,-1,43
 170 1119 170 1119 213 1203 c 0,44,45
 256 1286 256 1286 328 1346 c 0,46,47
 475 1468 475 1468 670 1503 c 1,48,-1
 678 1550 l 2,49,50
 700 1676 700 1676 714.5 1711.5 c 128,-1,51
 729 1747 729 1747 754 1747 c 0,52,53
 764 1747 764 1747 776 1739 c 128,-1,54
 788 1731 788 1731 788 1710 c 1,55,-1
 741 1513 l 1,56,57
 776 1518 776 1518 818.5 1518 c 128,-1,58
 861 1518 861 1518 917 1503 c 128,-1,59
 973 1488 973 1488 1026 1456.5 c 128,-1,60
 1079 1425 1079 1425 1112 1365.5 c 128,-1,61
 1145 1306 1145 1306 1145 1227 c 0,62,63
 1145 1207 1145 1207 948 1092 c 128,-1,64
 751 977 751 977 698 958 c 1,65,-1
 698 1057 l 1,66,67
 712 1066 712 1066 790 1102 c 0,68,69
 966 1185 966 1185 965 1225 c 0,70,71
 965 1423 965 1423 756 1423 c 1,0,-1
709 343 m 0,72,73
 709 404 709 404 662.5 467 c 128,-1,74
 616 530 616 530 530 604 c 1,75,-1
 399 41 l 1,76,77
 516 64 516 64 612.5 142.5 c 128,-1,78
 709 221 709 221 709 343 c 0,72,73
463 1303.5 m 128,-1,80
 387 1229 387 1229 387 1131 c 128,-1,81
 387 1033 387 1033 526 924 c 1,82,-1
 647 1407 l 1,83,79
 539 1378 539 1378 463 1303.5 c 128,-1,80
EndSplineSet
EndChar

StartChar: percent
Encoding: 37 37 9
Width: 1401
GlyphClass: 2
Flags: W
LayerCount: 2
Fore
SplineSet
403 890.5 m 128,-1,1
 342 858 342 858 277 858 c 0,2,3
 155 858 155 858 104 954 c 128,-1,4
 53 1050 53 1050 53 1124 c 0,5,6
 53 1320 53 1320 160 1439 c 0,7,8
 232 1518 232 1518 348 1518 c 0,9,10
 520 1518 520 1518 568 1322 c 0,11,12
 580 1272 580 1272 580 1213 c 128,-1,13
 580 1154 580 1154 559.5 1090.5 c 128,-1,14
 539 1027 539 1027 501.5 975 c 128,-1,0
 464 923 464 923 403 890.5 c 128,-1,1
423.5 1355 m 128,-1,16
 405 1393 405 1393 365 1393 c 128,-1,17
 325 1393 325 1393 291 1358.5 c 128,-1,18
 257 1324 257 1324 229 1247 c 128,-1,19
 201 1170 201 1170 201 1071.5 c 128,-1,20
 201 973 201 973 248 973 c 0,21,22
 304 973 304 973 351 1028.5 c 128,-1,23
 398 1084 398 1084 420 1152 c 128,-1,24
 442 1220 442 1220 442 1268.5 c 128,-1,15
 442 1317 442 1317 423.5 1355 c 128,-1,16
1154.5 -7.5 m 128,-1,26
 1103 -29 1103 -29 1045 -29 c 128,-1,27
 987 -29 987 -29 943.5 0 c 128,-1,28
 900 29 900 29 876 74 c 0,29,30
 827 166 827 166 827 245.5 c 128,-1,31
 827 325 827 325 845 389 c 128,-1,32
 863 453 863 453 897.5 509 c 128,-1,33
 932 565 932 565 990.5 600 c 128,-1,34
 1049 635 1049 635 1117 635 c 128,-1,35
 1185 635 1185 635 1232 607.5 c 128,-1,36
 1279 580 1279 580 1304.5 534 c 128,-1,37
 1330 488 1330 488 1342 438.5 c 128,-1,38
 1354 389 1354 389 1354 336 c 128,-1,39
 1354 283 1354 283 1342 231.5 c 128,-1,40
 1330 180 1330 180 1304 133 c 128,-1,41
 1278 86 1278 86 1242 50 c 128,-1,25
 1206 14 1206 14 1154.5 -7.5 c 128,-1,26
1194.5 265 m 128,-1,43
 1217 333 1217 333 1217 393 c 128,-1,44
 1217 453 1217 453 1193 481.5 c 128,-1,45
 1169 510 1169 510 1134 510 c 128,-1,46
 1099 510 1099 510 1065.5 475 c 128,-1,47
 1032 440 1032 440 1004.5 361.5 c 128,-1,48
 977 283 977 283 977 184.5 c 128,-1,49
 977 86 977 86 1022 86 c 0,50,51
 1078 86 1078 86 1125 141.5 c 128,-1,42
 1172 197 1172 197 1194.5 265 c 128,-1,43
944 1374 m 1,52,53
 993 1445 993 1445 1005.5 1464 c 128,-1,54
 1018 1483 1018 1483 1035 1505 c 0,55,56
 1052 1527 1052 1527 1086 1553 c 128,-1,57
 1120 1579 1120 1579 1235 1579 c 0,58,59
 1243 1579 1243 1579 1249 1569 c 128,-1,60
 1255 1559 1255 1559 1255 1546.5 c 128,-1,61
 1255 1534 1255 1534 1249 1513 c 1,62,-1
 348 39 l 2,63,64
 342 28 342 28 326 -1 c 0,65,66
 251 -141 251 -141 201 -141 c 0,67,68
 170 -141 170 -141 170 -117 c 0,69,70
 170 -69 170 -69 242 49 c 1,71,72
 673 869 673 869 944 1374 c 1,52,53
EndSplineSet
EndChar

StartChar: ampersand
Encoding: 38 38 10
Width: 1442
GlyphClass: 2
Flags: W
LayerCount: 2
Fore
SplineSet
956 154 m 1,0,1
 680 -29 680 -29 486 -29 c 0,2,3
 250 -29 250 -29 130 132 c 0,4,5
 70 213 70 213 70 319 c 0,6,7
 70 486 70 486 184 606.5 c 128,-1,8
 298 727 298 727 454 821 c 0,9,10
 488 841 488 841 535 868.5 c 128,-1,11
 582 896 582 896 596 905 c 1,12,13
 567 1014 567 1014 567 1083 c 0,14,15
 567 1195 567 1195 641 1297 c 128,-1,16
 715 1399 715 1399 826 1458.5 c 128,-1,17
 937 1518 937 1518 1056 1518 c 0,18,19
 1174 1518 1174 1518 1286 1449 c 0,20,21
 1340 1416 1340 1416 1373.5 1361.5 c 128,-1,22
 1407 1307 1407 1307 1407 1241 c 0,23,24
 1407 1192 1407 1192 1299 1136 c 0,25,26
 1222 1096 1222 1096 1141 1063 c 128,-1,27
 1060 1030 1060 1030 1047 1024 c 1,28,29
 1025 1048 1025 1048 1018 1081 c 1,30,31
 1028 1087 1028 1087 1068.5 1105 c 128,-1,32
 1109 1123 1109 1123 1138 1138 c 128,-1,33
 1167 1153 1167 1153 1193 1176.5 c 128,-1,34
 1219 1200 1219 1200 1219 1223 c 0,35,36
 1219 1297 1219 1297 1161 1346 c 0,37,38
 1102 1395 1102 1395 1038 1395 c 0,39,40
 918 1395 918 1395 871.5 1316.5 c 128,-1,41
 825 1238 825 1238 825 1156 c 128,-1,42
 825 1074 825 1074 841.5 1007 c 128,-1,43
 858 940 858 940 879 885.5 c 128,-1,44
 900 831 900 831 939 757.5 c 128,-1,45
 978 684 978 684 1004.5 640.5 c 128,-1,46
 1031 597 1031 597 1078 522.5 c 128,-1,47
 1125 448 1125 448 1143 418 c 1,48,49
 1218 466 1218 466 1292 556.5 c 128,-1,50
 1366 647 1366 647 1413 733 c 0,51,52
 1425 755 1425 755 1443 855.5 c 128,-1,53
 1461 956 1461 956 1483 973 c 1,54,-1
 1522 975 l 2,55,56
 1565 978 1565 978 1565 932 c 0,57,58
 1565 850 1565 850 1509.5 727 c 128,-1,59
 1454 604 1454 604 1366.5 491.5 c 128,-1,60
 1279 379 1279 379 1196 328 c 1,61,62
 1238 266 1238 266 1268 186 c 128,-1,63
 1298 106 1298 106 1298 41 c 0,64,65
 1298 -78 1298 -78 1231 -209.5 c 128,-1,66
 1164 -341 1164 -341 1048.5 -433.5 c 128,-1,67
 933 -526 933 -526 811 -526 c 1,68,69
 799 -510 799 -510 799 -493.5 c 128,-1,70
 799 -477 799 -477 824 -454.5 c 128,-1,71
 849 -432 849 -432 884.5 -403 c 128,-1,72
 920 -374 920 -374 956 -336 c 0,73,74
 1042 -246 1042 -246 1042 -104 c 0,75,76
 1042 -30 1042 -30 998 68 c 0,77,78
 984 98 984 98 956 154 c 1,0,1
911 238 m 1,79,-1
 618 805 l 1,80,81
 412 684 412 684 364 579 c 0,82,83
 342 530 342 530 342 475 c 0,84,85
 342 345 342 345 439 245 c 128,-1,86
 536 145 536 145 666 145 c 0,87,88
 728 145 728 145 783 167.5 c 128,-1,89
 838 190 838 190 911 238 c 1,79,-1
EndSplineSet
EndChar

StartChar: quotesingle
Encoding: 39 39 11
Width: 524
GlyphClass: 2
Flags: W
LayerCount: 2
Fore
SplineSet
465 1403 m 128,-1,1
 445 1348 445 1348 424.5 1283 c 128,-1,2
 404 1218 404 1218 386 1157.5 c 128,-1,3
 368 1097 368 1097 363 1083 c 1,4,-1
 307 1083 l 1,5,6
 289 1187 289 1187 289 1315 c 0,7,8
 289 1538 289 1538 356 1538 c 0,9,10
 435 1538 435 1538 460 1527.5 c 0,11,12
 485 1518 485 1518 485 1488 c 128,-1,0
 485 1458 485 1458 465 1403 c 128,-1,1
EndSplineSet
EndChar

StartChar: parenleft
Encoding: 40 40 12
Width: 934
GlyphClass: 2
Flags: W
LayerCount: 2
Fore
SplineSet
666 -23 m 1,0,1
 662 -100 l 1,2,3
 582 -117 582 -117 502.5 -117 c 128,-1,4
 423 -117 423 -117 345 -84 c 0,5,6
 197 -21 197 -21 123 145 c 128,-1,7
 49 311 49 311 49 541 c 0,8,9
 49 839 49 839 176 1118 c 0,10,11
 302 1396 302 1396 528 1512 c 0,12,13
 654 1576 654 1576 801 1577 c 0,14,15
 852 1577 852 1577 920 1567 c 1,16,-1
 915 1464 l 1,17,18
 879 1470 879 1470 844 1470 c 0,19,20
 747 1470 747 1470 661.5 1426 c 128,-1,21
 576 1382 576 1382 514 1308 c 0,22,23
 384 1151 384 1151 325 936.5 c 128,-1,24
 266 722 266 722 266 530 c 0,25,26
 266 219 266 219 401 66 c 0,27,28
 481 -25 481 -25 621 -25 c 0,29,30
 649 -25 649 -25 666 -23 c 1,0,1
EndSplineSet
EndChar

StartChar: parenright
Encoding: 41 41 13
Width: 932
GlyphClass: 2
Flags: W
LayerCount: 2
Fore
SplineSet
268 1483 m 1,0,1
 272 1561 l 1,2,3
 355 1577 355 1577 432.5 1577 c 128,-1,4
 510 1577 510 1577 588 1544 c 0,5,6
 884 1419 884 1419 885 891 c 0,7,8
 885 632 885 632 758.5 348.5 c 0,9,10
 632 66 632 66 410 -54 c 0,11,12
 286 -120 286 -120 145 -121 c 0,13,14
 75 -121 75 -121 14 -106 c 1,15,-1
 18 -4 l 1,16,17
 56 -10 56 -10 90 -10 c 0,18,19
 187 -10 187 -10 272.5 34 c 128,-1,20
 358 78 358 78 420 152 c 0,21,22
 550 309 550 309 609 523.5 c 128,-1,23
 668 738 668 738 668 930 c 0,24,25
 668 1206 668 1206 562 1360 c 0,26,27
 524 1416 524 1416 459.5 1450.5 c 128,-1,28
 395 1485 395 1485 313 1485 c 0,29,30
 285 1485 285 1485 268 1483 c 1,0,1
EndSplineSet
EndChar

StartChar: asterisk
Encoding: 42 42 14
Width: 870
GlyphClass: 2
Flags: W
LayerCount: 2
Fore
SplineSet
383 1352 m 1,0,1
 383 1462 383 1462 430 1462 c 2,2,-1
 469 1462 l 2,3,4
 545 1462 545 1462 545 1409 c 0,5,6
 545 1339 545 1339 459 1081 c 1,7,8
 494 1098 494 1098 609.5 1175.5 c 128,-1,9
 725 1253 725 1253 757.5 1253 c 128,-1,10
 790 1253 790 1253 814 1210.5 c 128,-1,11
 838 1168 838 1168 838 1145 c 128,-1,12
 838 1122 838 1122 811 1103 c 0,13,14
 784 1084 784 1084 655.5 1059 c 128,-1,15
 527 1034 527 1034 479 1022 c 1,16,17
 509 988 509 988 575 928.5 c 128,-1,18
 641 869 641 869 680 826 c 128,-1,19
 719 783 719 783 719 756 c 128,-1,20
 719 729 719 729 684.5 698.5 c 128,-1,21
 650 668 650 668 628 668 c 0,22,23
 585 668 585 668 515 798 c 128,-1,24
 445 928 445 928 420 987 c 1,25,26
 386 908 386 908 316 789 c 128,-1,27
 246 670 246 670 211 670 c 0,28,29
 186 670 186 670 154.5 699.5 c 128,-1,30
 123 729 123 729 123 757 c 128,-1,31
 123 785 123 785 160 828 c 128,-1,32
 197 871 197 871 266 933 c 128,-1,33
 335 995 335 995 362 1024 c 1,34,35
 35 1094 35 1094 35 1153 c 0,36,37
 35 1181 35 1181 57 1223.5 c 128,-1,38
 79 1266 79 1266 100 1266 c 0,39,40
 138 1266 138 1266 260.5 1183 c 128,-1,41
 383 1100 383 1100 391 1094 c 1,42,-1
 393 1137 l 1,43,-1
 383 1352 l 1,0,1
EndSplineSet
EndChar

StartChar: plus
Encoding: 43 43 15
Width: 1120
GlyphClass: 2
Flags: W
LayerCount: 2
Fore
SplineSet
799 416 m 2,0,-1
 662 418 l 1,1,-1
 584 418 l 1,2,-1
 516 145 l 2,3,4
 512 127 512 127 487.5 111.5 c 128,-1,5
 463 96 463 96 425 96 c 128,-1,6
 387 96 387 96 387 129 c 0,7,8
 387 146 387 146 391 154 c 1,9,-1
 453 412 l 1,10,-1
 209 399 l 1,11,12
 160 399 160 399 160 426 c 0,13,14
 160 479 160 479 185.5 500.5 c 128,-1,15
 211 522 211 522 229 526 c 1,16,17
 308 539 308 539 483 547 c 1,18,-1
 498 602 l 1,19,20
 504 634 504 634 519 700 c 128,-1,21
 534 766 534 766 541 801 c 0,22,23
 544 815 544 815 578 827.5 c 128,-1,24
 612 840 612 840 641 840 c 0,25,26
 662 840 662 840 662 784 c 128,-1,27
 662 728 662 728 639 631 c 1,28,-1
 618 551 l 1,29,30
 651 553 651 553 719 553 c 0,31,32
 920 553 920 553 920 516 c 0,33,34
 920 487 920 487 878 451.5 c 128,-1,35
 836 416 836 416 799 416 c 2,0,-1
EndSplineSet
EndChar

StartChar: comma
Encoding: 44 44 16
Width: 483
GlyphClass: 2
Flags: W
LayerCount: 2
Fore
SplineSet
190 -29 m 1,0,1
 113 -28 113 -28 113 60 c 0,2,3
 113 104 113 104 154 155.5 c 128,-1,4
 195 207 195 207 251.5 207 c 128,-1,5
 308 207 308 207 332 177 c 128,-1,6
 356 147 356 147 356 107 c 128,-1,7
 356 67 356 67 340 22 c 0,8,9
 324 -23 324 -23 259 -138.5 c 128,-1,10
 194 -254 194 -254 184 -264 c 1,11,-1
 127 -244 l 1,12,-1
 138 -214 l 1,13,14
 169 -122 169 -122 190 -29 c 1,0,1
EndSplineSet
EndChar

StartChar: hyphen
Encoding: 45 45 17
Width: 862
GlyphClass: 2
Flags: W
LayerCount: 2
Fore
SplineSet
655 614 m 2,0,-1
 518 616 l 1,1,2
 440 616 440 616 213 598 c 1,3,4
 156 598 156 598 156 639 c 0,5,6
 156 711 156 711 205 725 c 1,7,8
 235 731 235 731 366 741.5 c 128,-1,9
 497 752 497 752 547 752 c 0,10,11
 756 752 756 752 756 711 c 0,12,13
 756 681 756 681 724.5 647.5 c 128,-1,14
 693 614 693 614 655 614 c 2,0,-1
EndSplineSet
EndChar

StartChar: period
Encoding: 46 46 18
Width: 422
GlyphClass: 2
Flags: W
LayerCount: 2
Fore
SplineSet
216 207 m 0,0,1
 328 206 328 206 328 118 c 0,2,3
 328 74 328 74 276 22.5 c 128,-1,4
 224 -29 224 -29 170 -29 c 0,5,6
 78 -29 78 -29 78 49 c 0,7,8
 78 104 78 104 119 155.5 c 128,-1,9
 160 207 160 207 216 207 c 0,0,1
EndSplineSet
EndChar

StartChar: slash
Encoding: 47 47 19
Width: 1014
GlyphClass: 2
Flags: W
LayerCount: 2
Fore
SplineSet
778 1374 m 0,0,1
 817 1500 817 1500 856.5 1539.5 c 128,-1,2
 896 1579 896 1579 987 1579 c 0,3,4
 995 1579 995 1579 1001.5 1569 c 128,-1,5
 1008 1559 1008 1559 1008 1544 c 128,-1,6
 1008 1529 1008 1529 1001 1513 c 2,7,-1
 223 -43 l 2,8,9
 217 -54 217 -54 200 -96 c 0,10,11
 183 -138 183 -138 146.5 -180.5 c 128,-1,12
 110 -223 110 -223 29 -223 c 0,13,14
 6 -223 6 -223 6 -191 c 128,-1,15
 6 -159 6 -159 39 -101.5 c 128,-1,16
 72 -44 72 -44 94.5 16 c 128,-1,17
 117 76 117 76 290 418.5 c 128,-1,18
 463 761 463 761 618.5 1060 c 128,-1,19
 774 1359 774 1359 778 1374 c 0,0,1
EndSplineSet
EndChar

StartChar: zero
Encoding: 48 48 20
Width: 1210
GlyphClass: 2
Flags: W
LayerCount: 2
Fore
SplineSet
98 360 m 0,0,1
 41 688 41 688 190 1052 c 0,2,3
 270 1246 270 1246 409 1382 c 128,-1,4
 548 1518 548 1518 727 1518 c 0,5,6
 961 1518 961 1518 1058 1317.5 c 0,7,8
 1155 1118 1155 1118 1117 816 c 0,9,10
 1064 407 1064 407 842 156 c 0,11,12
 766 71 766 71 662 21 c 128,-1,13
 558 -29 558 -29 459.5 -29 c 128,-1,14
 361 -29 361 -29 299.5 6 c 128,-1,15
 238 41 238 41 200 95 c 0,16,17
 125 201 125 201 98 360 c 0,0,1
890.5 1305 m 0,18,19
 860 1327 860 1327 822 1327 c 0,20,21
 747 1327 747 1327 641 1247 c 1,22,23
 456 1096 456 1096 349 840 c 128,-1,24
 242 584 242 584 254 332 c 0,25,26
 263 143 263 143 383 143 c 0,27,28
 465 143 465 143 546 193.5 c 0,29,30
 628 244 628 244 692 326 c 0,31,32
 826 496 826 496 902 720 c 0,33,34
 1018 1061 1018 1061 938 1246 c 0,35,36
 922 1283 922 1283 890.5 1305 c 0,18,19
EndSplineSet
EndChar

StartChar: one
Encoding: 49 49 21
Width: 709
GlyphClass: 2
Flags: W
LayerCount: 2
Fore
SplineSet
649 1518 m 0,0,1
 674 1518 674 1518 674 1490 c 128,-1,2
 674 1462 674 1462 672 1452 c 2,3,-1
 395 221 l 2,4,5
 394 216 394 216 393 206 c 0,6,7
 372 0 372 0 326 0 c 2,8,-1
 123 0 l 2,9,10
 96 0 96 0 96 46 c 128,-1,11
 96 92 96 92 118 192.5 c 128,-1,12
 140 293 140 293 164 385.5 c 128,-1,13
 188 478 188 478 219 590.5 c 128,-1,14
 250 703 250 703 328 1006.5 c 128,-1,15
 406 1310 406 1310 408 1313 c 1,16,17
 316 1240 316 1240 202 1162.5 c 128,-1,18
 88 1085 88 1085 49 1085 c 1,19,20
 23 1095 23 1095 23 1124.5 c 128,-1,21
 23 1154 23 1154 84 1192 c 0,22,23
 596 1518 596 1518 649 1518 c 0,0,1
EndSplineSet
EndChar

StartChar: two
Encoding: 50 50 22
Width: 1149
GlyphClass: 2
Flags: W
LayerCount: 2
Fore
SplineSet
339.5 -15.5 m 128,-1,1
 198 -29 198 -29 127.5 -29 c 0,2,3
 57 -30 57 -30 57 18 c 0,4,5
 57 46 57 46 109.5 95 c 128,-1,6
 162 144 162 144 230 206 c 2,7,-1
 349 314 l 2,8,9
 666 603 666 603 778 827 c 0,10,11
 854 980 854 980 854 1125 c 128,-1,12
 854 1270 854 1270 812 1339.5 c 128,-1,13
 770 1409 770 1409 669 1409 c 128,-1,14
 568 1409 568 1409 461 1311 c 0,15,16
 409 1263 409 1263 375.5 1181.5 c 128,-1,17
 342 1100 342 1100 342 999 c 1,18,19
 383 941 383 941 435 916 c 128,-1,20
 487 891 487 891 487 852 c 0,21,22
 487 835 487 835 475 820 c 128,-1,23
 463 805 463 805 435.5 805 c 128,-1,24
 408 805 408 805 281 894 c 128,-1,25
 154 983 154 983 154 1006 c 0,26,27
 154 1125 154 1125 193 1223 c 128,-1,28
 232 1321 232 1321 298 1385 c 0,29,30
 436 1518 436 1518 650 1518 c 0,31,32
 863 1518 863 1518 974 1402 c 128,-1,33
 1085 1286 1085 1286 1085 1137 c 0,34,35
 1086 884 1086 884 818 571 c 0,36,37
 686 416 686 416 488 256 c 0,38,39
 430 208 430 208 404.5 189.5 c 128,-1,40
 379 171 379 171 358 155 c 128,-1,41
 337 139 337 139 334 137 c 1,42,43
 355 140 355 140 526.5 176.5 c 128,-1,44
 698 213 698 213 786 213 c 0,45,46
 934 213 934 213 934 145 c 0,47,48
 934 100 934 100 905 35.5 c 128,-1,49
 876 -29 876 -29 832.5 -29 c 128,-1,50
 789 -29 789 -29 694.5 -15.5 c 128,-1,51
 600 -2 600 -2 540.5 -2 c 128,-1,0
 481 -2 481 -2 339.5 -15.5 c 128,-1,1
EndSplineSet
EndChar

StartChar: three
Encoding: 51 51 23
Width: 1188
GlyphClass: 2
Flags: W
LayerCount: 2
Fore
SplineSet
549 698 m 1,0,1
 489 698 489 698 489 748 c 0,2,3
 489 798 489 798 513 807 c 0,4,5
 537 816 537 816 573 816 c 0,6,7
 671 816 671 816 747 891.5 c 128,-1,8
 823 967 823 967 862 1060.5 c 128,-1,9
 901 1154 901 1154 901 1240.5 c 128,-1,10
 901 1327 901 1327 859 1379.5 c 128,-1,11
 817 1432 817 1432 731 1432 c 0,12,13
 686 1432 686 1432 612.5 1383 c 128,-1,14
 539 1334 539 1334 481.5 1264.5 c 128,-1,15
 424 1195 424 1195 424 1145 c 1,16,17
 438 1122 438 1122 484.5 1082 c 128,-1,18
 531 1042 531 1042 543 1030 c 1,19,20
 538 977 538 977 504 977 c 0,21,22
 477 977 477 977 360.5 1054.5 c 128,-1,23
 244 1132 244 1132 244 1151 c 0,24,25
 244 1239 244 1239 309.5 1324 c 128,-1,26
 375 1409 375 1409 483 1463.5 c 128,-1,27
 591 1518 591 1518 684 1518 c 128,-1,28
 777 1518 777 1518 835 1510 c 0,29,30
 969 1491 969 1491 1047.5 1422 c 128,-1,31
 1126 1353 1126 1353 1126 1212 c 128,-1,32
 1126 1071 1126 1071 1025.5 956.5 c 128,-1,33
 925 842 925 842 788 784 c 1,34,35
 893 755 893 755 958.5 667.5 c 128,-1,36
 1024 580 1024 580 1024 475.5 c 128,-1,37
 1024 371 1024 371 971.5 274 c 128,-1,38
 919 177 919 177 835.5 112 c 128,-1,39
 752 47 752 47 647.5 9 c 128,-1,40
 543 -29 543 -29 461 -29 c 128,-1,41
 379 -29 379 -29 314 -12 c 128,-1,42
 249 5 249 5 188.5 36 c 128,-1,43
 128 67 128 67 88.5 120.5 c 128,-1,44
 49 174 49 174 49 238 c 128,-1,45
 49 302 49 302 94.5 345.5 c 128,-1,46
 140 389 140 389 203 389 c 128,-1,47
 266 389 266 389 283.5 307 c 128,-1,48
 301 225 301 225 321 173 c 0,49,50
 359 76 359 76 450.5 76 c 128,-1,51
 542 76 542 76 618.5 142.5 c 128,-1,52
 695 209 695 209 736.5 305 c 128,-1,53
 778 401 778 401 778 493.5 c 128,-1,54
 778 586 778 586 732.5 643 c 128,-1,55
 687 700 687 700 592 700 c 1,56,-1
 549 698 l 1,0,1
EndSplineSet
EndChar

StartChar: four
Encoding: 52 52 24
Width: 1264
GlyphClass: 2
Flags: W
LayerCount: 2
Fore
SplineSet
403 494 m 1,0,1
 503 463 503 463 608 444 c 1,2,3
 670 603 670 603 756 811 c 1,4,5
 773 838 773 838 860 838 c 2,6,-1
 952 838 l 1,7,8
 935 765 935 765 799 428 c 1,9,10
 930 428 930 428 1008 471 c 1,11,12
 1022 475 1022 475 1085.5 515 c 128,-1,13
 1149 555 1149 555 1196 594 c 1,14,-1
 1245 508 l 1,15,16
 1194 471 1194 471 1113 403 c 0,17,18
 1032 335 1032 335 994 312 c 0,19,20
 924 270 924 270 801 270 c 0,21,22
 760 270 760 270 737 272 c 1,23,-1
 666 96 l 1,24,-1
 658 72 l 2,25,26
 651 48 651 48 636.5 24 c 128,-1,27
 622 0 622 0 608 0 c 2,28,-1
 455 0 l 1,29,-1
 449 20 l 1,30,31
 515 204 515 204 549 291 c 1,32,33
 421 311 421 311 266 340 c 1,34,35
 185 297 185 297 134.5 297 c 128,-1,36
 84 297 84 297 52 327 c 128,-1,37
 20 357 20 357 20 400 c 0,38,39
 20 443 20 443 44 460 c 128,-1,40
 68 477 68 477 104 489 c 2,41,-1
 215 528 l 1,42,-1
 508 1208 l 1,43,44
 575 1396 575 1396 597 1424 c 0,45,46
 649 1488 649 1488 696 1503 c 128,-1,47
 743 1518 743 1518 799 1518 c 128,-1,48
 855 1518 855 1518 866 1499 c 1,49,50
 747 1228 747 1228 403 494 c 1,0,1
EndSplineSet
EndChar

StartChar: five
Encoding: 53 53 25
Width: 1327
GlyphClass: 2
Flags: W
LayerCount: 2
Fore
SplineSet
253 119 m 128,-1,1
 225 164 225 164 225 212.5 c 128,-1,2
 225 261 225 261 274.5 307.5 c 128,-1,3
 324 354 324 354 401 354 c 1,4,5
 402 259 402 259 432 195 c 0,6,7
 489 74 489 74 618 74 c 0,8,9
 857 74 857 74 956 282 c 0,10,11
 1006 387 1006 387 1006 494.5 c 128,-1,12
 1006 602 1006 602 917.5 683 c 128,-1,13
 829 764 829 764 709 764 c 128,-1,14
 589 764 589 764 475 633 c 1,15,16
 445 637 445 637 434 659 c 1,17,18
 461 772 461 772 550.5 1108 c 128,-1,19
 640 1444 640 1444 655 1458.5 c 128,-1,20
 670 1473 670 1473 680 1473 c 2,21,-1
 686 1473 l 1,22,23
 943 1448 943 1448 1068.5 1448 c 128,-1,24
 1194 1448 1194 1448 1364 1468 c 1,25,-1
 1421 1450 l 1,26,27
 1417 1409 1417 1409 1397.5 1374.5 c 128,-1,28
 1378 1340 1378 1340 1370 1326 c 0,29,30
 1324 1240 1324 1240 1292.5 1221 c 128,-1,31
 1261 1202 1261 1202 1117 1202 c 128,-1,32
 973 1202 973 1202 879 1249 c 0,33,34
 868 1255 868 1255 826 1281 c 0,35,36
 784 1307 784 1307 745 1307 c 1,37,38
 730 1259 730 1259 671 1087 c 0,39,40
 612 915 612 915 600 866 c 1,41,42
 745 946 745 946 888.5 946 c 128,-1,43
 1032 946 1032 946 1135.5 844.5 c 128,-1,44
 1239 743 1239 743 1239 602 c 128,-1,45
 1239 461 1239 461 1182 346 c 128,-1,46
 1125 231 1125 231 1033 149.5 c 128,-1,47
 941 68 941 68 821.5 19.5 c 128,-1,48
 702 -29 702 -29 603 -29 c 0,49,50
 504 -29 504 -29 434 -4 c 128,-1,51
 364 21 364 21 322.5 47.5 c 128,-1,0
 281 74 281 74 253 119 c 128,-1,1
EndSplineSet
EndChar

StartChar: six
Encoding: 54 54 26
Width: 1094
GlyphClass: 2
Flags: W
LayerCount: 2
Fore
SplineSet
414 -29 m 0,0,1
 130 -30 130 -30 76 256 c 0,2,3
 17 567 17 567 290 962 c 0,4,5
 381 1093 381 1093 497 1235 c 128,-1,6
 613 1377 613 1377 664.5 1419.5 c 128,-1,7
 716 1462 716 1462 768 1462 c 2,8,-1
 924 1462 l 1,9,10
 674 1205 674 1205 538.5 1019 c 128,-1,11
 403 833 403 833 354 714 c 0,12,13
 254 476 254 476 254 295 c 0,14,15
 254 217 254 217 269 176 c 0,16,17
 284 135 284 135 321.5 111.5 c 128,-1,18
 359 88 359 88 420.5 88 c 128,-1,19
 482 88 482 88 549 144 c 128,-1,20
 616 200 616 200 667 278.5 c 128,-1,21
 718 357 718 357 753 441 c 128,-1,22
 788 525 788 525 792 587 c 128,-1,23
 796 649 796 649 786.5 693 c 128,-1,24
 777 737 777 737 761 761.5 c 128,-1,25
 745 786 745 786 695.5 799.5 c 128,-1,26
 646 813 646 813 520 813 c 1,27,28
 548 867 548 867 584.5 885 c 128,-1,29
 621 903 621 903 684 903 c 0,30,31
 857 903 857 903 943 829.5 c 128,-1,32
 1029 756 1029 756 1016 586 c 0,33,34
 1008 473 1008 473 955.5 362 c 128,-1,35
 903 251 903 251 822 164.5 c 128,-1,36
 741 78 741 78 630.5 24.5 c 128,-1,37
 520 -29 520 -29 414 -29 c 0,0,1
EndSplineSet
EndChar

StartChar: seven
Encoding: 55 55 27
Width: 1022
GlyphClass: 2
Flags: W
LayerCount: 2
Fore
SplineSet
1004 1354 m 1,0,1
 934 1206 934 1206 810 978 c 0,2,3
 509 427 509 427 403 139 c 0,4,5
 392 109 392 109 367.5 54.5 c 128,-1,6
 343 0 343 0 344 0 c 2,7,-1
 115 0 l 1,8,9
 174 295 174 295 413 688 c 0,10,11
 506 840 506 840 770 1225 c 1,12,13
 694 1182 694 1182 545 1157.5 c 128,-1,14
 396 1133 396 1133 283 1133 c 128,-1,15
 170 1133 170 1133 125 1141 c 128,-1,16
 80 1149 80 1149 80 1176 c 0,17,18
 80 1197 80 1197 94 1221 c 128,-1,19
 108 1245 108 1245 118.5 1264.5 c 128,-1,20
 129 1284 129 1284 134 1293 c 0,21,22
 138 1302 138 1302 146 1322 c 0,23,24
 183 1421 183 1421 215 1421 c 1,25,26
 403 1399 403 1399 513 1399 c 128,-1,27
 623 1399 623 1399 749.5 1411 c 128,-1,28
 876 1423 876 1423 956 1423 c 0,29,30
 966 1423 966 1423 987 1407 c 128,-1,31
 1008 1391 1008 1391 1008 1378.5 c 128,-1,32
 1008 1366 1008 1366 1004 1354 c 1,0,1
EndSplineSet
EndChar

StartChar: eight
Encoding: 56 56 28
Width: 1286
GlyphClass: 2
Flags: W
LayerCount: 2
Fore
SplineSet
159.5 21 m 128,-1,1
 53 99 53 99 53 262 c 0,2,3
 53 329 53 329 86 393 c 128,-1,4
 119 457 119 457 167 504 c 128,-1,5
 215 551 215 551 263.5 589 c 128,-1,6
 312 627 312 627 348.5 654 c 128,-1,7
 385 681 385 681 389 692 c 1,8,9
 221 837 221 837 221 956.5 c 128,-1,10
 221 1076 221 1076 279.5 1178 c 128,-1,11
 338 1280 338 1280 433 1354 c 128,-1,12
 528 1428 528 1428 654 1473 c 128,-1,13
 780 1518 780 1518 911 1518 c 0,14,15
 968 1518 968 1518 1030 1506 c 0,16,17
 1150 1482 1150 1482 1149.5 1429.5 c 128,-1,18
 1149 1377 1149 1377 1111.5 1323.5 c 128,-1,19
 1074 1270 1074 1270 1036 1270 c 1,20,21
 949 1386 949 1386 818 1386 c 128,-1,22
 687 1386 687 1386 593.5 1308.5 c 128,-1,23
 500 1231 500 1231 500 1128 c 0,24,25
 500 990 500 990 674 895 c 1,26,27
 688 902 688 902 820 978 c 0,28,29
 1101 1138 1101 1138 1210 1143 c 1,30,-1
 1243 1096 l 1,31,32
 1209 1077 1209 1077 1134 1036 c 128,-1,33
 1059 995 1059 995 980.5 950.5 c 128,-1,34
 902 906 902 906 786 811 c 1,35,36
 942 671 942 671 990 582.5 c 128,-1,37
 1038 494 1038 494 1038 403.5 c 128,-1,38
 1038 313 1038 313 998 238 c 0,39,40
 927 103 927 103 756.5 23 c 128,-1,41
 586 -57 586 -57 426 -57 c 128,-1,0
 266 -57 266 -57 159.5 21 c 128,-1,1
508 590 m 1,42,43
 272 405 272 405 272 215 c 0,44,45
 272 140 272 140 322 90.5 c 128,-1,46
 372 41 372 41 472.5 41 c 128,-1,47
 573 41 573 41 664.5 113.5 c 128,-1,48
 756 186 756 186 756 284.5 c 128,-1,49
 756 383 756 383 684 460.5 c 128,-1,50
 612 538 612 538 508 590 c 1,42,43
EndSplineSet
EndChar

StartChar: nine
Encoding: 57 57 29
Width: 1094
GlyphClass: 2
Flags: W
LayerCount: 2
Fore
SplineSet
825 1174 m 0,0,1
 825 1403 825 1403 662 1403 c 0,2,3
 590 1403 590 1403 518.5 1352 c 128,-1,4
 447 1301 447 1301 395.5 1224 c 128,-1,5
 344 1147 344 1147 311.5 1054 c 128,-1,6
 279 961 279 961 279 869 c 128,-1,7
 279 777 279 777 332 714 c 128,-1,8
 385 651 385 651 496 651 c 0,9,10
 539 651 539 651 563 653 c 1,11,12
 554 550 554 550 460 540 c 0,13,14
 446 538 446 538 424 539 c 0,15,16
 262 539 262 539 152.5 635 c 128,-1,17
 43 731 43 731 43 895 c 0,18,19
 43 1010 43 1010 90 1123 c 128,-1,20
 137 1236 137 1236 215.5 1322.5 c 128,-1,21
 294 1409 294 1409 406.5 1462.5 c 128,-1,22
 519 1516 519 1516 641 1516 c 0,23,24
 827 1516 827 1516 931.5 1410 c 128,-1,25
 1036 1304 1036 1304 1036 1115 c 0,26,27
 1036 867 1036 867 902 599 c 0,28,29
 768 332 768 332 578 154 c 0,30,31
 488 70 488 70 389.5 19 c 128,-1,32
 291 -32 291 -32 205 -32 c 1,33,-1
 135 -2 l 1,34,35
 437 219 437 219 631 555 c 128,-1,36
 825 891 825 891 825 1174 c 0,0,1
EndSplineSet
EndChar

StartChar: colon
Encoding: 58 58 30
Width: 422
GlyphClass: 2
Flags: W
LayerCount: 2
Fore
SplineSet
216 965 m 0,0,1
 328 964 328 964 328 876 c 0,2,3
 328 832 328 832 276 780.5 c 128,-1,4
 224 729 224 729 170 729 c 0,5,6
 78 729 78 729 78 807 c 0,7,8
 78 861 78 861 119 913 c 128,-1,9
 160 965 160 965 216 965 c 0,0,1
216 207 m 0,10,11
 328 206 328 206 328 118 c 0,12,13
 328 74 328 74 276 22.5 c 128,-1,14
 224 -29 224 -29 170 -29 c 0,15,16
 78 -29 78 -29 78 49 c 0,17,18
 78 104 78 104 119 155.5 c 128,-1,19
 160 207 160 207 216 207 c 0,10,11
EndSplineSet
EndChar

StartChar: semicolon
Encoding: 59 59 31
Width: 483
GlyphClass: 2
Flags: W
LayerCount: 2
Fore
SplineSet
190 -29 m 1,0,1
 113 -28 113 -28 113 60 c 0,2,3
 113 104 113 104 154 155.5 c 128,-1,4
 195 207 195 207 251.5 207 c 128,-1,5
 308 207 308 207 332 177 c 128,-1,6
 356 147 356 147 356 107 c 128,-1,7
 356 67 356 67 340 22 c 0,8,9
 324 -23 324 -23 259 -138.5 c 128,-1,10
 194 -254 194 -254 184 -264 c 1,11,-1
 127 -244 l 1,12,-1
 138 -214 l 1,13,14
 169 -122 169 -122 190 -29 c 1,0,1
300 965 m 0,15,16
 412 964 412 964 412 876 c 0,17,18
 412 832 412 832 360 780.5 c 128,-1,19
 308 729 308 729 254 729 c 0,20,21
 162 729 162 729 162 807 c 0,22,23
 162 861 162 861 203 913 c 128,-1,24
 244 965 244 965 300 965 c 0,15,16
EndSplineSet
EndChar

StartChar: less
Encoding: 60 60 32
Width: 1544
GlyphClass: 2
Flags: W
LayerCount: 2
Fore
SplineSet
1432 -113 m 0,0,1
 1432 -168 1432 -168 1338 -168 c 0,2,3
 1296 -168 1296 -168 1261 -143 c 128,-1,4
 1226 -118 1226 -118 1182 -78 c 128,-1,5
 1138 -38 1138 -38 1097.5 10 c 128,-1,6
 1057 58 1057 58 1025.5 99 c 128,-1,7
 994 140 994 140 956 199.5 c 128,-1,8
 918 259 918 259 894 297 c 128,-1,9
 870 335 870 335 830.5 402.5 c 128,-1,10
 791 470 791 470 757 523.5 c 128,-1,11
 723 577 723 577 723 604.5 c 128,-1,12
 723 632 723 632 727.5 645 c 128,-1,13
 732 658 732 658 744.5 674.5 c 128,-1,14
 757 691 757 691 768.5 704 c 128,-1,15
 780 717 780 717 805 744 c 128,-1,16
 830 771 830 771 876 823 c 128,-1,17
 922 875 922 875 1000 963.5 c 128,-1,18
 1078 1052 1078 1052 1116 1096 c 128,-1,19
 1154 1140 1154 1140 1210 1202 c 0,20,21
 1266 1264 1266 1264 1301.5 1297.5 c 128,-1,22
 1337 1331 1337 1331 1374.5 1352.5 c 128,-1,23
 1412 1374 1412 1374 1449.5 1374 c 128,-1,24
 1487 1374 1487 1374 1513.5 1360 c 128,-1,25
 1540 1346 1540 1346 1540 1322 c 128,-1,26
 1540 1298 1540 1298 1509 1271.5 c 128,-1,27
 1478 1245 1478 1245 1433.5 1218 c 128,-1,28
 1389 1191 1389 1191 1325 1137 c 128,-1,29
 1261 1083 1261 1083 1210 1018 c 0,30,31
 1095 869 1095 869 893 649 c 1,32,-1
 1067 397 l 1,33,34
 1197 194 1197 194 1314.5 63.5 c 128,-1,35
 1432 -67 1432 -67 1432 -113 c 0,0,1
EndSplineSet
EndChar

StartChar: equal
Encoding: 61 61 33
Width: 1120
GlyphClass: 2
Flags: W
LayerCount: 2
Fore
SplineSet
852 614 m 2,0,-1
 715 616 l 1,1,2
 594 616 594 616 266 598 c 1,3,4
 209 598 209 598 209 639 c 0,5,6
 209 710 209 710 258 725 c 1,7,8
 294 732 294 732 447 742 c 128,-1,9
 600 752 600 752 776 752 c 128,-1,10
 952 752 952 752 952 711 c 0,11,12
 952 681 952 681 920.5 647.5 c 128,-1,13
 889 614 889 614 852 614 c 2,0,-1
811 389 m 2,14,-1
 674 391 l 1,15,16
 553 391 553 391 225 373 c 1,17,18
 168 373 168 373 168 414 c 0,19,20
 168 485 168 485 217 500 c 1,21,22
 252 507 252 507 405.5 516.5 c 128,-1,23
 559 526 559 526 735 526 c 128,-1,24
 911 526 911 526 911 485 c 0,25,26
 911 455 911 455 879.5 422 c 128,-1,27
 848 389 848 389 811 389 c 2,14,-1
EndSplineSet
EndChar

StartChar: greater
Encoding: 62 62 34
Width: 1544
GlyphClass: 2
Flags: W
LayerCount: 2
Fore
SplineSet
1145 397 m 1,0,1
 1380 649 l 1,2,3
 1232 870 1232 870 1176 975 c 0,4,5
 1087 1141 1087 1141 991 1209.5 c 128,-1,6
 895 1278 895 1278 895 1310 c 128,-1,7
 895 1342 895 1342 926.5 1358 c 128,-1,8
 958 1374 958 1374 988.5 1374 c 128,-1,9
 1019 1374 1019 1374 1034 1371 c 0,10,11
 1083 1362 1083 1362 1126.5 1308.5 c 128,-1,12
 1170 1255 1170 1255 1305 1038 c 1,13,14
 1341 970 1341 970 1403.5 875 c 128,-1,15
 1466 780 1466 780 1505 718.5 c 128,-1,16
 1544 657 1544 657 1544 635 c 0,17,18
 1544 590 1544 590 1468 504 c 0,19,20
 1444 476 1444 476 1370 387.5 c 128,-1,21
 1296 299 1296 299 1215 205 c 0,22,23
 1021 -19 1021 -19 805 -152 c 0,24,25
 778 -168 778 -168 733 -168 c 0,26,27
 655 -168 655 -168 655 -125 c 0,28,29
 655 -92 655 -92 710.5 -37 c 128,-1,30
 766 18 766 18 897 140.5 c 128,-1,31
 1028 263 1028 263 1145 397 c 1,0,1
EndSplineSet
EndChar

StartChar: question
Encoding: 63 63 35
Width: 999
GlyphClass: 2
Flags: W
LayerCount: 2
Fore
SplineSet
334 424 m 0,0,1
 258 424 258 424 258 465 c 0,2,3
 258 586 258 586 362 702 c 0,4,5
 424 771 424 771 528 861 c 0,6,7
 632 950 632 950 678 998 c 0,8,9
 782 1105 782 1105 782 1206 c 0,10,11
 782 1272 782 1272 738 1324 c 0,12,13
 653 1424 653 1424 502 1425 c 0,14,15
 418 1425 418 1425 381.5 1407 c 128,-1,16
 345 1389 345 1389 325 1376.5 c 128,-1,17
 305 1364 305 1364 289 1342 c 128,-1,18
 273 1320 273 1320 262 1304 c 128,-1,19
 251 1288 251 1288 241 1260 c 128,-1,20
 231 1232 231 1232 225.5 1216.5 c 128,-1,21
 220 1201 220 1201 211.5 1170.5 c 128,-1,22
 203 1140 203 1140 199 1128 c 1,23,-1
 156 1130 l 2,24,25
 37 1135 37 1135 37 1227 c 0,26,27
 37 1256 37 1256 47 1278 c 1,28,29
 76 1356 76 1356 150 1413 c 0,30,31
 285 1518 285 1518 473 1518 c 0,32,33
 662 1518 662 1518 812 1430 c 0,34,35
 884 1388 884 1388 927.5 1318 c 128,-1,36
 971 1248 971 1248 971 1167 c 128,-1,37
 971 1086 971 1086 941 1019 c 128,-1,38
 911 952 911 952 863 904.5 c 128,-1,39
 815 857 815 857 756 815 c 128,-1,40
 697 773 697 773 637 736.5 c 0,41,42
 576 700 576 700 526 665 c 0,43,44
 412 586 412 586 401 498 c 1,45,46
 391 461 391 461 372 442.5 c 128,-1,47
 353 424 353 424 334 424 c 0,0,1
344 207 m 0,48,49
 456 206 456 206 455 118 c 0,50,51
 455 74 455 74 403 22.5 c 0,52,53
 352 -29 352 -29 298 -29 c 0,54,55
 206 -29 206 -29 205 49 c 0,56,57
 205 104 205 104 246.5 155.5 c 128,-1,58
 288 207 288 207 344 207 c 0,48,49
EndSplineSet
EndChar

StartChar: at
Encoding: 64 64 36
Width: 1587
GlyphClass: 2
Flags: W
LayerCount: 2
Fore
SplineSet
1495 748.5 m 128,-1,1
 1526 643 1526 643 1526 534.5 c 128,-1,2
 1526 426 1526 426 1500.5 337.5 c 128,-1,3
 1475 249 1475 249 1428 172.5 c 128,-1,4
 1381 96 1381 96 1305 48 c 128,-1,5
 1229 0 1229 0 1131 0 c 128,-1,6
 1033 0 1033 0 966 55 c 128,-1,7
 899 110 899 110 899 199 c 1,8,9
 870 103 870 103 771.5 36 c 128,-1,10
 673 -31 673 -31 574.5 -31 c 128,-1,11
 476 -31 476 -31 415 32 c 128,-1,12
 354 95 354 95 354 214.5 c 128,-1,13
 354 334 354 334 408 445 c 128,-1,14
 462 556 462 556 550.5 643 c 128,-1,15
 639 730 639 730 762.5 785 c 128,-1,16
 886 840 886 840 1016 840 c 0,17,18
 1078 840 1078 840 1184 807 c 1,19,20
 1181 789 1181 789 1130.5 554 c 128,-1,21
 1080 319 1080 319 1072.5 279 c 128,-1,22
 1065 239 1065 239 1065 201 c 0,23,24
 1065 86 1065 86 1144.5 86 c 128,-1,25
 1224 86 1224 86 1310.5 209 c 128,-1,26
 1397 332 1397 332 1397 512 c 0,27,28
 1397 884 1397 884 1114 988 c 0,29,30
 1033 1018 1033 1018 922.5 1018 c 128,-1,31
 812 1018 812 1018 681.5 967.5 c 128,-1,32
 551 917 551 917 444.5 831.5 c 128,-1,33
 338 746 338 746 270.5 619 c 128,-1,34
 203 492 203 492 203 352 c 0,35,36
 203 98 203 98 354.5 -46 c 128,-1,37
 506 -190 506 -190 757.5 -190 c 128,-1,38
 1009 -190 1009 -190 1290 -76 c 1,39,-1
 1350 -199 l 1,40,41
 1101 -313 1101 -313 780 -313 c 0,42,43
 548 -313 548 -313 359.5 -213 c 128,-1,44
 171 -113 171 -113 96 89 c 0,45,46
 55 199 55 199 55 335.5 c 128,-1,47
 55 472 55 472 107 600 c 0,48,49
 203 835 203 835 443 987 c 128,-1,50
 683 1139 683 1139 946 1139 c 0,51,52
 1253 1140 1253 1140 1411 926 c 0,53,0
 1464 854 1464 854 1495 748.5 c 128,-1,1
995 764 m 1,54,55
 887 764 887 764 786 687 c 128,-1,56
 685 610 685 610 626 498 c 128,-1,57
 567 386 567 386 567 289 c 128,-1,58
 567 192 567 192 597.5 146 c 128,-1,59
 628 100 628 100 678 100 c 128,-1,60
 728 100 728 100 783 146 c 128,-1,61
 838 192 838 192 881 272 c 1,62,-1
 995 764 l 1,54,55
EndSplineSet
EndChar

StartChar: A
Encoding: 65 65 37
Width: 1391
GlyphClass: 2
Flags: W
LayerCount: 2
Fore
SplineSet
1313 1518 m 0,0,-1
1319 1272 m 0,1,2
 1346 1272 1346 1272 1346 1239 c 0,3,4
 1346 1227 1346 1227 1343 1223 c 1,5,6
 1255 987 1255 987 1130 329 c 0,7,8
 1105 198 1105 198 1134 174 c 0,9,10
 1143 166 1143 166 1157 166 c 258,11,-1
 1179 166 l 1,12,13
 1216 169 1216 169 1259 203 c 128,-1,14
 1302 237 1302 237 1513 442 c 1,15,-1
 1513 330 l 1,16,17
 1483 299 1483 299 1414 224 c 0,18,19
 1345 150 1345 150 1288 94 c 0,20,21
 1136 -56 1136 -56 1035 -56.5 c 128,-1,22
 934 -57 934 -57 908.5 19 c 128,-1,23
 883 95 883 95 895 193 c 1,24,25
 787 81 787 81 657 12 c 128,-1,26
 527 -57 527 -57 422 -57 c 0,27,28
 244 -57 244 -57 162 39.5 c 128,-1,29
 80 136 80 136 80 328 c 0,30,31
 80 466 80 466 131.5 612.5 c 128,-1,32
 183 759 183 759 271 889 c 0,33,34
 455 1161 455 1161 741.5 1339.5 c 128,-1,35
 1028 1518 1028 1518 1313 1518 c 0,36,37
 1414 1518 1414 1518 1518 1486 c 0,38,39
 1716 1426 1716 1426 1716 1321 c 0,40,41
 1716 1279 1716 1279 1652.5 1221 c 128,-1,42
 1589 1163 1589 1163 1544 1151 c 1,43,44
 1486 1421 1486 1421 1253 1421 c 0,45,46
 1075 1421 1075 1421 859 1271.5 c 128,-1,47
 643 1122 643 1122 490.5 897 c 128,-1,48
 338 672 338 672 338 463 c 0,49,50
 338 304 338 304 414.5 219.5 c 128,-1,51
 491 135 491 135 625 135 c 0,52,53
 714 135 714 135 806 208.5 c 128,-1,54
 898 282 898 282 918.5 390 c 128,-1,55
 939 498 939 498 1013.5 818 c 128,-1,56
 1088 1138 1088 1138 1109.5 1205 c 128,-1,57
 1131 1272 1131 1272 1319 1272 c 0,1,2
EndSplineSet
EndChar

StartChar: B
Encoding: 66 66 38
Width: 1667
GlyphClass: 2
Flags: W
LayerCount: 2
Fore
SplineSet
211 303 m 1,0,-1
 209 213 l 1,1,2
 209 115 209 115 235.5 78 c 128,-1,3
 262 41 262 41 319 41 c 0,4,5
 456 41 456 41 541 314 c 0,6,7
 571 409 571 409 612 625 c 2,8,-1
 719 1192 l 1,9,10
 728 1249 728 1249 948 1249 c 1,11,-1
 940 1188 l 1,12,13
 913 1005 913 1005 897 946.5 c 128,-1,14
 881 888 881 888 864.5 807 c 128,-1,15
 848 726 848 726 811 548 c 128,-1,16
 774 370 774 370 735 266 c 1,17,18
 764 186 764 186 849 132 c 128,-1,19
 934 78 934 78 1047.5 78 c 128,-1,20
 1161 78 1161 78 1226.5 156 c 128,-1,21
 1292 234 1292 234 1292 349 c 128,-1,22
 1292 464 1292 464 1227 581.5 c 128,-1,23
 1162 699 1162 699 1059 756 c 1,24,-1
 1059 872 l 1,25,26
 1195 879 1195 879 1281.5 943 c 128,-1,27
 1368 1007 1368 1007 1368 1106 c 0,28,29
 1368 1391 1368 1391 893 1391 c 0,30,31
 738 1391 738 1391 570.5 1318 c 0,32,33
 402 1245 402 1245 334 1135 c 0,34,35
 294 1072 294 1072 295 1004 c 0,36,37
 295 891 295 891 457 834 c 1,38,39
 457 745 457 745 434 668 c 1,40,41
 322 703 322 703 227.5 785 c 128,-1,42
 133 867 133 867 133 985 c 128,-1,43
 133 1103 133 1103 204 1204 c 0,44,45
 274 1305 274 1305 392 1373 c 0,46,47
 643 1518 643 1518 959 1518 c 0,48,49
 1274 1518 1274 1518 1432 1383 c 0,50,51
 1546 1286 1546 1286 1546 1126 c 0,52,53
 1546 1048 1546 1048 1512 991 c 128,-1,54
 1478 934 1478 934 1440 901 c 0,55,56
 1354 825 1354 825 1196 823 c 1,57,58
 1388 725 1388 725 1482.5 592 c 128,-1,59
 1577 459 1577 459 1577 346 c 0,60,61
 1577 138 1577 138 1436.5 40.5 c 128,-1,62
 1296 -57 1296 -57 1118.5 -57 c 128,-1,63
 941 -57 941 -57 839.5 -4.5 c 128,-1,64
 738 48 738 48 674 156 c 1,65,66
 580 35 580 35 492.5 -11 c 128,-1,67
 405 -57 405 -57 303.5 -57 c 0,68,69
 202 -56 202 -56 112 -2 c 0,70,71
 68 24 68 24 41 70 c 128,-1,72
 14 116 14 116 14 172 c 0,73,74
 14 303 14 303 211 303 c 1,0,-1
EndSplineSet
EndChar

StartChar: C
Encoding: 67 67 39
Width: 1268
GlyphClass: 2
Flags: W
LayerCount: 2
Fore
SplineSet
954 1518 m 0,0,-1
1096 1149 m 1,1,2
 1042 1417 1042 1417 926 1417 c 1,3,4
 816 1413 816 1413 716 1366 c 0,5,6
 530 1279 530 1279 413.5 1077.5 c 128,-1,7
 297 876 297 876 297 637 c 128,-1,8
 297 398 297 398 417.5 261.5 c 128,-1,9
 538 125 538 125 735 125 c 0,10,11
 890 125 890 125 1064 208.5 c 128,-1,12
 1238 292 1238 292 1403 451 c 1,13,-1
 1403 340 l 1,14,15
 983 -57 983 -57 616 -57 c 0,16,17
 308 -58 308 -58 164 210 c 0,18,19
 82 364 82 364 82 561 c 0,20,21
 82 842 82 842 237 1104 c 0,22,23
 342 1282 342 1282 524.5 1400 c 128,-1,24
 707 1518 707 1518 956 1518 c 0,25,26
 1105 1518 1105 1518 1210 1415 c 128,-1,27
 1315 1312 1315 1312 1315 1178 c 0,28,29
 1315 1120 1315 1120 1270 1097.5 c 128,-1,30
 1225 1075 1225 1075 1012.5 957.5 c 128,-1,31
 800 840 800 840 780 840 c 0,32,33
 741 840 741 840 741 881 c 0,34,35
 740 930 740 930 918 1007 c 0,36,37
 984 1036 984 1036 1040 1075 c 128,-1,38
 1096 1114 1096 1114 1096 1149 c 1,1,2
EndSplineSet
EndChar

StartChar: D
Encoding: 68 68 40
Width: 1726
GlyphClass: 2
Flags: W
LayerCount: 2
Fore
SplineSet
152 326 m 1,0,-1
 145 221 l 1,1,2
 145 139 145 139 170.5 90 c 128,-1,3
 196 41 196 41 264 41 c 0,4,5
 303 41 303 41 339 67.5 c 128,-1,6
 375 94 375 94 397 143 c 1,7,8
 471 295 471 295 543 594 c 1,9,-1
 662 1208 l 1,10,11
 675 1247 675 1247 791 1247 c 2,12,-1
 885 1247 l 1,13,14
 872 1173 872 1173 851 1017.5 c 128,-1,15
 830 862 830 862 814.5 767 c 128,-1,16
 799 672 799 672 757.5 531 c 128,-1,17
 716 390 716 390 655 264 c 1,18,19
 684 176 684 176 768 117.5 c 128,-1,20
 852 59 852 59 941.5 59 c 128,-1,21
 1031 59 1031 59 1117.5 109.5 c 128,-1,22
 1204 160 1204 160 1272.5 248 c 128,-1,23
 1341 336 1341 336 1383 468 c 128,-1,24
 1425 600 1425 600 1425 728.5 c 0,25,26
 1424 857 1424 857 1404 950 c 0,27,28
 1361 1147 1361 1147 1221.5 1270 c 128,-1,29
 1082 1393 1082 1393 840 1393 c 0,30,31
 695 1393 695 1393 551.5 1335 c 128,-1,32
 408 1277 408 1277 318.5 1188 c 128,-1,33
 229 1099 229 1099 229 1014 c 0,34,35
 229 897 229 897 393 834 c 1,36,37
 393 788 393 788 384 737.5 c 128,-1,38
 375 687 375 687 367 672 c 1,39,40
 218 719 218 719 143 806.5 c 128,-1,41
 68 894 68 894 68 984 c 0,42,43
 68 1251 68 1251 391 1410 c 0,44,45
 610 1518 610 1518 971 1518 c 0,46,47
 1116 1518 1116 1518 1236 1476 c 0,48,49
 1453 1400 1453 1400 1568 1217 c 128,-1,50
 1683 1034 1683 1034 1683 841.5 c 128,-1,51
 1683 649 1683 649 1626.5 485.5 c 128,-1,52
 1570 322 1570 322 1473.5 203 c 128,-1,53
 1377 84 1377 84 1240.5 13.5 c 128,-1,54
 1104 -57 1104 -57 950 -57 c 0,55,56
 722 -57 722 -57 584 133 c 1,57,58
 506 21 506 21 416 -17 c 128,-1,59
 326 -55 326 -55 211 -55 c 128,-1,60
 96 -55 96 -55 21.5 20.5 c 128,-1,61
 -53 96 -53 96 -53 184 c 0,62,63
 -53 326 -53 326 152 326 c 1,0,-1
EndSplineSet
EndChar

StartChar: E
Encoding: 69 69 41
Width: 1403
GlyphClass: 2
Flags: W
LayerCount: 2
Fore
SplineSet
948 1518 m 0,0,-1
1053 805 m 1,1,-1
 1272 799 l 1,2,3
 1309 799 1309 799 1309 767.5 c 128,-1,4
 1309 736 1309 736 1277.5 703 c 128,-1,5
 1246 670 1246 670 1208 670 c 0,6,7
 913 670 913 670 774 659 c 1,8,-1
 774 657 l 1,9,10
 723 470 723 470 584 238 c 1,11,12
 616 240 l 1,13,-1
 674 238 l 2,14,15
 698 238 698 238 711 240 c 1,16,17
 718 238 718 238 874 178.5 c 128,-1,18
 1030 119 1030 119 1071 119 c 128,-1,19
 1112 119 1112 119 1163 145 c 1,20,21
 1189 149 1189 149 1309.5 244.5 c 128,-1,22
 1430 340 1430 340 1524 438 c 1,23,-1
 1524 328 l 1,24,25
 1494 300 1494 300 1436 248 c 0,26,27
 1265 93 1265 93 1175 34 c 0,28,29
 1037 -57 1037 -57 893 -57 c 0,30,31
 887 -57 887 -57 873 -49 c 0,32,33
 785 4 785 4 442 109 c 1,34,35
 351 37 351 37 258.5 -10 c 128,-1,36
 166 -57 166 -57 100 -57 c 0,37,38
 77 -57 77 -57 49 -44 c 0,39,40
 -8 -18 -8 -18 -8 43 c 0,41,42
 -8 96 -8 96 114 148 c 0,43,44
 140 159 140 159 145 162 c 2,45,-1
 401 279 l 1,46,47
 427 317 427 317 514 631 c 1,48,49
 505 630 505 630 453.5 616.5 c 128,-1,50
 402 603 402 603 338 597 c 128,-1,51
 274 591 274 591 274 636 c 0,52,53
 274 680 274 680 307 694 c 0,54,55
 385 727 385 727 551 760 c 1,56,57
 558 786 558 786 574.5 844 c 128,-1,58
 591 902 591 902 597.5 925 c 128,-1,59
 604 948 604 948 619 996.5 c 128,-1,60
 634 1045 634 1045 642 1066.5 c 128,-1,61
 650 1088 650 1088 665 1127 c 128,-1,62
 680 1166 680 1166 692 1186 c 128,-1,63
 704 1206 704 1206 722 1236 c 0,64,65
 764 1307 764 1307 842 1360 c 1,66,67
 741 1368 741 1368 635 1368 c 0,68,69
 385 1368 385 1368 267.5 1308 c 128,-1,70
 150 1248 150 1248 150 1143 c 0,71,72
 150 1087 150 1087 201 1037 c 128,-1,73
 252 987 252 987 346 952 c 1,74,75
 346 917 346 917 337 875.5 c 128,-1,76
 328 834 328 834 317 825 c 1,77,78
 163 879 163 879 82.5 957.5 c 128,-1,79
 2 1036 2 1036 2 1120 c 0,80,81
 2 1299 2 1299 178 1408.5 c 128,-1,82
 354 1518 354 1518 657 1518 c 2,83,-1
 948 1518 l 2,84,85
 1569 1518 1569 1518 1569 1491 c 0,86,87
 1569 1479 1569 1479 1550 1460 c 1,88,-1
 1450 1346 l 1,89,90
 1398 1311 1398 1311 1345.5 1311 c 128,-1,91
 1293 1311 1293 1311 1158.5 1332 c 128,-1,92
 1024 1353 1024 1353 963 1356 c 1,93,94
 955 1326 955 1326 900.5 1119.5 c 128,-1,95
 846 913 846 913 809 795 c 1,96,97
 939 805 939 805 1053 805 c 1,1,-1
EndSplineSet
EndChar

StartChar: F
Encoding: 70 70 42
Width: 1313
GlyphClass: 2
Flags: W
LayerCount: 2
Fore
SplineSet
899 1339 m 1,0,-1
 854 1341 l 1,1,2
 738 1341 738 1341 625.5 1312 c 128,-1,3
 513 1283 513 1283 431 1237.5 c 128,-1,4
 349 1192 349 1192 298.5 1134.5 c 128,-1,5
 248 1077 248 1077 248 1022 c 0,6,7
 248 900 248 900 408 829 c 1,8,9
 408 787 408 787 398 730.5 c 128,-1,10
 388 674 388 674 379 662 c 1,11,12
 220 727 220 727 141.5 820 c 128,-1,13
 63 913 63 913 63 1016 c 0,14,15
 63 1203 63 1203 266 1340.5 c 128,-1,16
 469 1478 469 1478 813 1507 c 1,17,18
 971 1518 971 1518 1127 1518 c 128,-1,19
 1283 1518 1283 1518 1374 1517 c 128,-1,20
 1465 1516 1465 1516 1509 1516 c 1,21,-1
 1368 1305 l 1,22,23
 1274 1305 1274 1305 1154 1318.5 c 128,-1,24
 1034 1332 1034 1332 989 1335 c 1,25,26
 968 1225 968 1225 934 1034 c 128,-1,27
 900 843 900 843 891 795 c 1,28,29
 976 805 976 805 1065.5 805 c 128,-1,30
 1155 805 1155 805 1272 799 c 1,31,32
 1309 799 1309 799 1309 764 c 128,-1,33
 1309 729 1309 729 1277.5 689 c 128,-1,34
 1246 649 1246 649 1208 649 c 0,35,36
 973 649 973 649 860 639 c 1,37,38
 787 285 787 285 702 123.5 c 128,-1,39
 617 -38 617 -38 511 -109 c 128,-1,40
 405 -180 405 -180 252 -180 c 0,41,42
 65 -180 65 -180 -1 -28 c 0,43,44
 -18 11 -18 11 -18 49 c 0,45,46
 -18 205 -18 205 195 205 c 1,47,48
 184 144 184 144 184 72 c 0,49,50
 184 -77 184 -77 289 -80.5 c 128,-1,51
 394 -84 394 -84 482 135 c 0,52,53
 553 313 553 313 623 600 c 1,54,-1
 537 575 l 1,55,56
 532 575 532 575 519 574.5 c 128,-1,57
 506 574 506 574 492.5 585 c 128,-1,58
 479 596 479 596 479 621 c 128,-1,59
 479 646 479 646 490 668.5 c 128,-1,60
 501 691 501 691 541 708.5 c 128,-1,61
 581 726 581 726 657 750 c 1,62,63
 672 812 672 812 683.5 863.5 c 128,-1,64
 695 915 695 915 704 954 c 128,-1,65
 713 993 713 993 719 1016 c 128,-1,66
 725 1039 725 1039 742 1109 c 128,-1,67
 759 1179 759 1179 784 1221 c 1,68,69
 837 1300 837 1300 899 1339 c 1,0,-1
EndSplineSet
EndChar

StartChar: G
Encoding: 71 71 43
Width: 1458
GlyphClass: 2
Flags: W
LayerCount: 2
Fore
SplineSet
743 -467 m 0,0,1
 677 -467 677 -467 609.5 -437.5 c 128,-1,2
 542 -408 542 -408 494 -349.5 c 0,3,4
 446 -290 446 -290 446 -232 c 0,5,6
 446 -108 446 -108 528 -88 c 1,7,-1
 985 45 l 1,8,-1
 996 86 l 1,9,10
 1030 227 1030 227 1038 285 c 1,11,-1
 1055 371 l 1,12,13
 952 271 952 271 804 194 c 128,-1,14
 656 117 656 117 551 117 c 0,15,16
 316 117 316 117 190 453 c 1,17,-1
 70 383 l 2,18,19
 14 351 14 351 -6 339 c 128,-1,20
 -26 327 -26 327 -52 313 c 128,-1,21
 -78 299 -78 299 -89.5 299 c 128,-1,22
 -101 299 -101 299 -109 317.5 c 128,-1,23
 -117 336 -117 336 -117 365.5 c 128,-1,24
 -117 395 -117 395 -96 403 c 1,25,26
 -75 416 -75 416 46.5 480.5 c 128,-1,27
 168 545 168 545 172 559 c 1,28,29
 172 747 172 747 241.5 922.5 c 128,-1,30
 311 1098 311 1098 429.5 1229 c 128,-1,31
 548 1360 548 1360 717 1439 c 128,-1,32
 886 1518 886 1518 1073 1518 c 0,33,34
 1149 1518 1149 1518 1219.5 1488 c 128,-1,35
 1290 1458 1290 1458 1338 1411 c 0,36,37
 1444 1307 1444 1307 1444 1188 c 0,38,39
 1444 1116 1444 1116 1411 1087 c 0,40,41
 1396 1074 1396 1074 1337 1049 c 1,42,-1
 1274 1020 l 1,43,-1
 444 586 l 1,44,45
 471 469 471 469 549 381 c 128,-1,46
 627 293 627 293 729 293 c 0,47,48
 885 293 885 293 1061 434 c 1,49,50
 1065 443 1065 443 1084 518.5 c 128,-1,51
 1103 594 1103 594 1108 621 c 1,52,-1
 1307 621 l 1,53,-1
 1188 119 l 1,54,55
 1317 179 1317 179 1583 440 c 1,56,-1
 1583 330 l 1,57,58
 1500 241 1500 241 1358.5 127.5 c 128,-1,59
 1217 14 1217 14 1157 -10 c 1,60,61
 1111 -234 1111 -234 1001.5 -350.5 c 128,-1,62
 892 -467 892 -467 743 -467 c 0,0,1
954 -74 m 1,63,64
 916 -90 916 -90 848 -107.5 c 128,-1,65
 780 -125 780 -125 736 -137 c 128,-1,66
 692 -149 692 -149 656.5 -176 c 128,-1,67
 621 -203 621 -203 621 -254.5 c 128,-1,68
 621 -306 621 -306 660 -357 c 128,-1,69
 699 -408 699 -408 752 -408 c 0,70,71
 844 -408 844 -408 898 -264 c 0,72,73
 941 -148 941 -148 954 -74 c 1,63,64
1160 1046 m 0,74,75
 1230 1077 1230 1077 1231 1130 c 0,76,77
 1231 1237 1231 1237 1169.5 1333.5 c 128,-1,78
 1108 1430 1108 1430 1042 1430 c 0,79,80
 941 1430 941 1430 845 1386 c 0,81,82
 667 1304 667 1304 546.5 1100.5 c 128,-1,83
 426 897 426 897 426 678 c 1,84,-1
 844 887 l 2,85,86
 898 914 898 914 1010.5 972 c 128,-1,87
 1123 1030 1123 1030 1160 1046 c 0,74,75
EndSplineSet
EndChar

StartChar: H
Encoding: 72 72 44
Width: 1870
GlyphClass: 2
Flags: W
LayerCount: 2
Fore
SplineSet
322 819 m 1,0,1
 203 865 203 865 133 923 c 0,2,3
 4 1030 4 1030 4 1149 c 0,4,5
 4 1360 4 1360 244 1462 c 0,6,7
 372 1516 372 1516 495 1516 c 128,-1,8
 618 1516 618 1516 801 1480 c 128,-1,9
 984 1444 984 1444 1054 1444 c 128,-1,10
 1124 1444 1124 1444 1197 1465.5 c 128,-1,11
 1270 1487 1270 1487 1303 1489 c 1,12,13
 1293 1426 1293 1426 1262.5 1370.5 c 128,-1,14
 1232 1315 1232 1315 1186 1286 c 1,15,16
 1132 1206 1132 1206 1111 1163 c 128,-1,17
 1090 1120 1090 1120 1081.5 1104 c 128,-1,18
 1073 1088 1073 1088 1059.5 1054 c 128,-1,19
 1046 1020 1046 1020 1040.5 1007.5 c 128,-1,20
 1035 995 1035 995 1021 956 c 128,-1,21
 1007 917 1007 917 992 878 c 0,22,23
 977 839 977 839 967 805 c 1,24,25
 1092 817 1092 817 1245 823 c 1,26,27
 1325 1036 1325 1036 1461 1218 c 0,28,29
 1597 1400 1597 1400 1765 1475 c 0,30,31
 1857 1516 1857 1516 1928.5 1516 c 128,-1,32
 2000 1516 2000 1516 2064 1497.5 c 128,-1,33
 2128 1479 2128 1479 2182 1436.5 c 128,-1,34
 2236 1394 2236 1394 2236 1349 c 128,-1,35
 2236 1304 2236 1304 2167.5 1238.5 c 128,-1,36
 2099 1173 2099 1173 2062 1171 c 1,37,-1
 2054 1192 l 1,38,39
 2008 1348 2008 1348 1903 1348 c 0,40,41
 1720 1348 1720 1348 1552 1102 c 0,42,43
 1470 982 1470 982 1403 829 c 1,44,-1
 1477 829 l 2,45,46
 1708 829 1708 829 1720.5 816.5 c 128,-1,47
 1733 804 1733 804 1733 782.5 c 128,-1,48
 1733 761 1733 761 1701.5 727.5 c 128,-1,49
 1670 694 1670 694 1632 694 c 0,50,51
 1494 694 1494 694 1362 688 c 1,52,53
 1319 540 1319 540 1319 393 c 128,-1,54
 1319 246 1319 246 1360 168 c 128,-1,55
 1401 90 1401 90 1471.5 90 c 128,-1,56
 1542 90 1542 90 1638 144 c 0,57,58
 1798 234 1798 234 1995 442 c 1,59,-1
 1993 328 l 1,60,61
 1845 164 1845 164 1673.5 54.5 c 128,-1,62
 1502 -55 1502 -55 1368 -55 c 0,63,64
 1274 -55 1274 -55 1217.5 28.5 c 128,-1,65
 1161 112 1161 112 1161 304 c 128,-1,66
 1161 496 1161 496 1206 680 c 1,67,68
 1089 672 1089 672 932 657 c 1,69,70
 926 638 926 638 918 605 c 0,71,72
 845 320 845 320 778 197 c 0,73,74
 641 -55 641 -55 383 -55 c 0,75,76
 300 -55 300 -55 233 -28 c 128,-1,77
 166 -1 166 -1 130 39 c 0,78,79
 56 121 56 121 55 195 c 0,80,81
 56 295 56 295 206 311 c 0,82,83
 242 315 242 315 291 315 c 1,84,-1
 291 256 l 2,85,86
 291 109 291 109 338 71 c 0,87,88
 360 53 360 53 380 53 c 128,-1,89
 400 53 400 53 407 54 c 0,90,91
 556 66 556 66 638 344 c 0,92,93
 659 417 659 417 702 631 c 1,94,-1
 489 600 l 1,95,96
 432 600 432 600 432 641 c 0,97,98
 432 698 432 698 460 716 c 0,99,100
 470 722 470 722 483 727 c 1,101,102
 587 752 587 752 735 774 c 1,103,104
 775 963 775 963 816.5 1051 c 128,-1,105
 858 1139 858 1139 903.5 1186 c 128,-1,106
 949 1233 949 1233 1012 1266 c 1,107,108
 958 1271 958 1271 809.5 1299 c 128,-1,109
 661 1327 661 1327 593.5 1327 c 128,-1,110
 526 1327 526 1327 464 1319 c 128,-1,111
 402 1311 402 1311 329.5 1292 c 128,-1,112
 257 1273 257 1273 208.5 1233.5 c 128,-1,113
 160 1194 160 1194 160 1141 c 0,114,115
 160 1036 160 1036 352 954 c 1,116,117
 352 858 352 858 322 819 c 1,0,1
EndSplineSet
EndChar

StartChar: I
Encoding: 73 73 45
Width: 1061
GlyphClass: 2
Flags: W
LayerCount: 2
Fore
SplineSet
403 303 m 1,0,-1
 401 213 l 1,1,2
 401 117 401 117 428 79 c 128,-1,3
 455 41 455 41 512 41 c 0,4,5
 642 41 642 41 725 285 c 0,6,7
 763 394 763 394 805 625 c 2,8,-1
 819 702 l 1,9,10
 546 722 546 722 427 828 c 0,11,12
 362 886 362 886 362 954 c 0,13,14
 362 1072 362 1072 516 1230 c 0,15,16
 618 1334 618 1334 788 1409.5 c 128,-1,17
 958 1485 958 1485 1178 1485 c 0,18,19
 1223 1485 1223 1485 1295.5 1506.5 c 128,-1,20
 1368 1528 1368 1528 1401 1530 c 1,21,22
 1389 1455 1389 1455 1350 1393.5 c 128,-1,23
 1311 1332 1311 1332 1249 1311 c 1,24,25
 1124 1096 1124 1096 1057 793 c 1,26,-1
 1024 647 l 1,27,28
 967 358 967 358 903 223 c 0,29,30
 838 88 838 88 758 29 c 0,31,32
 641 -57 641 -57 494 -57 c 0,33,34
 396 -56 396 -56 306 -2 c 0,35,36
 262 24 262 24 234.5 70 c 128,-1,37
 207 116 207 116 207 172 c 0,38,39
 207 303 207 303 403 303 c 1,0,-1
526 950 m 0,40,41
 526 860 526 860 854 842 c 1,42,43
 899 1010 899 1010 964 1124.5 c 128,-1,44
 1029 1239 1029 1239 1145 1303 c 1,45,46
 1019 1303 1019 1303 910 1272 c 0,47,48
 732 1221 732 1221 629 1114 c 128,-1,49
 526 1007 526 1007 526 950 c 0,40,41
EndSplineSet
EndChar

StartChar: J
Encoding: 74 74 46
Width: 1077
GlyphClass: 2
Flags: W
LayerCount: 2
Fore
SplineSet
1073 1311 m 1,0,1
 968 1128 968 1128 901 840 c 1,2,3
 1034 840 1034 840 1176 862 c 1,4,5
 1176 782 1176 782 1145 748 c 1,6,7
 1015 712 1015 712 872 700 c 1,8,-1
 754 133 l 1,9,10
 779 148 779 148 878.5 202 c 128,-1,11
 978 256 978 256 1050 308 c 128,-1,12
 1122 360 1122 360 1210 446 c 1,13,-1
 1210 334 l 1,14,15
 1133 242 1133 242 976 142 c 128,-1,16
 819 42 819 42 731 10 c 1,17,18
 685 -204 685 -204 579 -316 c 128,-1,19
 473 -428 473 -428 330 -428 c 0,20,21
 265 -428 265 -428 198.5 -398.5 c 128,-1,22
 132 -369 132 -369 85.5 -311 c 128,-1,23
 39 -253 39 -253 39 -194 c 0,24,25
 39 -61 39 -61 123 -39 c 2,26,-1
 541 74 l 1,27,28
 559 185 559 185 613.5 421.5 c 128,-1,29
 668 658 668 658 676 698 c 1,30,-1
 676 700 l 1,31,32
 352 718 352 718 236 848 c 0,33,34
 204 884 204 884 193 922 c 1,35,36
 179 949 179 949 196 1006 c 128,-1,37
 213 1063 213 1063 238 1100.5 c 128,-1,38
 263 1138 263 1138 304 1192 c 0,39,40
 345 1246 345 1246 449 1319 c 128,-1,41
 553 1392 553 1392 695 1438.5 c 128,-1,42
 837 1485 837 1485 1001 1485 c 0,43,44
 1046 1485 1046 1485 1119 1506.5 c 128,-1,45
 1192 1528 1192 1528 1225 1530 c 1,46,47
 1213 1455 1213 1455 1174 1393.5 c 128,-1,48
 1135 1332 1135 1332 1073 1311 c 1,0,1
350 950 m 0,49,50
 350 906 350 906 438.5 876.5 c 128,-1,51
 527 847 527 847 707 840 c 1,52,53
 746 1005 746 1005 806 1122 c 128,-1,54
 866 1239 866 1239 969 1303 c 1,55,56
 843 1303 843 1303 734 1272 c 0,57,58
 556 1221 556 1221 453 1114 c 128,-1,59
 350 1007 350 1007 350 950 c 0,49,50
524 -66 m 1,60,61
 489 -78 489 -78 407.5 -95.5 c 128,-1,62
 326 -113 326 -113 292 -125 c 0,63,64
 222 -150 222 -150 221.5 -207 c 128,-1,65
 221 -264 221 -264 255.5 -310 c 128,-1,66
 290 -356 290 -356 338 -356 c 0,67,68
 421 -356 421 -356 468 -244 c 0,69,70
 503 -160 503 -160 524 -66 c 1,60,61
EndSplineSet
EndChar

StartChar: K
Encoding: 75 75 47
Width: 1888
GlyphClass: 2
Flags: W
LayerCount: 2
Fore
SplineSet
317 819 m 1,0,1
 200 864 200 864 130 923 c 0,2,3
 0 1030 0 1030 0 1149 c 0,4,5
 0 1360 0 1360 240 1462 c 0,6,7
 368 1516 368 1516 489 1516 c 128,-1,8
 610 1516 610 1516 786 1480 c 128,-1,9
 962 1444 962 1444 1031 1444 c 128,-1,10
 1100 1444 1100 1444 1172.5 1465.5 c 128,-1,11
 1245 1487 1245 1487 1278 1489 c 1,12,13
 1255 1344 1255 1344 1161 1286 c 1,14,15
 1085 1183 1085 1183 1034.5 1065.5 c 128,-1,16
 984 948 984 948 938 793 c 2,17,-1
 920 731 l 1,18,19
 1056 870 1056 870 1189 1026 c 0,20,21
 1423 1299 1423 1299 1565.5 1408.5 c 128,-1,22
 1708 1518 1708 1518 1862 1518 c 0,23,24
 1907 1518 1907 1518 1973.5 1502.5 c 128,-1,25
 2040 1487 2040 1487 2084.5 1469 c 128,-1,26
 2129 1451 2129 1451 2162 1417.5 c 128,-1,27
 2195 1384 2195 1384 2195 1344 c 128,-1,28
 2195 1304 2195 1304 2126.5 1238.5 c 128,-1,29
 2058 1173 2058 1173 2021 1171 c 1,30,-1
 2013 1192 l 1,31,32
 1967 1348 1967 1348 1862 1348 c 0,33,34
 1724 1348 1724 1348 1626 1260.5 c 128,-1,35
 1528 1173 1528 1173 1462 1079 c 0,36,37
 1332 893 1332 893 1233 803 c 1,38,-1
 1442 393 l 1,39,40
 1460 360 1460 360 1502 281 c 128,-1,41
 1544 202 1544 202 1577 153.5 c 128,-1,42
 1610 105 1610 105 1649.5 118 c 128,-1,43
 1689 131 1689 131 1766.5 201 c 128,-1,44
 1844 271 1844 271 2009 436 c 1,45,-1
 2009 324 l 1,46,47
 1666 -53 1666 -53 1573 -53 c 0,48,49
 1505 -53 1505 -53 1436 22.5 c 128,-1,50
 1367 98 1367 98 1284 270 c 1,51,-1
 1085 719 l 1,52,-1
 891 625 l 1,53,54
 814 325 814 325 746.5 198.5 c 0,55,56
 680 72 680 72 602 19 c 0,57,58
 493 -55 493 -55 358 -55 c 0,59,60
 275 -55 275 -55 208.5 -28 c 128,-1,61
 142 -1 142 -1 106 39 c 0,62,63
 32 121 32 121 31 195 c 0,64,65
 30 295 30 295 180 311 c 0,66,67
 216 315 216 315 266 315 c 1,68,-1
 266 256 l 2,69,70
 266 109 266 109 313 71 c 0,71,72
 335 53 335 53 376 53 c 128,-1,73
 417 53 417 53 457.5 77.5 c 128,-1,74
 498 102 498 102 527.5 148 c 128,-1,75
 557 194 557 194 579.5 245.5 c 128,-1,76
 602 297 602 297 620 364.5 c 128,-1,77
 638 432 638 432 649.5 485 c 128,-1,78
 661 538 661 538 674 603 c 128,-1,79
 687 668 687 668 694 698 c 2,80,-1
 715 793 l 1,81,82
 776 1082 776 1082 878 1186 c 0,83,84
 924 1232 924 1232 987 1266 c 1,85,86
 945 1271 945 1271 800 1299 c 128,-1,87
 655 1327 655 1327 588.5 1327 c 128,-1,88
 522 1327 522 1327 460 1319 c 128,-1,89
 398 1311 398 1311 325.5 1292 c 128,-1,90
 253 1273 253 1273 204.5 1233.5 c 128,-1,91
 156 1194 156 1194 156 1141 c 0,92,93
 156 1034 156 1034 348 954 c 1,94,95
 348 857 348 857 317 819 c 1,0,1
EndSplineSet
EndChar

StartChar: L
Encoding: 76 76 48
Width: 1255
GlyphClass: 2
Flags: W
LayerCount: 2
Fore
SplineSet
324 117 m 1,0,1
 102 -29 102 -29 -39 -29 c 0,2,3
 -60 -30 -60 -30 -89 -16 c 0,4,5
 -147 11 -147 11 -147 72 c 0,6,7
 -147 109 -147 109 -103 136.5 c 128,-1,8
 -59 164 -59 164 6 190 c 1,9,-1
 268 309 l 1,10,-1
 500 1137 l 2,11,12
 519 1200 519 1200 551.5 1227.5 c 128,-1,13
 584 1255 584 1255 606 1270.5 c 128,-1,14
 628 1286 628 1286 655 1306 c 128,-1,15
 682 1326 682 1326 749 1371 c 128,-1,16
 816 1416 816 1416 912.5 1467 c 128,-1,17
 1009 1518 1009 1518 1053 1518 c 0,18,19
 1182 1518 1182 1518 1286.5 1413 c 128,-1,20
 1391 1308 1391 1308 1391 1178 c 0,21,22
 1391 1120 1391 1120 1347 1098 c 128,-1,23
 1303 1076 1303 1076 1089.5 958 c 128,-1,24
 876 840 876 840 856 840 c 0,25,26
 817 840 817 840 817 881 c 0,27,28
 816 930 816 930 992 1006 c 0,29,30
 1058 1034 1058 1034 1114 1073 c 128,-1,31
 1170 1112 1170 1112 1171 1147 c 1,32,-1
 1166 1175 l 1,33,34
 1114 1417 1114 1417 1001 1417 c 1,35,36
 953 1411 953 1411 884 1342 c 128,-1,37
 815 1273 815 1273 763.5 1192.5 c 128,-1,38
 712 1112 712 1112 702 1067 c 0,39,40
 603 580 603 580 469 266 c 1,41,42
 482 262 482 262 508.5 253 c 128,-1,43
 535 244 535 244 546.5 241 c 128,-1,44
 558 238 558 238 722 178.5 c 128,-1,45
 886 119 886 119 940 119 c 0,46,47
 1028 120 1028 120 1220 288 c 0,48,49
 1292 352 1292 352 1376 438 c 1,50,-1
 1376 326 l 1,51,52
 1150 100 1150 100 1015.5 21.5 c 128,-1,53
 881 -57 881 -57 754 -57 c 0,54,55
 746 -57 746 -57 733.5 -50 c 128,-1,56
 721 -43 721 -43 657 -11 c 0,57,58
 593 21 593 21 324 117 c 1,0,1
EndSplineSet
EndChar

StartChar: M
Encoding: 77 77 49
Width: 1712
GlyphClass: 2
Flags: W
LayerCount: 2
Fore
SplineSet
639 -18 m 1,0,1
 586 -3 586 -3 586 41 c 1,2,-1
 614 1128 l 1,3,-1
 600 1128 l 1,4,-1
 121 131 l 1,5,6
 78 54 78 54 -1 -34 c 128,-1,7
 -80 -122 -80 -122 -183 -191 c 128,-1,8
 -286 -260 -286 -260 -365 -260 c 0,9,10
 -412 -260 -412 -260 -412 -123 c 0,11,12
 -412 -62 -412 -62 -314 -23.5 c 128,-1,13
 -216 15 -216 15 -147 46 c 0,14,15
 -11 107 -11 107 49 213 c 1,16,17
 130 388 130 388 334.5 816 c 128,-1,18
 539 1244 539 1244 608 1391 c 1,19,20
 649 1466 649 1466 728.5 1513.5 c 128,-1,21
 808 1561 808 1561 895 1561 c 1,22,23
 895 1560 895 1560 907 1554 c 1,24,25
 872 1288 872 1288 854.5 936.5 c 128,-1,26
 837 585 837 585 831 485 c 1,27,-1
 846 485 l 1,28,29
 864 524 864 524 971 727.5 c 128,-1,30
 1078 931 1078 931 1325 1432 c 1,31,-1
 1323 1430 l 1,32,33
 1350 1474 1350 1474 1454.5 1525.5 c 128,-1,34
 1559 1577 1559 1577 1616 1579 c 1,35,-1
 1624 1575 l 1,36,37
 1618 1542 1618 1542 1581 1352 c 0,38,39
 1411 477 1411 477 1411 238 c 0,40,41
 1411 141 1411 141 1458 141 c 0,42,43
 1530 141 1530 141 1833 438 c 1,44,-1
 1833 324 l 1,45,46
 1443 -55 1443 -55 1284 -55 c 0,47,48
 1171 -55 1171 -55 1171 154 c 0,49,50
 1171 306 1171 306 1207.5 526.5 c 128,-1,51
 1244 747 1244 747 1272 903 c 128,-1,52
 1300 1059 1300 1059 1315.5 1132 c 128,-1,53
 1331 1205 1331 1205 1331 1218 c 128,-1,54
 1331 1231 1331 1231 1319 1231 c 128,-1,55
 1307 1231 1307 1231 1303 1219 c 1,56,57
 688 8 688 8 639 -18 c 1,0,1
EndSplineSet
EndChar

StartChar: N
Encoding: 78 78 50
Width: 1473
GlyphClass: 2
Flags: W
LayerCount: 2
Fore
SplineSet
549 1040 m 1,0,1
 949 1516 949 1516 1270 1516 c 0,2,3
 1354 1516 1354 1516 1354 1423 c 0,4,5
 1354 1396 1354 1396 1312 1190 c 0,6,7
 1188 574 1188 574 1188 360.5 c 128,-1,8
 1188 147 1188 147 1257 147 c 0,9,10
 1294 147 1294 147 1341 195 c 1,11,-1
 1597 440 l 1,12,-1
 1595 330 l 1,13,14
 1586 320 1586 320 1528.5 261.5 c 128,-1,15
 1471 203 1471 203 1460 193 c 2,16,-1
 1432 168 l 2,17,18
 1405 143 1405 143 1395.5 134.5 c 128,-1,19
 1386 126 1386 126 1356.5 99.5 c 128,-1,20
 1327 73 1327 73 1310.5 60.5 c 128,-1,21
 1294 48 1294 48 1266 26 c 0,22,23
 1238 4 1238 4 1186 -26.5 c 128,-1,24
 1134 -57 1134 -57 1100 -57 c 0,25,26
 963 -57 963 -57 963 262 c 0,27,28
 963 770 963 770 1100 1202 c 1,29,30
 1111 1230 1111 1230 1111 1257 c 256,31,32
 1111 1284 1111 1284 1099 1301 c 128,-1,33
 1087 1318 1087 1318 1069 1318 c 128,-1,34
 1051 1318 1051 1318 1033 1309 c 0,35,36
 874 1228 874 1228 740 1090 c 0,37,38
 477 819 477 819 371 442 c 0,39,40
 348 360 348 360 314 196 c 128,-1,41
 280 32 280 32 272 0 c 1,42,-1
 66 0 l 1,43,44
 66 93 66 93 102.5 249 c 128,-1,45
 139 405 139 405 201.5 631 c 128,-1,46
 264 857 264 857 295 995 c 1,47,-1
 377 1313 l 1,48,-1
 55 1085 l 1,49,-1
 25 1075 l 1,50,51
 -2 1075 -2 1075 -2 1126 c 0,52,53
 -2 1150 -2 1150 23 1167 c 1,54,-1
 453 1438 l 1,55,56
 574 1516 574 1516 623 1516 c 0,57,58
 643 1516 643 1516 643 1497 c 0,59,60
 643 1439 643 1439 604 1286.5 c 128,-1,61
 565 1134 565 1134 565 1122 c 1,62,-1
 549 1040 l 1,0,1
EndSplineSet
EndChar

StartChar: O
Encoding: 79 79 51
Width: 1653
GlyphClass: 2
Flags: W
LayerCount: 2
Fore
SplineSet
1553 976.5 m 0,0,1
 1585 884 1585 884 1585 791.5 c 128,-1,2
 1585 699 1585 699 1573 637 c 1,3,4
 1710 658 1710 658 1853 743 c 1,5,-1
 1853 651 l 1,6,7
 1718 545 1718 545 1540 510 c 1,8,9
 1479 342 1479 342 1345.5 211 c 128,-1,10
 1212 80 1212 80 1047 11.5 c 128,-1,11
 882 -57 882 -57 715 -57 c 0,12,13
 393 -56 393 -56 223 190 c 0,14,15
 100 368 100 368 100 664 c 0,16,17
 100 912 100 912 264.5 1142.5 c 0,18,19
 429 1372 429 1372 696 1466 c 0,20,21
 843 1518 843 1518 1006 1518 c 0,22,23
 1067 1518 1067 1518 1143 1505 c 1,24,-1
 1139 1403 l 1,25,26
 1092 1411 1092 1411 1002.5 1411 c 0,27,28
 912 1410 912 1410 798 1370 c 0,29,30
 588 1296 588 1296 458 1116.5 c 128,-1,31
 328 937 328 937 328 748 c 0,32,33
 328 404 328 404 547 250 c 0,34,35
 675 160 675 160 853 160 c 128,-1,36
 1031 160 1031 160 1173 253.5 c 128,-1,37
 1315 347 1315 347 1395 496 c 1,38,-1
 1382 496 l 2,39,40
 1168 496 1168 496 1013 606 c 128,-1,41
 858 716 858 716 858 940 c 0,42,43
 858 1059 858 1059 949 1149 c 128,-1,44
 1040 1239 1040 1239 1217 1239 c 0,45,46
 1360 1239 1360 1239 1468 1125 c 0,47,48
 1522 1069 1522 1069 1553 976.5 c 0,0,1
1030 999 m 0,49,50
 1030 840 1030 840 1148 735 c 128,-1,51
 1266 630 1266 630 1448 627 c 1,52,53
 1475 712 1475 712 1475 799 c 0,54,55
 1475 942 1475 942 1401.5 1034 c 128,-1,56
 1328 1126 1328 1126 1190 1126 c 0,57,58
 1109 1126 1109 1126 1069.5 1092 c 128,-1,59
 1030 1058 1030 1058 1030 999 c 0,49,50
EndSplineSet
EndChar

StartChar: P
Encoding: 80 80 52
Width: 1317
GlyphClass: 2
Flags: W
LayerCount: 2
Fore
SplineSet
63 176 m 1,0,-1
 61 66 l 1,1,2
 61 -82 61 -82 178 -82 c 0,3,4
 348 -82 348 -82 451 358 c 0,5,6
 462 404 462 404 502 614 c 2,7,-1
 612 1190 l 2,8,9
 618 1219 618 1219 666.5 1233 c 128,-1,10
 715 1247 715 1247 752 1247 c 2,11,-1
 840 1249 l 1,12,13
 829 1171 829 1171 795 993.5 c 128,-1,14
 761 816 761 816 735 711 c 1,15,-1
 760 711 l 2,16,17
 1008 711 1008 711 1141 821 c 128,-1,18
 1274 931 1274 931 1274 1067.5 c 128,-1,19
 1274 1204 1274 1204 1150 1298.5 c 128,-1,20
 1026 1393 1026 1393 799 1393 c 0,21,22
 680 1393 680 1393 545.5 1356.5 c 128,-1,23
 411 1320 411 1320 310 1249 c 128,-1,24
 209 1178 209 1178 209 1099.5 c 128,-1,25
 209 1021 209 1021 250 982.5 c 128,-1,26
 291 944 291 944 373 913 c 1,27,28
 373 809 373 809 346 754 c 1,29,30
 180 804 180 804 94 926 c 0,31,32
 47 992 47 992 47 1082.5 c 128,-1,33
 47 1173 47 1173 118.5 1260 c 0,34,35
 190 1346 190 1346 307 1402 c 0,36,37
 550 1518 550 1518 860 1518 c 0,38,39
 1254 1518 1254 1518 1428 1340 c 0,40,41
 1528 1237 1528 1237 1528 1100 c 0,42,43
 1528 1007 1528 1007 1480 916.5 c 128,-1,44
 1432 826 1432 826 1347.5 753 c 128,-1,45
 1263 680 1263 680 1134 635 c 128,-1,46
 1005 590 1005 590 856 590 c 0,47,48
 788 590 788 590 715 602 c 1,49,50
 640 94 640 94 414 -86 c 0,51,52
 296 -180 296 -180 168 -180 c 128,-1,53
 40 -180 40 -180 -46.5 -119 c 128,-1,54
 -133 -58 -133 -58 -133 53 c 0,55,56
 -133 176 -133 176 63 176 c 1,0,-1
EndSplineSet
EndChar

StartChar: Q
Encoding: 81 81 53
Width: 1632
GlyphClass: 2
Flags: W
LayerCount: 2
Fore
SplineSet
754 -229 m 1,0,1
 1002 -191 1002 -191 1055 -152 c 1,2,-1
 1065 -272 l 1,3,4
 1024 -294 1024 -294 908.5 -318 c 128,-1,5
 793 -342 793 -342 729 -348 c 1,6,7
 699 -420 699 -420 618 -469 c 128,-1,8
 537 -518 537 -518 423.5 -518 c 128,-1,9
 310 -518 310 -518 218 -468 c 0,10,11
 170 -442 170 -442 140.5 -396 c 128,-1,12
 111 -350 111 -350 111 -289 c 0,13,14
 111 -209 111 -209 178 -209 c 1,15,-1
 563 -236 l 1,16,17
 592 -201 592 -201 650.5 -41 c 128,-1,18
 709 119 709 119 744 216.5 c 0,19,20
 780 314 780 314 786 330 c 0,21,22
 802 370 802 370 977 371 c 1,23,-1
 754 -229 l 1,0,1
422 -334 m 1,24,-1
 301 -324 l 1,25,26
 272 -324 272 -324 264 -327 c 128,-1,27
 256 -330 256 -330 256 -346 c 0,28,29
 256 -370 256 -370 309.5 -397 c 128,-1,30
 363 -424 363 -424 409 -424 c 0,31,32
 454 -424 454 -424 472 -416 c 0,33,34
 507 -400 507 -400 537 -334 c 1,35,-1
 422 -334 l 1,24,-1
1514 976.5 m 128,-1,37
 1546 884 1546 884 1546 791.5 c 128,-1,38
 1546 699 1546 699 1534 637 c 1,39,40
 1671 658 1671 658 1814 743 c 1,41,-1
 1814 651 l 1,42,43
 1679 545 1679 545 1501 510 c 1,44,45
 1440 342 1440 342 1306.5 211 c 128,-1,46
 1173 80 1173 80 1008 11.5 c 128,-1,47
 843 -57 843 -57 676 -57 c 0,48,49
 354 -56 354 -56 184 190 c 0,50,51
 61 368 61 368 61 664 c 0,52,53
 61 912 61 912 225.5 1142.5 c 0,54,55
 390 1372 390 1372 657 1466 c 0,56,57
 804 1518 804 1518 967 1518 c 0,58,59
 1028 1518 1028 1518 1104 1505 c 1,60,-1
 1100 1403 l 1,61,62
 1053 1411 1053 1411 963.5 1411 c 0,63,64
 874 1410 874 1410 760 1370 c 0,65,66
 550 1296 550 1296 419.5 1116.5 c 128,-1,67
 289 937 289 937 289 748 c 0,68,69
 289 404 289 404 508 250 c 0,70,71
 636 160 636 160 814 160 c 128,-1,72
 992 160 992 160 1134 253.5 c 128,-1,73
 1276 347 1276 347 1356 496 c 1,74,-1
 1343 496 l 2,75,76
 1129 496 1129 496 974 606 c 128,-1,77
 819 716 819 716 819 940 c 0,78,79
 819 1059 819 1059 910 1149 c 128,-1,80
 1001 1239 1001 1239 1178 1239 c 0,81,82
 1320 1239 1320 1239 1428 1125 c 0,83,36
 1482 1069 1482 1069 1514 976.5 c 128,-1,37
991 999 m 0,84,85
 991 840 991 840 1109 735 c 128,-1,86
 1227 630 1227 630 1409 627 c 1,87,88
 1436 712 1436 712 1436 799 c 0,89,90
 1436 942 1436 942 1362.5 1034 c 128,-1,91
 1289 1126 1289 1126 1151 1126 c 0,92,93
 1070 1126 1070 1126 1030.5 1092 c 128,-1,94
 991 1058 991 1058 991 999 c 0,84,85
EndSplineSet
EndChar

StartChar: R
Encoding: 82 82 54
Width: 1616
GlyphClass: 2
Flags: W
LayerCount: 2
Fore
SplineSet
891 1518 m 0,0,-1
762 688 m 1,1,2
 876 688 876 688 976 726.5 c 128,-1,3
 1076 765 1076 765 1140.5 824.5 c 128,-1,4
 1205 884 1205 884 1241.5 952.5 c 128,-1,5
 1278 1021 1278 1021 1278 1083 c 0,6,7
 1278 1206 1278 1206 1163 1299.5 c 128,-1,8
 1048 1393 1048 1393 870 1393 c 0,9,10
 642 1394 642 1394 444 1314 c 0,11,12
 350 1276 350 1276 291.5 1216 c 128,-1,13
 233 1156 233 1156 233 1087.5 c 128,-1,14
 233 1019 233 1019 277 981 c 128,-1,15
 321 943 321 943 395 913 c 1,16,17
 395 822 395 822 369 754 c 1,18,19
 250 792 250 792 161 869 c 128,-1,20
 72 946 72 946 72 1058.5 c 128,-1,21
 72 1171 72 1171 143.5 1257 c 128,-1,22
 215 1343 215 1343 331 1399 c 0,23,24
 577 1518 577 1518 861 1518 c 128,-1,25
 1145 1518 1145 1518 1340 1406 c 0,26,27
 1432 1354 1432 1354 1488 1273.5 c 128,-1,28
 1544 1193 1544 1193 1544 1100 c 0,29,30
 1544 917 1544 917 1399 818 c 128,-1,31
 1254 719 1254 719 981 649 c 1,32,33
 1035 619 1035 619 1094 526 c 128,-1,34
 1153 433 1153 433 1194 339 c 128,-1,35
 1235 245 1235 245 1274.5 170.5 c 128,-1,36
 1314 96 1314 96 1335 96 c 128,-1,37
 1356 96 1356 96 1395.5 122 c 128,-1,38
 1435 148 1435 148 1484 192 c 128,-1,39
 1533 236 1533 236 1576.5 277.5 c 128,-1,40
 1620 319 1620 319 1669.5 368 c 128,-1,41
 1719 417 1719 417 1737 434 c 1,42,-1
 1739 332 l 1,43,44
 1728 320 1728 320 1669 255 c 128,-1,45
 1610 190 1610 190 1544 124 c 128,-1,46
 1478 58 1478 58 1386 -4 c 0,47,48
 1264 -86 1264 -86 1145 -44 c 0,49,50
 1070 -18 1070 -18 1004 100 c 0,51,52
 984 135 984 135 973 150 c 1,53,54
 859 452 859 452 748 600 c 1,55,56
 745 590 745 590 732.5 542.5 c 128,-1,57
 720 495 720 495 692.5 399 c 0,58,59
 666 303 666 303 620 219 c 0,60,61
 542 77 542 77 465 23 c 0,62,63
 350 -57 350 -57 222 -57 c 128,-1,64
 94 -57 94 -57 -10.5 11 c 128,-1,65
 -115 79 -115 79 -115 205 c 0,66,67
 -115 260 -115 260 -52.5 289.5 c 128,-1,68
 10 319 10 319 102 319 c 0,69,70
 109 319 109 319 117 315 c 1,71,72
 113 275 113 275 113 242 c 0,73,74
 113 53 113 53 238 53 c 0,75,76
 305 53 305 53 366 155.5 c 0,77,78
 428 258 428 258 470 413 c 0,79,80
 542 676 542 676 583.5 912 c 128,-1,81
 625 1148 625 1148 639 1184 c 128,-1,82
 653 1220 653 1220 680 1231 c 0,83,84
 725 1249 725 1249 778 1249 c 128,-1,85
 831 1249 831 1249 858 1247 c 1,86,87
 832 1030 832 1030 762 688 c 1,1,2
EndSplineSet
EndChar

StartChar: S
Encoding: 83 83 55
Width: 1069
GlyphClass: 2
Flags: W
LayerCount: 2
Fore
SplineSet
805 1518 m 0,0,-1
446 1285 m 128,-1,2
 387 1215 387 1215 387 1144 c 128,-1,3
 387 1073 387 1073 416.5 1020 c 128,-1,4
 446 967 446 967 494 920.5 c 128,-1,5
 542 874 542 874 643.5 787.5 c 128,-1,6
 745 701 745 701 819 612 c 0,7,8
 926 483 926 483 926 324 c 0,9,10
 926 228 926 228 885 144 c 0,11,12
 811 -7 811 -7 630 -93.5 c 128,-1,13
 449 -180 449 -180 252 -180 c 0,14,15
 136 -180 136 -180 33 -120 c 128,-1,16
 -70 -60 -70 -60 -70 62 c 0,17,18
 -70 124 -70 124 -22 164 c 128,-1,19
 26 204 26 204 96 207 c 2,20,-1
 139 209 l 1,21,22
 135 155 135 155 135 118 c 0,23,24
 136 16 136 16 150 -12 c 0,25,26
 190 -88 190 -88 317 -88 c 0,27,28
 493 -88 493 -88 620 26 c 0,29,30
 709 106 709 106 709 216 c 128,-1,31
 709 326 709 326 602 451 c 0,32,33
 548 514 548 514 436.5 625.5 c 0,34,35
 325 736 325 736 277 792 c 0,36,37
 170 916 170 916 170 1015 c 128,-1,38
 170 1114 170 1114 210 1195 c 0,39,40
 281 1340 281 1340 453.5 1429 c 128,-1,41
 626 1518 626 1518 803 1518 c 0,42,43
 923 1518 923 1518 1026 1456 c 0,44,45
 1079 1424 1079 1424 1112 1365 c 128,-1,46
 1145 1306 1145 1306 1145 1227 c 0,47,48
 1145 1207 1145 1207 948 1092 c 128,-1,49
 751 977 751 977 698 958 c 1,50,-1
 698 1057 l 1,51,52
 712 1066 712 1066 790 1102 c 0,53,54
 966 1185 966 1185 965 1225 c 0,55,56
 965 1423 965 1423 756 1423 c 0,57,58
 671 1423 671 1423 588 1389 c 128,-1,1
 505 1355 505 1355 446 1285 c 128,-1,2
EndSplineSet
EndChar

StartChar: T
Encoding: 84 84 56
Width: 1085
GlyphClass: 2
Flags: W
LayerCount: 2
Fore
SplineSet
383 672 m 1,0,1
 224 737 224 737 146 829.5 c 128,-1,2
 68 922 68 922 68 1010 c 0,3,4
 68 1256 68 1256 370 1416 c 0,5,6
 563 1518 563 1518 817 1518 c 0,7,8
 907 1518 907 1518 1110.5 1481 c 128,-1,9
 1314 1444 1314 1444 1389.5 1444 c 128,-1,10
 1465 1444 1465 1444 1519.5 1459 c 128,-1,11
 1574 1474 1574 1474 1627.5 1496.5 c 128,-1,12
 1681 1519 1681 1519 1700 1524 c 1,13,14
 1663 1399 1663 1399 1563.5 1326 c 128,-1,15
 1464 1253 1464 1253 1331 1253 c 0,16,17
 1260 1253 1260 1253 1202 1273 c 128,-1,18
 1144 1293 1144 1293 1091 1314 c 128,-1,19
 1038 1335 1038 1335 1016 1343 c 1,20,21
 1005 1291 1005 1291 986 1192 c 0,22,23
 966 1093 966 1093 948 1001 c 0,24,25
 911 816 911 816 860 634 c 0,26,27
 742 215 742 215 533 41 c 0,28,29
 416 -57 416 -57 256 -57 c 0,30,31
 69 -57 69 -57 3 95 c 0,32,33
 -14 134 -14 134 -14 172 c 0,34,35
 -14 328 -14 328 199 328 c 1,36,37
 188 268 188 268 188 195 c 128,-1,38
 188 122 188 122 212 83.5 c 128,-1,39
 236 45 236 45 297 41 c 1,40,41
 371 41 371 41 440 153 c 128,-1,42
 509 265 509 265 561 438 c 128,-1,43
 613 611 613 611 653.5 782 c 128,-1,44
 694 953 694 953 727.5 1109 c 128,-1,45
 761 1265 761 1265 776 1305 c 1,46,47
 838 1372 838 1372 932 1372 c 2,48,-1
 934 1372 l 1,49,50
 859 1393 859 1393 797 1393 c 0,51,52
 658 1393 658 1393 530 1338.5 c 128,-1,53
 402 1284 402 1284 327 1200 c 128,-1,54
 252 1116 252 1116 252 1032 c 0,55,56
 252 909 252 909 412 840 c 1,57,58
 412 797 412 797 402 740.5 c 128,-1,59
 392 684 392 684 383 672 c 1,0,1
EndSplineSet
EndChar

StartChar: U
Encoding: 85 85 57
Width: 1595
GlyphClass: 2
Flags: W
LayerCount: 2
Fore
SplineSet
799 1509 m 0,0,1
 799 1498 799 1498 746 1379 c 128,-1,2
 693 1260 693 1260 630 1112.5 c 128,-1,3
 567 965 567 965 514 777.5 c 128,-1,4
 461 590 461 590 461 457 c 0,5,6
 461 147 461 147 745 147 c 0,7,8
 880 147 880 147 1004.5 215.5 c 128,-1,9
 1129 284 1129 284 1217.5 394 c 128,-1,10
 1306 504 1306 504 1361.5 643.5 c 128,-1,11
 1417 783 1417 783 1425 924 c 1,12,13
 1367 933 1367 933 1311 971 c 0,14,15
 1147 1083 1147 1083 1147 1235 c 0,16,17
 1147 1342 1147 1342 1198 1431 c 128,-1,18
 1249 1520 1249 1520 1362 1520 c 0,19,20
 1444 1520 1444 1520 1487.5 1436 c 128,-1,21
 1531 1352 1531 1352 1539 1280.5 c 128,-1,22
 1547 1209 1547 1209 1551.5 1163.5 c 128,-1,23
 1556 1118 1556 1118 1554.5 1084.5 c 128,-1,24
 1553 1051 1553 1051 1553.5 1038.5 c 128,-1,25
 1554 1026 1554 1026 1554 1024 c 1,26,-1
 1578 1030 l 1,27,28
 1630 1041 1630 1041 1708 1079 c 0,29,30
 1857 1150 1857 1150 1971 1261 c 1,31,-1
 1971 1147 l 1,32,33
 1748 960 1748 960 1552 920 c 1,34,35
 1513 610 1513 610 1335 353.5 c 0,36,37
 1157 96 1157 96 904 -4 c 0,38,39
 770 -58 770 -58 644 -57 c 0,40,41
 411 -57 411 -57 317 69 c 128,-1,42
 223 195 223 195 223 407 c 128,-1,43
 223 619 223 619 312.5 872.5 c 128,-1,44
 402 1126 402 1126 537 1311 c 1,45,46
 537 1315 537 1315 533 1315 c 128,-1,47
 529 1315 529 1315 520 1309 c 2,48,-1
 406 1221 l 1,49,50
 388 1211 388 1211 255.5 1128 c 128,-1,51
 123 1045 123 1045 -43 946 c 1,52,-1
 -43 1057 l 1,53,54
 67 1121 67 1121 277 1250.5 c 128,-1,55
 487 1380 487 1380 615.5 1455 c 128,-1,56
 744 1530 744 1530 771.5 1530 c 128,-1,57
 799 1530 799 1530 799 1509 c 0,0,1
1430 1028 m 1,58,-1
 1432 1067 l 1,59,60
 1432 1167 1432 1167 1401 1253 c 128,-1,61
 1370 1339 1370 1339 1321 1339 c 0,62,63
 1266 1339 1266 1339 1266 1255.5 c 128,-1,64
 1266 1172 1266 1172 1313.5 1107.5 c 128,-1,65
 1361 1043 1361 1043 1430 1028 c 1,58,-1
EndSplineSet
Substitution2: "Single Substitution lookup 3 subtable" U.init
EndChar

StartChar: V
Encoding: 86 86 58
Width: 1415
GlyphClass: 2
Flags: W
LayerCount: 2
Fore
SplineSet
-63 1057 m 1,0,-1
 596 1455 l 1,1,2
 724 1530 724 1530 751 1530 c 128,-1,3
 778 1530 778 1530 778 1509 c 1,4,5
 778 1530 778 1530 719 1333 c 128,-1,6
 660 1136 660 1136 626 1001 c 0,7,8
 544 678 544 678 543 459 c 0,9,10
 543 182 543 182 698 182 c 0,11,12
 760 182 760 182 833 233 c 0,13,14
 961 322 961 322 1092 529.5 c 128,-1,15
 1223 737 1223 737 1286 922 c 1,16,17
 1214 933 1214 933 1120 1007 c 0,18,19
 1072 1044 1072 1044 1040 1107 c 128,-1,20
 1008 1170 1008 1170 1008 1255 c 128,-1,21
 1008 1340 1008 1340 1059 1429 c 128,-1,22
 1110 1518 1110 1518 1223 1518 c 0,23,24
 1425 1518 1425 1518 1425 1022 c 1,25,-1
 1474 1032 l 2,26,27
 1524 1043 1524 1043 1611 1082.5 c 128,-1,28
 1698 1122 1698 1122 1774 1180 c 1,29,-1
 1774 1065 l 1,30,31
 1594 948 1594 948 1413 918 c 1,32,33
 1372 726 1372 726 1267.5 502.5 c 0,34,35
 1163 278 1163 278 1001 116 c 0,36,37
 922 36 922 36 823 -10.5 c 128,-1,38
 724 -57 724 -57 623 -57 c 0,39,40
 423 -57 423 -57 341.5 89 c 128,-1,41
 260 235 260 235 260 439.5 c 128,-1,42
 260 644 260 644 312.5 848.5 c 128,-1,43
 365 1053 365 1053 430 1151 c 0,44,45
 455 1188 455 1188 484.5 1241 c 128,-1,46
 514 1294 514 1294 514 1304.5 c 128,-1,47
 514 1315 514 1315 511.5 1315 c 128,-1,48
 509 1315 509 1315 500 1309 c 2,49,-1
 385 1221 l 1,50,51
 368 1211 368 1211 223.5 1121.5 c 128,-1,52
 79 1032 79 1032 -63 946 c 1,53,-1
 -63 1057 l 1,0,-1
1296 1028 m 1,54,-1
 1298 1067 l 1,55,56
 1298 1210 1298 1210 1247 1296 c 0,57,58
 1221 1340 1221 1340 1188 1339 c 0,59,60
 1133 1339 1133 1339 1133 1255.5 c 128,-1,61
 1133 1172 1133 1172 1180.5 1107.5 c 128,-1,62
 1228 1043 1228 1043 1296 1028 c 1,54,-1
EndSplineSet
Substitution2: "Single Substitution lookup 3 subtable" V.init
EndChar

StartChar: W
Encoding: 87 87 59
Width: 1978
GlyphClass: 2
Flags: W
LayerCount: 2
Fore
SplineSet
1884 1028 m 1,0,-1
 1886 1067 l 1,1,2
 1886 1210 1886 1210 1835 1296 c 0,3,4
 1809 1340 1809 1340 1776 1339 c 0,5,6
 1720 1339 1720 1339 1720 1255.5 c 128,-1,7
 1720 1172 1720 1172 1768 1107.5 c 128,-1,8
 1816 1043 1816 1043 1884 1028 c 1,0,-1
1221 1174 m 0,9,10
 1303 1174 1303 1174 1303 1059 c 0,11,12
 1303 877 1303 877 1134 450 c 1,13,-1
 1114 401 l 1,14,15
 1114 343 1114 343 1149 300 c 0,16,17
 1217 217 1217 217 1352 217 c 0,18,19
 1451 217 1451 217 1550 292 c 128,-1,20
 1649 367 1649 367 1718 476 c 128,-1,21
 1787 585 1787 585 1830.5 706.5 c 128,-1,22
 1874 828 1874 828 1874 922 c 1,23,24
 1816 931 1816 931 1760 969 c 0,25,26
 1595 1080 1595 1080 1595 1233 c 0,27,28
 1595 1340 1595 1340 1646 1429 c 128,-1,29
 1697 1518 1697 1518 1810 1518 c 0,30,31
 2005 1518 2005 1518 2003 1037 c 1,32,-1
 2003 1022 l 1,33,-1
 2050 1032 l 1,34,35
 2096 1043 2096 1043 2178 1082.5 c 128,-1,36
 2260 1122 2260 1122 2331 1180 c 1,37,-1
 2331 1065 l 1,38,39
 2158 946 2158 946 2001 918 c 1,40,41
 1986 683 1986 683 1825 405.5 c 128,-1,42
 1664 128 1664 128 1460 9 c 0,43,44
 1346 -57 1346 -57 1255 -57 c 128,-1,45
 1164 -57 1164 -57 1107.5 -27.5 c 128,-1,46
 1051 2 1051 2 1021.5 37.5 c 128,-1,47
 992 73 992 73 968.5 124 c 128,-1,48
 945 175 945 175 938 215 c 1,49,50
 864 114 864 114 735 29.5 c 128,-1,51
 606 -55 606 -55 517 -55 c 128,-1,52
 428 -55 428 -55 363.5 -11 c 0,53,54
 298 33 298 33 262 103 c 0,55,56
 190 242 190 242 190 417.5 c 128,-1,57
 190 593 190 593 251.5 799.5 c 128,-1,58
 313 1006 313 1006 420 1151 c 1,59,60
 443 1184 443 1184 473.5 1239.5 c 128,-1,61
 504 1295 504 1295 504 1305 c 128,-1,62
 504 1315 504 1315 502 1315 c 128,-1,63
 500 1315 500 1315 489 1309 c 1,64,-1
 375 1221 l 1,65,66
 359 1212 359 1212 227 1129.5 c 128,-1,67
 95 1047 95 1047 -74 946 c 1,68,-1
 -74 1057 l 1,69,70
 38 1121 38 1121 368 1325.5 c 128,-1,71
 698 1530 698 1530 741 1530 c 0,72,73
 768 1530 768 1530 768 1509 c 0,74,75
 768 1470 768 1470 666 1227 c 0,76,77
 472 765 472 765 473 553 c 0,78,79
 473 182 473 182 694 182 c 0,80,81
 746 182 746 182 820.5 226.5 c 128,-1,82
 895 271 895 271 928 326 c 1,83,84
 920 366 920 366 920 450.5 c 128,-1,85
 920 535 920 535 929 627 c 128,-1,86
 938 719 938 719 960.5 818.5 c 128,-1,87
 983 918 983 918 1016 995.5 c 128,-1,88
 1049 1073 1049 1073 1102.5 1123.5 c 128,-1,89
 1156 1174 1156 1174 1221 1174 c 0,9,10
EndSplineSet
Substitution2: "Single Substitution lookup 3 subtable" W.init
EndChar

StartChar: X
Encoding: 88 88 60
Width: 1544
GlyphClass: 2
Flags: W
LayerCount: 2
Fore
SplineSet
1530 1518 m 0,0,1
 1622 1518 1622 1518 1622 1460 c 0,2,3
 1622 1409 1622 1409 1490 1313 c 0,4,5
 1435 1273 1435 1273 1354.5 1193 c 128,-1,6
 1274 1113 1274 1113 1210 1018 c 1,7,8
 1115 891 1115 891 981 727 c 1,9,-1
 1087 459 l 1,10,11
 1168 277 1168 277 1214 206 c 128,-1,12
 1260 135 1260 135 1305 135 c 128,-1,13
 1350 135 1350 135 1398.5 178 c 128,-1,14
 1447 221 1447 221 1476 250 c 128,-1,15
 1505 279 1505 279 1563 338 c 128,-1,16
 1621 397 1621 397 1665 440 c 1,17,-1
 1667 328 l 1,18,19
 1650 310 1650 310 1574.5 229.5 c 128,-1,20
 1499 149 1499 149 1445 95.5 c 128,-1,21
 1391 42 1391 42 1317 -7.5 c 128,-1,22
 1243 -57 1243 -57 1186 -57 c 0,23,24
 1093 -57 1093 -57 1003.5 61 c 128,-1,25
 914 179 914 179 805 451 c 1,26,-1
 786 494 l 1,27,28
 543 206 543 206 455 113 c 0,29,30
 367 20 367 20 293 -19.5 c 128,-1,31
 219 -59 219 -59 117 -59 c 128,-1,32
 15 -59 15 -59 -13 1 c 0,33,34
 -25 27 -25 27 -25 70 c 128,-1,35
 -25 113 -25 113 -1.5 130 c 128,-1,36
 22 147 22 147 66 147 c 1,37,-1
 215 135 l 1,38,39
 283 135 283 135 414.5 266.5 c 128,-1,40
 546 398 546 398 731 625 c 1,41,42
 617 896 617 896 543 1050 c 128,-1,43
 469 1204 469 1204 459 1225 c 0,44,45
 449 1246 449 1246 435 1265 c 128,-1,46
 421 1284 421 1284 386.5 1284 c 128,-1,47
 352 1284 352 1284 308.5 1256.5 c 128,-1,48
 265 1229 265 1229 244.5 1218 c 128,-1,49
 224 1207 224 1207 169.5 1178 c 128,-1,50
 115 1149 115 1149 35 1102 c 1,51,-1
 35 1212 l 1,52,53
 426 1437 426 1437 491 1477.5 c 128,-1,54
 556 1518 556 1518 594 1518 c 0,55,56
 662 1518 662 1518 705 1427 c 1,57,58
 728 1371 728 1371 926 868 c 1,59,60
 1021 988 1021 988 1063 1038 c 1,61,62
 1241 1282 1241 1282 1311 1361 c 128,-1,63
 1381 1440 1381 1440 1464 1501 c 1,64,65
 1490 1518 1490 1518 1530 1518 c 0,0,1
EndSplineSet
EndChar

StartChar: Y
Encoding: 89 89 61
Width: 1554
GlyphClass: 2
Flags: W
LayerCount: 2
Fore
SplineSet
1001 -139 m 1,0,-1
 723 -301 l 1,1,2
 611 -353 611 -353 540 -417.5 c 128,-1,3
 469 -482 469 -482 469 -548.5 c 128,-1,4
 469 -615 469 -615 493.5 -652 c 128,-1,5
 518 -689 518 -689 553 -694 c 1,6,7
 619 -694 619 -694 705 -629.5 c 128,-1,8
 791 -565 791 -565 864 -463 c 128,-1,9
 937 -361 937 -361 965 -260 c 1,10,-1
 1001 -139 l 1,0,-1
653 1487 m 2,11,12
 700 1518 700 1518 764.5 1518 c 128,-1,13
 829 1518 829 1518 829 1489 c 0,14,15
 829 1472 829 1472 801 1378.5 c 128,-1,16
 773 1285 773 1285 751.5 1200 c 128,-1,17
 730 1115 730 1115 627 784 c 0,18,19
 524 453 524 453 524 358 c 0,20,21
 524 321 524 321 548 284.5 c 128,-1,22
 572 248 572 248 602 248 c 0,23,24
 672 248 672 248 766 286 c 128,-1,25
 860 324 860 324 951.5 387 c 128,-1,26
 1043 450 1043 450 1116.5 544.5 c 128,-1,27
 1190 639 1190 639 1214 739 c 2,28,-1
 1305 1114 l 1,29,30
 1320 1182 1320 1182 1362.5 1331.5 c 128,-1,31
 1405 1481 1405 1481 1423 1487 c 1,32,-1
 1640 1487 l 1,33,-1
 1286 86 l 1,34,-1
 1673 440 l 1,35,-1
 1673 328 l 1,36,-1
 1268 -33 l 1,37,38
 1035 -638 1035 -638 623 -750 c 0,39,40
 536 -774 536 -774 454 -774 c 128,-1,41
 372 -774 372 -774 307.5 -752 c 128,-1,42
 243 -730 243 -730 197.5 -680.5 c 128,-1,43
 152 -631 152 -631 152 -566 c 128,-1,44
 152 -501 152 -501 203 -473 c 2,45,-1
 1012 -41 l 1,46,-1
 1171 457 l 1,47,48
 1008 269 1008 269 787 125.5 c 128,-1,49
 566 -18 566 -18 438 -18 c 0,50,51
 363 -18 363 -18 314.5 44 c 128,-1,52
 266 106 266 106 266 225 c 0,53,54
 266 344 266 344 288 435 c 128,-1,55
 310 526 310 526 320.5 570 c 128,-1,56
 331 614 331 614 358.5 699 c 128,-1,57
 386 784 386 784 403 840 c 0,58,59
 420 896 420 896 477 1053 c 1,60,-1
 584 1364 l 1,61,-1
 276 1151 l 1,62,-1
 266 1145 l 1,63,64
 258 1137 258 1137 249.5 1137 c 128,-1,65
 241 1137 241 1137 231 1146.5 c 128,-1,66
 221 1156 221 1156 221 1180 c 128,-1,67
 221 1204 221 1204 242 1219 c 1,68,-1
 653 1487 l 2,11,12
EndSplineSet
EndChar

StartChar: Z
Encoding: 90 90 62
Width: 1450
GlyphClass: 2
Flags: W
LayerCount: 2
Fore
SplineSet
236 211 m 1,0,1
 483 322 l 1,2,3
 643 531 643 531 721 655 c 1,4,-1
 1167 1376 l 1,5,6
 990 1393 990 1393 813.5 1393 c 128,-1,7
 637 1393 637 1393 498.5 1354 c 128,-1,8
 360 1315 360 1315 360 1280 c 0,9,10
 360 1154 360 1154 422 1100 c 1,11,12
 422 1075 422 1075 354 1061 c 1,13,14
 236 1105 236 1105 176.5 1187.5 c 128,-1,15
 117 1270 117 1270 117 1370 c 0,16,17
 116 1450 116 1450 468 1494 c 0,18,19
 656 1518 656 1518 847 1518 c 128,-1,20
 1038 1518 1038 1518 1208.5 1500.5 c 128,-1,21
 1379 1483 1379 1483 1405 1481 c 1,22,-1
 1448 1384 l 1,23,24
 1411 1327 1411 1327 1317 1165.5 c 128,-1,25
 1223 1004 1223 1004 1141 866 c 128,-1,26
 1059 728 1059 728 935.5 554.5 c 128,-1,27
 812 381 812 381 698 260 c 1,28,29
 708 257 708 257 758 241.5 c 128,-1,30
 808 226 808 226 840.5 216.5 c 128,-1,31
 873 207 873 207 1019.5 163 c 128,-1,32
 1166 119 1166 119 1215 119 c 128,-1,33
 1264 119 1264 119 1298 135 c 0,34,35
 1414 190 1414 190 1503 268 c 1,36,-1
 1503 168 l 1,37,38
 1461 144 1461 144 1360 74.5 c 128,-1,39
 1259 5 1259 5 1189.5 -26 c 128,-1,40
 1120 -57 1120 -57 1044 -57 c 0,41,42
 1039 -57 1039 -57 1031 -53 c 0,43,44
 918 4 918 4 573 117 c 1,45,46
 478 54 478 54 379.5 12.5 c 128,-1,47
 281 -29 281 -29 211 -29 c 0,48,49
 192 -29 192 -29 161 -16 c 0,50,51
 102 9 102 9 102 72 c 0,52,53
 102 152 102 152 236 211 c 1,0,1
EndSplineSet
EndChar

StartChar: bracketleft
Encoding: 91 91 63
Width: 983
GlyphClass: 2
Flags: W
LayerCount: 2
Fore
SplineSet
279 -76 m 1,0,-1
 555 -74 l 1,1,2
 582 -80 582 -80 582 -111 c 128,-1,3
 582 -142 582 -142 520 -180 c 1,4,5
 198 -189 198 -189 86 -190 c 1,6,7
 68 -199 68 -199 58 -199 c 128,-1,8
 48 -199 48 -199 40.5 -187.5 c 128,-1,9
 33 -176 33 -176 33 -157.5 c 128,-1,10
 33 -139 33 -139 35 -133 c 2,11,-1
 438 1479 l 1,12,13
 454 1536 454 1536 518 1536 c 2,14,-1
 944 1536 l 2,15,16
 959 1536 959 1536 968 1520.5 c 128,-1,17
 977 1505 977 1505 977 1487 c 128,-1,18
 977 1469 977 1469 962.5 1451.5 c 128,-1,19
 948 1434 948 1434 928 1430 c 1,20,-1
 653 1421 l 1,21,-1
 560 1056 l 1,22,23
 283 -41 283 -41 279 -76 c 1,0,-1
EndSplineSet
EndChar

StartChar: backslash
Encoding: 92 92 64
Width: 821
GlyphClass: 2
Flags: W
LayerCount: 2
Fore
SplineSet
158 1415 m 0,0,1
 162 1400 162 1400 318 1101 c 0,2,3
 793 188 793 188 860 8 c 0,4,5
 864 -3 864 -3 897 -60.5 c 128,-1,6
 930 -118 930 -118 930 -150 c 128,-1,7
 930 -182 930 -182 907 -182 c 0,8,9
 794 -182 794 -182 746 -76 c 0,10,11
 738 -60 738 -60 728.5 -36.5 c 128,-1,12
 719 -13 719 -13 713 -2 c 2,13,-1
 -66 1554 l 1,14,15
 -72 1575 -72 1575 -72 1587.5 c 128,-1,16
 -72 1600 -72 1600 -65.5 1610 c 128,-1,17
 -59 1620 -59 1620 -51 1620 c 0,18,19
 40 1620 40 1620 79 1580.5 c 128,-1,20
 118 1541 118 1541 158 1415 c 0,0,1
EndSplineSet
EndChar

StartChar: bracketright
Encoding: 93 93 65
Width: 989
GlyphClass: 2
Flags: W
LayerCount: 2
Fore
SplineSet
711 1423 m 1,0,-1
 434 1421 l 1,1,2
 408 1427 408 1427 408 1457.5 c 128,-1,3
 408 1488 408 1488 469 1528 c 1,4,5
 794 1537 794 1537 903 1538 c 1,6,7
 923 1546 923 1546 932 1546 c 128,-1,8
 941 1546 941 1546 948.5 1534.5 c 128,-1,9
 956 1523 956 1523 956 1505 c 128,-1,10
 956 1487 956 1487 954 1481 c 2,11,-1
 551 -131 l 1,12,13
 552 -136 552 -136 542 -155 c 0,14,15
 521 -197 521 -197 496 -197 c 0,16,17
 486 -197 486 -197 471 -188 c 1,18,19
 368 -187 368 -187 45 -178 c 1,20,21
 3 -140 3 -140 18.5 -108.5 c 128,-1,22
 34 -77 34 -77 61 -72 c 1,23,24
 80 -72 80 -72 190.5 -73 c 128,-1,25
 301 -74 301 -74 336 -74 c 1,26,27
 322 -71 322 -71 516 668 c 128,-1,28
 710 1407 710 1407 711 1423 c 1,0,-1
EndSplineSet
EndChar

StartChar: asciicircum
Encoding: 94 94 66
Width: 1706
GlyphClass: 2
Flags: W
LayerCount: 2
Fore
SplineSet
1120 1214 m 1,0,-1
 664 717 l 1,1,-1
 604 760 l 1,2,3
 650 840 650 840 763 986.5 c 128,-1,4
 876 1133 876 1133 993 1257.5 c 128,-1,5
 1110 1382 1110 1382 1149 1382 c 0,6,7
 1178 1382 1178 1382 1259.5 1223.5 c 128,-1,8
 1341 1065 1341 1065 1406.5 914 c 128,-1,9
 1472 763 1472 763 1475 750 c 1,10,-1
 1403 709 l 1,11,12
 1383 739 1383 739 1263.5 956 c 128,-1,13
 1144 1173 1144 1173 1120 1214 c 1,0,-1
EndSplineSet
EndChar

StartChar: underscore
Encoding: 95 95 67
Width: 930
GlyphClass: 2
Flags: W
LayerCount: 2
Fore
SplineSet
776 -74 m 2,0,-1
 639 -72 l 1,1,2
 500 -72 500 -72 129 -90 c 1,3,4
 72 -90 72 -90 72 -49 c 0,5,6
 72 23 72 23 121 37 c 1,7,8
 165 43 165 43 375.5 53 c 128,-1,9
 586 63 586 63 668 63 c 0,10,11
 877 63 877 63 877 23 c 0,12,13
 877 -7 877 -7 845.5 -40.5 c 128,-1,14
 814 -74 814 -74 776 -74 c 2,0,-1
EndSplineSet
EndChar

StartChar: grave
Encoding: 96 96 68
Width: 1706
GlyphClass: 2
Flags: W
LayerCount: 2
Fore
SplineSet
1053 805 m 0,0,-1
788 1083 m 2,1,2
 700 1118 l 1,3,4
 682 1123 682 1123 682 1150 c 0,5,6
 682 1177 682 1177 718 1213 c 128,-1,7
 754 1249 754 1249 788 1249 c 1,8,9
 863 1245 863 1245 992.5 1160 c 128,-1,10
 1122 1075 1122 1075 1208 995 c 1,11,-1
 1186 940 l 1,12,13
 898 1040 898 1040 788 1083 c 2,1,2
EndSplineSet
EndChar

StartChar: a
Encoding: 97 97 69
Width: 928
GlyphClass: 2
Flags: W
LayerCount: 2
Fore
SplineSet
150 -29 m 0,0,1
 30 -30 30 -30 2 140 c 0,2,3
 -4 180 -4 180 -4 225 c 0,4,5
 -4 334 -4 334 50 445 c 128,-1,6
 104 556 104 556 192.5 643 c 128,-1,7
 281 730 281 730 404.5 785 c 128,-1,8
 528 840 528 840 657 840 c 0,9,10
 721 840 721 840 825 807 c 1,11,12
 824 800 824 800 805 715.5 c 128,-1,13
 786 631 786 631 750 467 c 0,14,15
 714 303 714 303 714.5 244.5 c 128,-1,16
 715 186 715 186 745 186 c 0,17,18
 811 186 811 186 1051 440 c 1,19,-1
 1051 328 l 1,20,21
 899 171 899 171 761.5 71 c 128,-1,22
 624 -29 624 -29 578 -29 c 0,23,24
 502 -29 502 -29 502 102 c 0,25,26
 502 145 502 145 510 199 c 1,27,28
 438 105 438 105 342.5 38 c 128,-1,29
 247 -29 247 -29 150 -29 c 0,0,1
209 281 m 0,30,31
 209 131 209 131 307 131 c 0,32,33
 349 131 349 131 410.5 175 c 128,-1,34
 472 219 472 219 522 272 c 1,35,-1
 637 764 l 1,36,37
 529 764 529 764 428 687 c 128,-1,38
 327 610 327 610 268 498 c 128,-1,39
 209 386 209 386 209 281 c 0,30,31
EndSplineSet
Substitution2: "Single Substitution lookup 2 subtable" a.fina
EndChar

StartChar: b
Encoding: 98 98 70
Width: 986
GlyphClass: 2
Flags: W
LayerCount: 2
Fore
SplineSet
430 924 m 1,0,1
 533 990 533 990 639 1147.5 c 128,-1,2
 745 1305 745 1305 745 1399 c 0,3,4
 745 1466 745 1466 678 1466 c 0,5,6
 646 1466 646 1466 584.5 1345.5 c 128,-1,7
 523 1225 523 1225 476.5 1093.5 c 128,-1,8
 430 962 430 962 430 924 c 1,0,1
225.5 891.5 m 128,-1,10
 272 1053 272 1053 290 1117.5 c 128,-1,11
 308 1182 308 1182 351.5 1263 c 128,-1,12
 395 1344 395 1344 454 1416 c 128,-1,13
 513 1488 513 1488 589.5 1534.5 c 128,-1,14
 666 1581 666 1581 741 1581 c 0,15,16
 895 1581 895 1581 895 1450 c 0,17,18
 895 1195 895 1195 395 733 c 1,19,20
 387 701 387 701 364.5 614.5 c 128,-1,21
 342 528 342 528 317.5 427 c 128,-1,22
 293 326 293 326 293 236 c 0,23,24
 293 76 293 76 410 76 c 0,25,26
 480 76 480 76 557.5 133.5 c 128,-1,27
 635 191 635 191 686 276 c 128,-1,28
 737 361 737 361 737 436 c 0,29,30
 737 600 737 600 481 600 c 1,31,32
 495 655 495 655 570.5 715.5 c 128,-1,33
 646 776 646 776 702 776 c 0,34,35
 809 776 809 776 861 714.5 c 128,-1,36
 913 653 913 653 913 545.5 c 128,-1,37
 913 438 913 438 879.5 329 c 128,-1,38
 846 220 846 220 768 156 c 1,39,40
 837 196 837 196 946 311 c 128,-1,41
 1055 426 1055 426 1075 446 c 1,42,-1
 1074 332 l 1,43,44
 1068 327 1068 327 1033 292 c 0,45,46
 998 258 998 258 984 244 c 0,47,48
 828 99 828 99 710 44 c 0,49,50
 493 -57 493 -57 325 -57 c 128,-1,51
 157 -57 157 -57 117.5 -2 c 128,-1,52
 78 53 78 53 78 134.5 c 128,-1,53
 78 216 78 216 87 298.5 c 128,-1,54
 96 381 96 381 122.5 495 c 128,-1,55
 149 609 149 609 164 669.5 c 128,-1,9
 179 730 179 730 225.5 891.5 c 128,-1,10
EndSplineSet
Substitution2: "Single Substitution lookup 2 subtable" b.fina
EndChar

StartChar: c
Encoding: 99 99 71
Width: 696
GlyphClass: 2
Flags: W
LayerCount: 2
Fore
SplineSet
508 840 m 0,0,1
 707 840 707 840 707 710 c 0,2,3
 707 672 707 672 669.5 644 c 128,-1,4
 632 616 632 616 575 616 c 0,5,6
 544 616 544 616 517 680 c 0,7,8
 507 704 507 704 484.5 723.5 c 128,-1,9
 462 743 462 743 432 743 c 0,10,11
 374 743 374 743 323 678 c 128,-1,12
 272 613 272 613 243.5 520 c 128,-1,13
 215 427 215 427 215 338.5 c 128,-1,14
 215 250 215 250 247 195.5 c 128,-1,15
 279 141 279 141 344 141 c 0,16,17
 518 141 518 141 823 442 c 1,18,-1
 823 330 l 1,19,20
 553 66 553 66 377 0 c 0,21,22
 299 -30 299 -30 227 -29 c 0,23,24
 112 -29 112 -29 54 43 c 128,-1,25
 -4 115 -4 115 -4 221.5 c 128,-1,26
 -4 328 -4 328 35 434.5 c 128,-1,27
 74 541 74 541 139.5 631.5 c 128,-1,28
 205 722 205 722 303 781 c 128,-1,29
 401 840 401 840 508 840 c 0,0,1
EndSplineSet
Substitution2: "Single Substitution lookup 2 subtable" c.fina
EndChar

StartChar: d
Encoding: 100 100 72
Width: 913
GlyphClass: 2
Flags: W
LayerCount: 2
Fore
SplineSet
850.5 737.5 m 128,-1,1
 741 339 741 339 741 269 c 128,-1,2
 741 199 741 199 769 199 c 128,-1,3
 797 199 797 199 869.5 270 c 128,-1,4
 942 341 942 341 1036 440 c 1,5,-1
 1036 328 l 1,6,7
 1022 314 1022 314 984.5 276 c 128,-1,8
 947 238 947 238 929 220 c 2,9,-1
 876 168 l 2,10,11
 842 134 842 134 821.5 115.5 c 128,-1,12
 801 97 801 97 771 70 c 0,13,14
 661 -29 661 -29 606 -29 c 0,15,16
 524 -29 524 -29 524 104 c 0,17,18
 524 168 524 168 541 238 c 1,19,20
 433 112 433 112 324 41.5 c 0,21,22
 214 -29 214 -29 160 -29 c 0,23,24
 64 -29 64 -29 37 39.5 c 128,-1,25
 10 108 10 108 10 198 c 128,-1,26
 10 288 10 288 59 406.5 c 128,-1,27
 108 525 108 525 184 620 c 128,-1,28
 260 715 260 715 357.5 777.5 c 128,-1,29
 455 840 455 840 530 840 c 128,-1,30
 605 840 605 840 676 819 c 1,31,-1
 809 1294 l 1,32,33
 837 1409 837 1409 869 1432 c 128,-1,34
 901 1455 901 1455 939.5 1457.5 c 128,-1,35
 978 1460 978 1460 1022 1460 c 2,36,-1
 1057 1460 l 1,37,38
 1053 1426 1053 1426 1022 1321 c 1,39,0
 960 1136 960 1136 850.5 737.5 c 128,-1,1
657 731 m 1,40,41
 653 745 653 745 621.5 757.5 c 128,-1,42
 590 770 590 770 563 770 c 0,43,44
 477 770 477 770 396 691 c 128,-1,45
 315 612 315 612 268 499.5 c 128,-1,46
 221 387 221 387 221 285 c 0,47,48
 221 158 221 158 303 158 c 0,49,50
 367 158 367 158 463 230.5 c 128,-1,51
 559 303 559 303 569 344 c 2,52,-1
 657 731 l 1,40,41
EndSplineSet
Substitution2: "Single Substitution lookup 2 subtable" d.fina
EndChar

StartChar: e
Encoding: 101 101 73
Width: 724
GlyphClass: 2
Flags: W
LayerCount: 2
Fore
SplineSet
303 565 m 1,0,1
 379 467 379 467 471 467 c 0,2,3
 529 467 529 467 571.5 524 c 128,-1,4
 614 581 614 581 614 644 c 128,-1,5
 614 707 614 707 590.5 728.5 c 0,6,7
 566 750 566 750 522 750 c 0,8,9
 436 750 436 750 379 685.5 c 128,-1,10
 322 621 322 621 303 565 c 1,0,1
292 -31 m 0,11,12
 171 -31 171 -31 99 48.5 c 128,-1,13
 27 128 27 128 27 266 c 128,-1,14
 27 404 27 404 88 536.5 c 128,-1,15
 149 669 149 669 263.5 754.5 c 128,-1,16
 378 840 378 840 518 840 c 0,17,18
 754 840 754 840 754 664 c 0,19,20
 754 550 754 550 662 465.5 c 128,-1,21
 570 381 570 381 455 381 c 0,22,23
 409 381 409 381 359 408 c 128,-1,24
 309 435 309 435 274 489 c 1,25,26
 231 399 231 399 231 313 c 0,27,28
 231 82 231 82 399 82 c 0,29,30
 443 82 443 82 507.5 124 c 128,-1,31
 572 166 572 166 621.5 212.5 c 128,-1,32
 671 259 671 259 747 335.5 c 128,-1,33
 823 412 823 412 852 438 c 1,34,-1
 852 328 l 1,35,36
 694 154 694 154 598 86 c 128,-1,37
 502 18 502 18 432.5 -6.5 c 128,-1,38
 363 -31 363 -31 292 -31 c 0,11,12
EndSplineSet
Substitution2: "Single Substitution lookup 2 subtable" e.fina
EndChar

StartChar: f
Encoding: 102 102 74
Width: 453
GlyphClass: 2
Flags: W
LayerCount: 2
Fore
SplineSet
547 1358 m 0,0,1
 501 1358 501 1358 458 1267 c 0,2,3
 360 1062 360 1062 274 586 c 1,4,5
 294 618 294 618 373.5 735 c 128,-1,6
 453 852 453 852 534.5 997 c 128,-1,7
 616 1142 616 1142 616 1250 c 128,-1,8
 616 1358 616 1358 547 1358 c 0,0,1
575 440 m 1,9,-1
 575 328 l 1,10,11
 391 131 391 131 306.5 131 c 128,-1,12
 222 131 222 131 199 193 c 1,13,14
 199 177 199 177 151 -68 c 128,-1,15
 103 -313 103 -313 94 -345 c 1,16,-1
 -74 -345 l 1,17,18
 -34 -47 -34 -47 66 397 c 128,-1,19
 166 841 166 841 262 1190 c 0,20,21
 289 1287 289 1287 409.5 1376.5 c 128,-1,22
 530 1466 530 1466 649 1466 c 0,23,24
 735 1466 735 1466 742 1363 c 0,25,26
 743 1348 743 1348 743 1325 c 0,27,28
 743 1206 743 1206 689.5 1074.5 c 128,-1,29
 636 943 636 943 560 834.5 c 128,-1,30
 484 726 484 726 408 632.5 c 128,-1,31
 332 539 332 539 278.5 469 c 128,-1,32
 225 399 225 399 225 359.5 c 128,-1,33
 225 320 225 320 256 279 c 128,-1,34
 287 238 287 238 322 238 c 128,-1,35
 357 238 357 238 444.5 312.5 c 128,-1,36
 532 387 532 387 575 440 c 1,9,-1
EndSplineSet
Substitution2: "Single Substitution lookup 2 subtable" f.fina
EndChar

StartChar: g
Encoding: 103 103 75
Width: 928
GlyphClass: 2
Flags: W
LayerCount: 2
Fore
SplineSet
424 -507 m 0,0,1
 356 -547 356 -547 302 -547 c 128,-1,2
 248 -547 248 -547 206.5 -532.5 c 128,-1,3
 165 -518 165 -518 134.5 -484 c 128,-1,4
 104 -450 104 -450 104 -419 c 128,-1,5
 104 -388 104 -388 107.5 -374 c 128,-1,6
 111 -360 111 -360 122 -345 c 128,-1,7
 133 -330 133 -330 139.5 -320.5 c 128,-1,8
 146 -311 146 -311 166 -294 c 128,-1,9
 186 -277 186 -277 193 -271 c 128,-1,10
 200 -265 200 -265 227 -244.5 c 128,-1,11
 254 -224 254 -224 260 -219 c 2,12,-1
 537 -6 l 1,13,-1
 569 164 l 1,14,15
 441 50 441 50 356.5 10.5 c 128,-1,16
 272 -29 272 -29 198 -29 c 128,-1,17
 124 -29 124 -29 87.5 33 c 128,-1,18
 51 95 51 95 51 178.5 c 128,-1,19
 51 262 51 262 77.5 356.5 c 128,-1,20
 104 451 104 451 154.5 537 c 128,-1,21
 205 623 205 623 272 691 c 128,-1,22
 339 759 339 759 428 799.5 c 128,-1,23
 517 840 517 840 609 840 c 128,-1,24
 701 840 701 840 911 801 c 1,25,-1
 758 154 l 1,26,27
 785 179 785 179 839.5 230.5 c 128,-1,28
 894 282 894 282 935 321 c 128,-1,29
 976 360 976 360 1051 440 c 1,30,-1
 1051 328 l 1,31,-1
 737 23 l 1,32,33
 690 -236 690 -236 554 -396 c 0,34,35
 492 -468 492 -468 424 -507 c 0,0,1
524 -117 m 1,36,-1
 360 -256 l 1,37,38
 313 -287 313 -287 287 -320 c 128,-1,39
 261 -353 261 -353 255.5 -375 c 0,40,41
 250 -398 250 -398 250 -430 c 0,42,43
 250 -492 250 -492 327 -492 c 128,-1,44
 404 -492 404 -492 454.5 -389 c 128,-1,45
 505 -286 505 -286 524 -117 c 1,36,-1
270 324 m 0,46,47
 270 131 270 131 367 131 c 0,48,49
 453 131 453 131 584 279 c 1,50,-1
 700 766 l 1,51,52
 626 784 626 784 602 784 c 0,53,54
 535 784 535 784 472 740 c 0,55,56
 410 696 410 696 366 629 c 0,57,58
 270 482 270 482 270 324 c 0,46,47
EndSplineSet
Substitution2: "Single Substitution lookup 2 subtable" g.fina
EndChar

StartChar: h
Encoding: 104 104 76
Width: 881
GlyphClass: 2
Flags: W
LayerCount: 2
Fore
SplineSet
732 226 m 1,0,1
 732 203 732 203 747.5 203 c 128,-1,2
 763 203 763 203 865.5 306.5 c 128,-1,3
 968 410 968 410 1008 444 c 1,4,-1
 1008 332 l 1,5,6
 693 -29 693 -29 596 -29 c 0,7,8
 532 -29 532 -29 532 47 c 0,9,10
 532 86 532 86 590.5 282 c 128,-1,11
 649 478 649 478 649 598 c 0,12,13
 649 655 649 655 592 655 c 0,14,15
 504 655 504 655 406.5 526.5 c 128,-1,16
 309 398 309 398 274.5 267.5 c 128,-1,17
 240 137 240 137 219 82 c 128,-1,18
 198 27 198 27 166 0 c 1,19,-1
 10 0 l 1,20,21
 27 131 27 131 319 1204 c 0,22,23
 366 1381 366 1381 398.5 1418.5 c 128,-1,24
 431 1456 431 1456 470 1459 c 128,-1,25
 509 1462 509 1462 547.5 1462 c 128,-1,26
 586 1462 586 1462 596 1458 c 1,27,-1
 334 510 l 1,28,29
 408 647 408 647 528 743.5 c 128,-1,30
 648 840 648 840 762 840 c 0,31,32
 860 840 860 840 860 723 c 0,33,34
 860 681 860 681 795.5 493.5 c 128,-1,35
 731 306 731 306 731 233 c 1,36,-1
 732 226 l 1,0,1
EndSplineSet
EndChar

StartChar: i
Encoding: 105 105 77
Width: 469
GlyphClass: 2
Flags: W
LayerCount: 2
Fore
SplineSet
231 199 m 0,0,1
 231 133 231 133 266 133 c 0,2,3
 288 133 288 133 404.5 247.5 c 128,-1,4
 521 362 521 362 590 438 c 1,5,-1
 590 326 l 1,6,-1
 570 306 l 1,7,8
 382 120 382 120 290.5 47.5 c 128,-1,9
 199 -25 199 -25 117 -29 c 1,10,11
 73 -29 73 -29 51 10.5 c 128,-1,12
 29 50 29 50 29 112 c 128,-1,13
 29 174 29 174 85 403 c 128,-1,14
 141 632 141 632 165 694 c 0,15,16
 189 756 189 756 221 777.5 c 128,-1,17
 253 799 253 799 286 803 c 128,-1,18
 319 807 319 807 377 807 c 2,19,-1
 389 807 l 1,20,21
 231 301 231 301 231 199 c 0,0,1
511.5 1099.5 m 128,-1,23
 464 1043 464 1043 410 1043 c 0,24,25
 312 1043 312 1043 312 1145 c 0,26,27
 312 1195 312 1195 355 1241.5 c 128,-1,28
 398 1288 398 1288 453.5 1288 c 128,-1,29
 509 1288 509 1288 534 1268 c 128,-1,30
 559 1248 559 1248 559 1202 c 128,-1,22
 559 1156 559 1156 511.5 1099.5 c 128,-1,23
EndSplineSet
EndChar

StartChar: j
Encoding: 106 106 78
Width: 442
GlyphClass: 2
Flags: W
LayerCount: 2
Fore
SplineSet
-18 2 m 1,0,1
 20 137 l 1,2,3
 43 258 43 258 89 456 c 128,-1,4
 135 654 135 654 148.5 688 c 128,-1,5
 162 722 162 722 170.5 737.5 c 128,-1,6
 179 753 179 753 191 764 c 128,-1,7
 203 775 203 775 212 782.5 c 128,-1,8
 221 790 221 790 239 794.5 c 128,-1,9
 257 799 257 799 269.5 803 c 128,-1,10
 282 807 282 807 334 807 c 2,11,-1
 375 807 l 1,12,13
 374 802 374 802 356 740 c 0,14,15
 196 198 196 198 195 106 c 1,16,17
 215 114 215 114 333 218 c 128,-1,18
 451 322 451 322 567 440 c 1,19,-1
 567 328 l 1,20,21
 474 234 474 234 420 182 c 0,22,23
 271 38 271 38 158 -16 c 1,24,25
 153 -40 153 -40 142 -93 c 128,-1,26
 131 -146 131 -146 127.5 -160.5 c 128,-1,27
 124 -175 124 -175 116 -214 c 128,-1,28
 108 -253 108 -253 105 -265.5 c 128,-1,29
 102 -278 102 -278 95 -308.5 c 128,-1,30
 88 -339 88 -339 83.5 -355.5 c 128,-1,31
 79 -372 79 -372 72 -400.5 c 128,-1,32
 65 -429 65 -429 57.5 -455 c 128,-1,33
 50 -481 50 -481 41 -514 c 0,34,35
 14 -611 14 -611 -106.5 -701 c 128,-1,36
 -227 -791 -227 -791 -346 -791 c 0,37,38
 -379 -791 -379 -791 -401 -771 c 128,-1,39
 -423 -751 -423 -751 -437 -700 c 0,40,41
 -469 -586 -469 -586 -382.5 -426.5 c 128,-1,42
 -296 -267 -296 -267 -150 -121 c 0,43,44
 -68 -38 -68 -38 -18 2 c 1,0,1
-304 -650 m 0,45,46
 -286 -682 -286 -682 -254.5 -682 c 128,-1,47
 -223 -682 -223 -682 -204 -670 c 0,48,49
 -174 -650 -174 -650 -129.5 -559.5 c 128,-1,50
 -85 -469 -85 -469 -23 -117 c 1,51,52
 -235 -367 -235 -367 -284 -483 c 128,-1,53
 -333 -599 -333 -599 -304 -650 c 0,45,46
444 1288 m 0,54,55
 546 1288 546 1288 545 1208 c 0,56,57
 545 1168 545 1168 497.5 1120.5 c 128,-1,58
 450 1073 450 1073 389 1073 c 0,59,60
 317 1073 317 1073 317 1145 c 0,61,62
 317 1194 317 1194 354.5 1241 c 128,-1,63
 392 1288 392 1288 444 1288 c 0,54,55
EndSplineSet
EndChar

StartChar: k
Encoding: 107 107 79
Width: 905
GlyphClass: 2
Flags: W
LayerCount: 2
Fore
SplineSet
686 262 m 1,0,-1
 684 188 l 1,1,2
 684 121 684 121 702 121 c 0,3,4
 709 121 709 121 714.5 126.5 c 128,-1,5
 720 132 720 132 848.5 258.5 c 128,-1,6
 977 385 977 385 1028 440 c 1,7,-1
 1028 328 l 1,8,9
 1008 309 1008 309 889 191.5 c 128,-1,10
 770 74 770 74 707 22.5 c 128,-1,11
 644 -29 644 -29 590 -29 c 0,12,13
 496 -29 496 -29 496 113 c 1,14,-1
 510 303 l 1,15,16
 510 332 510 332 494 349 c 0,17,18
 459 387 459 387 289 387 c 1,19,-1
 283 360 l 2,20,21
 216 60 216 60 145 0 c 1,22,-1
 -10 0 l 1,23,24
 6 131 6 131 299 1204 c 0,25,26
 346 1379 346 1379 378.5 1418.5 c 128,-1,27
 411 1458 411 1458 449.5 1460 c 128,-1,28
 488 1462 488 1462 526.5 1462 c 128,-1,29
 565 1462 565 1462 575 1458 c 1,30,31
 537 1319 537 1319 442 996.5 c 128,-1,32
 347 674 347 674 348 674 c 0,33,34
 489 840 489 840 696 840 c 0,35,36
 755 840 755 840 792 799 c 128,-1,37
 829 758 829 758 829 713 c 0,38,39
 829 580 829 580 751.5 527.5 c 128,-1,40
 674 475 674 475 522 424 c 1,41,42
 626 424 626 424 656 377 c 128,-1,43
 686 330 686 330 686 262 c 1,0,-1
295 457 m 1,44,-1
 362 457 l 2,45,46
 453 458 453 458 522 490 c 0,47,48
 651 551 651 551 651 646 c 128,-1,49
 651 741 651 741 573 741 c 0,50,51
 537 741 537 741 473.5 695.5 c 128,-1,52
 410 650 410 650 355.5 581 c 128,-1,53
 301 512 301 512 295 457 c 1,44,-1
EndSplineSet
EndChar

StartChar: l
Encoding: 108 108 80
Width: 603
GlyphClass: 2
Flags: W
LayerCount: 2
Fore
SplineSet
668 1417 m 0,0,1
 587 1417 587 1417 510.5 1222 c 128,-1,2
 434 1027 434 1027 334 618 c 1,3,4
 419 695 419 695 494 803.5 c 128,-1,5
 569 912 569 912 614 1014 c 0,6,7
 711 1233 711 1233 711 1325 c 128,-1,8
 711 1417 711 1417 668 1417 c 0,0,1
170 -29 m 0,9,10
 135 -29 135 -29 122 -11 c 0,11,12
 109 8 109 8 102 20 c 0,13,14
 80 58 80 58 80 168 c 2,15,-1
 80 207 l 2,16,17
 80 400 80 400 133.5 634 c 128,-1,18
 187 868 187 868 270.5 1066 c 128,-1,19
 354 1264 354 1264 466 1398 c 128,-1,20
 578 1532 578 1532 684 1532 c 0,21,22
 749 1532 749 1532 786.5 1487.5 c 128,-1,23
 824 1443 824 1443 824 1355.5 c 128,-1,24
 824 1268 824 1268 794 1158 c 0,25,26
 742 967 742 967 634.5 805.5 c 128,-1,27
 527 644 527 644 433.5 546 c 128,-1,28
 340 448 340 448 308 422 c 1,29,-1
 303 381 l 2,30,31
 287 250 287 250 287 183.5 c 128,-1,32
 287 117 287 117 322 117 c 0,33,34
 349 117 349 117 472.5 241.5 c 128,-1,35
 596 366 596 366 698 482 c 1,36,-1
 698 370 l 1,37,38
 508 156 508 156 390 63.5 c 128,-1,39
 272 -29 272 -29 170 -29 c 0,9,10
EndSplineSet
EndChar

StartChar: m
Encoding: 109 109 81
Width: 1348
GlyphClass: 2
Flags: W
LayerCount: 2
Fore
SplineSet
705 838 m 0,0,1
 782 838 782 838 782 682 c 0,2,3
 782 614 782 614 729 440 c 1,4,5
 800 579 800 579 920 703 c 0,6,7
 980 764 980 764 1050 802 c 128,-1,8
 1120 840 1120 840 1184 840 c 0,9,10
 1296 840 1296 840 1296 692 c 128,-1,11
 1296 544 1296 544 1218 314 c 0,12,13
 1196 251 1196 251 1196 230 c 128,-1,14
 1196 209 1196 209 1205.5 209 c 128,-1,15
 1215 209 1215 209 1226 214.5 c 128,-1,16
 1237 220 1237 220 1252.5 232.5 c 128,-1,17
 1268 245 1268 245 1283 258.5 c 128,-1,18
 1298 272 1298 272 1322 295.5 c 128,-1,19
 1346 319 1346 319 1365 337.5 c 128,-1,20
 1384 356 1384 356 1415 387 c 2,21,-1
 1468 440 l 1,22,-1
 1468 328 l 1,23,24
 1343 199 1343 199 1207 84 c 128,-1,25
 1071 -31 1071 -31 1022 -31 c 0,26,27
 963 -31 963 -31 963 57 c 0,28,29
 963 174 963 174 1032.5 327.5 c 128,-1,30
 1102 481 1102 481 1102 582 c 0,31,32
 1102 609 1102 609 1083 632 c 128,-1,33
 1064 655 1064 655 1025.5 655 c 128,-1,34
 987 655 987 655 934 599 c 0,35,36
 846 506 846 506 769.5 320.5 c 128,-1,37
 693 135 693 135 655 0 c 1,38,-1
 463 0 l 1,39,40
 463 131 463 131 528.5 344 c 128,-1,41
 594 557 594 557 594 592.5 c 128,-1,42
 594 628 594 628 580 643.5 c 128,-1,43
 566 659 566 659 552 659 c 128,-1,44
 538 659 538 659 526 655 c 1,45,46
 396 595 396 595 268 296 c 0,47,48
 202 142 202 142 166 0 c 1,49,-1
 -25 0 l 1,50,51
 -17 129 -17 129 44.5 403.5 c 128,-1,52
 106 678 106 678 156 758 c 1,53,54
 174 790 174 790 216.5 798.5 c 128,-1,55
 259 807 259 807 362 807 c 1,56,57
 348 737 348 737 304.5 604 c 128,-1,58
 261 471 261 471 252 440 c 1,59,60
 479 838 479 838 705 838 c 0,0,1
EndSplineSet
Substitution2: "Single Substitution lookup 2 subtable" m.fina
EndChar

StartChar: n
Encoding: 110 110 82
Width: 838
GlyphClass: 2
Flags: W
LayerCount: 2
Fore
SplineSet
958 436 m 1,0,1
 958 324 l 1,2,3
 799 162 799 162 676.5 66.5 c 128,-1,4
 554 -29 554 -29 513 -29 c 0,5,6
 438 -29 438 -29 438 55 c 128,-1,7
 438 139 438 139 475.5 255.5 c 128,-1,8
 513 372 513 372 550.5 466.5 c 128,-1,9
 588 561 588 561 588 593 c 128,-1,10
 588 625 588 625 576.5 640 c 128,-1,11
 565 655 565 655 549 655 c 0,12,13
 492 655 492 655 426 575.5 c 128,-1,14
 360 496 360 496 308 383 c 0,15,16
 200 149 200 149 166 0 c 1,17,-1
 -25 0 l 1,18,19
 -24 108 -24 108 36 358 c 128,-1,20
 96 608 96 608 143 727 c 0,21,22
 162 775 162 775 197.5 791 c 128,-1,23
 233 807 233 807 293 807 c 2,24,-1
 360 807 l 1,25,-1
 252 444 l 1,26,27
 319 570 319 570 446 698 c 0,28,29
 508 760 508 760 581 800 c 128,-1,30
 654 840 654 840 719 840 c 0,31,32
 817 840 817 840 817 723 c 0,33,34
 817 667 817 667 746.5 457.5 c 128,-1,35
 676 248 676 248 676 226.5 c 128,-1,36
 676 205 676 205 688.5 205 c 128,-1,37
 701 205 701 205 721.5 218.5 c 128,-1,38
 742 232 742 232 840 325.5 c 128,-1,39
 938 419 938 419 958 436 c 1,0,1
EndSplineSet
Substitution2: "Single Substitution lookup 2 subtable" n.fina
EndChar

StartChar: o
Encoding: 111 111 83
Width: 867
GlyphClass: 2
Flags: W
LayerCount: 2
Fore
SplineSet
240 346 m 0,0,1
 240 254 240 254 294 192.5 c 128,-1,2
 348 131 348 131 426 131 c 0,3,4
 531 131 531 131 624 253 c 1,5,6
 553 296 553 296 514 365 c 128,-1,7
 475 434 475 434 475 508.5 c 128,-1,8
 475 583 475 583 523 632.5 c 128,-1,9
 571 682 571 682 662 682 c 128,-1,10
 753 682 753 682 794.5 633 c 128,-1,11
 836 584 836 584 836 516 c 0,12,13
 836 380 836 380 736 284 c 1,14,-1
 767 284 l 2,15,16
 812 284 812 284 880 355 c 0,17,18
 896 372 896 372 928 406.5 c 128,-1,19
 960 441 960 441 981 462 c 1,20,-1
 981 352 l 1,21,22
 910 276 910 276 863.5 243 c 128,-1,23
 817 210 817 210 772.5 210 c 128,-1,24
 728 210 728 210 695 214 c 1,25,26
 541 -29 541 -29 331 -29 c 0,27,28
 152 -30 152 -30 74 124 c 0,29,30
 31 209 31 209 31 317 c 0,31,32
 31 570 31 570 203.5 716 c 128,-1,33
 376 862 376 862 662 862 c 0,34,35
 682 862 682 862 684 849 c 1,36,37
 684 832 684 832 680.5 824 c 128,-1,38
 677 816 677 816 662 806 c 1,39,40
 416 806 416 806 306 621 c 0,41,42
 240 511 240 511 240 346 c 0,0,1
741 494 m 0,43,44
 741 586 741 586 659.5 586 c 128,-1,45
 578 586 578 586 578 489 c 0,46,47
 578 447 578 447 607.5 398 c 128,-1,48
 637 349 637 349 681 320 c 1,49,50
 702 343 702 343 721.5 397.5 c 128,-1,51
 741 452 741 452 741 494 c 0,43,44
EndSplineSet
Substitution2: "Single Substitution lookup 2 subtable" o.fina
EndChar

StartChar: p
Encoding: 112 112 84
Width: 836
GlyphClass: 2
Flags: W
LayerCount: 2
Fore
SplineSet
408 -16 m 0,0,1
 336 -16 336 -16 336 36 c 0,2,3
 336 73 336 73 362 104 c 0,4,5
 388 135 388 135 400 150 c 0,6,7
 476 236 476 236 535 364 c 128,-1,8
 594 492 594 492 594 573.5 c 128,-1,9
 594 655 594 655 528 655 c 0,10,11
 415 655 415 655 325.5 482.5 c 128,-1,12
 236 310 236 310 166 84 c 1,13,-1
 139 -2 l 2,14,15
 119 -69 119 -69 23 -433 c 1,16,-1
 -157 -433 l 1,17,18
 -116 -289 -116 -289 -70 -63 c 0,19,20
 43 493 43 493 133 727 c 0,21,22
 155 782 155 782 189.5 794.5 c 128,-1,23
 224 807 224 807 283 807 c 2,24,-1
 350 807 l 1,25,26
 298 626 298 626 242 444 c 1,27,28
 306 570 306 570 424 696 c 0,29,30
 483 759 483 759 553.5 799.5 c 128,-1,31
 624 840 624 840 688 840 c 0,32,33
 817 840 817 840 817 688 c 0,34,35
 817 556 817 556 725.5 383.5 c 128,-1,36
 634 211 634 211 528 145 c 1,37,38
 630 146 630 146 798 292 c 0,39,40
 878 362 878 362 983 469 c 1,41,-1
 983 354 l 1,42,43
 959 331 959 331 915 287.5 c 128,-1,44
 871 244 871 244 851.5 225.5 c 128,-1,45
 832 207 832 207 795 172 c 128,-1,46
 758 137 758 137 739 122 c 128,-1,47
 720 107 720 107 687.5 82 c 128,-1,48
 655 57 655 57 633.5 46.5 c 128,-1,49
 612 36 612 36 580 20 c 0,50,51
 506 -16 506 -16 408 -16 c 0,0,1
EndSplineSet
EndChar

StartChar: q
Encoding: 113 113 85
Width: 897
GlyphClass: 2
Flags: W
LayerCount: 2
Fore
SplineSet
521 -510 m 1,0,1
 331 -449 l 1,2,-1
 481 -47 l 1,3,4
 432 -55 432 -55 373 -55 c 0,5,6
 55 -55 55 -55 55 258 c 0,7,8
 56 463 56 463 188 645 c 0,9,10
 250 731 250 731 349 785.5 c 128,-1,11
 448 840 448 840 552 840 c 128,-1,12
 656 840 656 840 864 760 c 1,13,-1
 711 123 l 1,14,15
 775 195 775 195 872 285.5 c 128,-1,16
 969 376 969 376 1022 440 c 1,17,-1
 1022 328 l 1,18,-1
 690 18 l 1,19,-1
 690 14 l 1,20,21
 664 -83 664 -83 604 -277.5 c 128,-1,22
 544 -472 544 -472 521 -510 c 1,0,1
262 291 m 0,23,24
 262 61 262 61 424 61 c 0,25,26
 463 61 463 61 496 72 c 1,27,-1
 653 766 l 1,28,29
 580 784 580 784 555 784 c 0,30,31
 478 784 478 784 408.5 703.5 c 128,-1,32
 339 623 339 623 300.5 509.5 c 128,-1,33
 262 396 262 396 262 291 c 0,23,24
EndSplineSet
EndChar

StartChar: r
Encoding: 114 114 86
Width: 639
GlyphClass: 2
Flags: W
LayerCount: 2
Fore
SplineSet
462 729 m 1,0,-1
 582 743 l 1,1,2
 611 743 611 743 611 729 c 0,3,4
 612 715 612 715 542 572 c 0,5,6
 384 248 384 248 384 182 c 0,7,8
 384 180 384 180 384 174 c 0,9,10
 381 137 381 137 407.5 137 c 128,-1,11
 434 137 434 137 567.5 255.5 c 128,-1,12
 701 374 701 374 750 440 c 1,13,-1
 750 328 l 1,14,15
 393 -29 393 -29 269 -29 c 0,16,17
 225 -29 225 -29 203 10.5 c 128,-1,18
 181 50 181 50 181 88 c 128,-1,19
 181 126 181 126 196 175.5 c 128,-1,20
 211 225 211 225 236.5 289.5 c 128,-1,21
 262 354 262 354 284 406.5 c 128,-1,22
 306 459 306 459 332.5 519.5 c 128,-1,23
 359 580 359 580 363 590 c 1,24,25
 306 526 306 526 230.5 451 c 128,-1,26
 155 376 155 376 89 302 c 1,27,-1
 89 418 l 1,28,-1
 292 647 l 1,29,30
 170 677 170 677 134 741 c 0,31,32
 126 754 126 754 126 764 c 0,33,34
 126 834 126 834 179 887 c 128,-1,35
 232 940 232 940 320 940 c 0,36,37
 365 940 365 940 365 887 c 0,38,39
 365 856 365 856 347 819.5 c 128,-1,40
 329 783 329 783 304 770 c 1,41,42
 350 729 350 729 462 729 c 1,0,-1
EndSplineSet
Substitution2: "Single Substitution lookup 2 subtable" r.fina
EndChar

StartChar: s
Encoding: 115 115 87
Width: 645
GlyphClass: 2
Flags: W
LayerCount: 2
Fore
SplineSet
545 367 m 0,0,1
 545 293 545 293 475 197 c 1,2,-1
 772 440 l 1,3,-1
 772 330 l 1,4,5
 760 320 760 320 712.5 278 c 0,6,7
 666 236 666 236 644 218 c 0,8,9
 358 -29 358 -29 199 -29 c 0,10,11
 93 -29 93 -29 3.5 8 c 128,-1,12
 -86 45 -86 45 -86 143 c 0,13,14
 -86 182 -86 182 -57 232 c 128,-1,15
 -28 282 -28 282 6.5 320 c 128,-1,16
 41 358 41 358 88 407 c 128,-1,17
 135 456 135 456 152 477 c 1,18,19
 125 544 125 544 125 635.5 c 128,-1,20
 125 727 125 727 214.5 794.5 c 128,-1,21
 304 862 304 862 482 862 c 0,22,23
 545 862 545 862 545 828 c 0,24,25
 545 762 545 762 467.5 729 c 128,-1,26
 390 696 390 696 307 696 c 1,27,28
 344 593 344 593 444.5 506 c 128,-1,29
 545 419 545 419 545 367 c 0,0,1
195 399 m 1,30,31
 187 390 187 390 134 342 c 0,32,33
 16 236 16 236 16 180 c 128,-1,34
 16 124 16 124 74 85.5 c 128,-1,35
 132 47 132 47 199 47 c 128,-1,36
 266 47 266 47 307 69.5 c 128,-1,37
 348 92 348 92 348 127 c 128,-1,38
 348 162 348 162 339 190 c 128,-1,39
 330 218 330 218 310.5 248.5 c 128,-1,40
 291 279 291 279 276.5 298.5 c 128,-1,41
 262 318 262 318 233 352.5 c 128,-1,42
 204 387 204 387 195 399 c 1,30,31
EndSplineSet
Substitution2: "Single Substitution lookup 2 subtable" s.fina
EndChar

StartChar: t
Encoding: 116 116 88
Width: 545
GlyphClass: 2
Flags: W
LayerCount: 2
Fore
SplineSet
142 735 m 2,0,1
 73 735 73 735 73 774 c 0,2,3
 73 787 73 787 75.5 794 c 128,-1,4
 78 801 78 801 110 805 c 2,5,-1
 194 813 l 1,6,7
 241 969 241 969 273 1040 c 0,8,9
 305 1111 305 1111 343 1155 c 0,10,11
 417 1241 417 1241 532 1241 c 1,12,-1
 536 1237 l 1,13,14
 536 1233 536 1233 480 1073 c 128,-1,15
 424 913 424 913 395 813 c 1,16,-1
 700 827 l 1,17,-1
 678 791 l 1,18,19
 653 745 653 745 379 745 c 0,20,21
 378 745 378 745 318 524 c 128,-1,22
 258 303 258 303 258 232.5 c 128,-1,23
 258 162 258 162 274 151.5 c 128,-1,24
 290 141 290 141 307 141 c 0,25,26
 361 141 361 141 688 451 c 1,27,-1
 688 338 l 1,28,29
 654 307 654 307 594 251 c 128,-1,30
 534 195 534 195 464 131 c 0,31,32
 288 -29 288 -29 164 -29 c 0,33,34
 45 -29 45 -29 45 137 c 0,35,36
 45 228 45 228 73.5 351.5 c 128,-1,37
 102 475 102 475 122 553.5 c 128,-1,38
 142 632 142 632 166 735 c 1,39,-1
 142 735 l 2,0,1
EndSplineSet
Substitution2: "Single Substitution lookup 2 subtable" t.fina
EndChar

StartChar: u
Encoding: 117 117 89
Width: 993
GlyphClass: 2
Flags: W
LayerCount: 2
Fore
SplineSet
154 -29 m 0,0,1
 37 -29 37 -29 37 139 c 0,2,3
 37 196 37 196 51 250 c 0,4,5
 111 477 111 477 217 782 c 1,6,7
 221 807 221 807 379 807 c 2,8,-1
 414 807 l 1,9,10
 414 805 414 805 332 547 c 128,-1,11
 250 289 250 289 250 217 c 128,-1,12
 250 145 250 145 317 145 c 0,13,14
 374 145 374 145 458.5 194 c 128,-1,15
 543 243 543 243 557 272 c 1,16,-1
 666 688 l 2,17,18
 688 773 688 773 721.5 790 c 0,19,20
 756 807 756 807 786 807 c 2,21,-1
 887 807 l 1,22,-1
 854 690 l 1,23,24
 752 316 752 316 737 246 c 1,25,26
 729 170 729 170 729 155 c 128,-1,27
 729 140 729 140 733.5 134.5 c 128,-1,28
 738 129 738 129 756.5 129 c 128,-1,29
 775 129 775 129 835 178 c 256,30,31
 895 227 895 227 1114 438 c 1,32,-1
 1114 326 l 1,33,34
 1090 304 1090 304 1031 248.5 c 0,35,36
 972 192 972 192 941 164 c 0,37,38
 731 -30 731 -30 621 -29 c 0,39,40
 535 -29 535 -29 535 102 c 0,41,42
 535 157 535 157 545 195 c 1,43,44
 314 -29 314 -29 154 -29 c 0,0,1
EndSplineSet
Substitution2: "Single Substitution lookup 2 subtable" u.fina
EndChar

StartChar: v
Encoding: 118 118 90
Width: 778
GlyphClass: 2
Flags: W
LayerCount: 2
Fore
SplineSet
246 -29 m 0,0,1
 184 -28 184 -28 140 54 c 0,2,3
 54 213 54 213 55 543 c 0,4,5
 55 668 55 668 68 758 c 0,6,7
 70 772 70 772 100.5 789.5 c 128,-1,8
 131 807 131 807 225 807 c 2,9,-1
 305 807 l 1,10,11
 274 642 274 642 274 489.5 c 128,-1,12
 274 337 274 337 305.5 227 c 128,-1,13
 337 117 337 117 375 117 c 0,14,15
 405 117 405 117 486 254 c 0,16,17
 524 318 524 318 523 318.5 c 128,-1,18
 522 319 522 319 522 370 c 128,-1,19
 522 421 522 421 531.5 502 c 128,-1,20
 541 583 541 583 560 661 c 128,-1,21
 579 739 579 739 612.5 789.5 c 128,-1,22
 646 840 646 840 688 840 c 0,23,24
 739 840 739 840 739 742.5 c 128,-1,25
 739 645 739 645 697 492 c 128,-1,26
 655 339 655 339 627 268 c 1,27,28
 647 229 647 229 647 213 c 1,29,30
 673 213 673 213 710 248 c 128,-1,31
 747 283 747 283 769 305.5 c 128,-1,32
 791 328 791 328 834 372 c 128,-1,33
 877 416 877 416 907 446 c 1,34,-1
 907 334 l 1,35,36
 744 165 744 165 702.5 142 c 128,-1,37
 661 119 661 119 639 119 c 0,38,39
 606 119 606 119 563 211 c 1,40,41
 481 67 481 67 431 27 c 0,42,43
 381 -12 381 -12 335 -20.5 c 128,-1,44
 289 -29 289 -29 246 -29 c 0,0,1
EndSplineSet
EndChar

StartChar: w
Encoding: 119 119 91
Width: 1204
GlyphClass: 2
Flags: W
LayerCount: 2
Fore
SplineSet
254 246 m 128,-1,1
 254 100 254 100 358 100 c 0,2,3
 411 100 411 100 477 160 c 1,4,-1
 477 174 l 2,5,6
 477 272 477 272 512 392 c 0,7,8
 580 625 580 625 672 625 c 0,9,10
 723 625 723 625 723 561.5 c 128,-1,11
 723 498 723 498 687 379 c 128,-1,12
 651 260 651 260 651 246 c 0,13,14
 651 176 651 176 677 138 c 128,-1,15
 703 100 703 100 745.5 100 c 128,-1,16
 788 100 788 100 836.5 161 c 128,-1,17
 885 222 885 222 895 297 c 1,18,19
 899 317 899 317 908 437 c 0,20,21
 917 558 917 558 943 674 c 0,22,23
 979 840 979 840 1069 840 c 0,24,25
 1091 840 1091 840 1105.5 774.5 c 128,-1,26
 1120 709 1120 709 1120 653 c 128,-1,27
 1120 597 1120 597 1090.5 495.5 c 128,-1,28
 1061 394 1061 394 1026 315 c 1,29,30
 1041 279 1041 279 1065 279 c 128,-1,31
 1089 279 1089 279 1130.5 314.5 c 128,-1,32
 1172 350 1172 350 1262 442 c 1,33,-1
 1262 328 l 1,34,35
 1239 308 1239 308 1203.5 273.5 c 128,-1,36
 1168 239 1168 239 1133 207 c 0,37,38
 1052 132 1052 132 985 229 c 1,39,40
 938 118 938 118 856 44.5 c 128,-1,41
 774 -29 774 -29 668 -29 c 0,42,43
 607 -29 607 -29 562.5 0 c 128,-1,44
 518 29 518 29 496 78 c 1,45,46
 382 -29 382 -29 229 -29 c 0,47,48
 142 -29 142 -29 90.5 29.5 c 128,-1,49
 39 88 39 88 39 174 c 0,50,51
 39 324 39 324 174 729 c 0,52,53
 200 807 200 807 332 807 c 2,54,-1
 391 807 l 1,55,56
 386 788 386 788 348 674 c 0,57,0
 254 392 254 392 254 246 c 128,-1,1
EndSplineSet
EndChar

StartChar: x
Encoding: 120 120 92
Width: 903
GlyphClass: 2
Flags: W
LayerCount: 2
Fore
SplineSet
172 133 m 2,0,1
 358 356 l 1,2,-1
 209 645 l 2,3,4
 196 670 196 670 180.5 670 c 128,-1,5
 165 670 165 670 97 612.5 c 128,-1,6
 29 555 29 555 -6 516 c 1,7,-1
 -29 571 l 1,8,9
 51 670 51 670 148 754 c 128,-1,10
 245 838 245 838 304 838 c 128,-1,11
 363 838 363 838 387 797 c 0,12,13
 391 789 391 789 428 710 c 128,-1,14
 465 631 465 631 510 539 c 1,15,-1
 649 707 l 1,16,17
 749 840 749 840 834 840 c 0,18,19
 862 840 862 840 879.5 821.5 c 128,-1,20
 897 803 897 803 897 780 c 128,-1,21
 897 757 897 757 871 739.5 c 128,-1,22
 845 722 845 722 807.5 698.5 c 128,-1,23
 770 675 770 675 734 628.5 c 128,-1,24
 698 582 698 582 565 428 c 1,25,26
 668 227 668 227 717 176 c 0,27,28
 719 174 719 174 723 174 c 0,29,30
 750 174 750 174 846 262.5 c 128,-1,31
 942 351 942 351 1028 444 c 1,32,-1
 1028 328 l 1,33,34
 982 285 982 285 884 189 c 128,-1,35
 786 93 786 93 717.5 32 c 128,-1,36
 649 -29 649 -29 606.5 -29 c 0,37,38
 564 -30 564 -30 527 32 c 0,39,40
 513 56 513 56 489 102 c 2,41,-1
 414 248 l 1,42,43
 362 186 362 186 274 78 c 1,44,45
 170 -55 170 -55 90 -55 c 0,46,47
 61 -55 61 -55 44 -37 c 128,-1,48
 27 -19 27 -19 27 3 c 128,-1,49
 27 25 27 25 52.5 43 c 128,-1,50
 78 61 78 61 115.5 85.5 c 128,-1,51
 153 110 153 110 172 133 c 2,0,1
EndSplineSet
EndChar

StartChar: y
Encoding: 121 121 93
Width: 860
GlyphClass: 2
Flags: W
LayerCount: 2
Fore
SplineSet
113 -29 m 0,0,1
 -4 -29 -4 -29 -4 143 c 0,2,3
 -4 270 -4 270 176 782 c 1,4,5
 180 807 180 807 338 807 c 2,6,-1
 373 807 l 1,7,8
 373 805 373 805 291 547 c 128,-1,9
 209 289 209 289 209 217 c 128,-1,10
 209 145 209 145 276 145 c 0,11,12
 333 145 333 145 417.5 194 c 128,-1,13
 502 243 502 243 516 272 c 1,14,-1
 625 688 l 2,15,16
 647 773 647 773 680.5 790 c 128,-1,17
 714 807 714 807 744 807 c 2,18,-1
 846 807 l 1,19,20
 819 731 819 731 684 229 c 1,21,-1
 666 164 l 1,22,23
 894 354 894 354 983 440 c 1,24,-1
 983 328 l 1,25,-1
 649 27 l 1,26,-1
 649 23 l 1,27,28
 626 -104 626 -104 576.5 -205 c 128,-1,29
 527 -306 527 -306 465 -366 c 0,30,31
 338 -489 338 -489 205 -489 c 0,32,33
 136 -489 136 -489 76 -445 c 128,-1,34
 16 -401 16 -401 16 -341 c 128,-1,35
 16 -281 16 -281 56.5 -239.5 c 128,-1,36
 97 -198 97 -198 172 -156 c 1,37,-1
 473 35 l 1,38,-1
 506 195 l 1,39,40
 273 -29 273 -29 113 -29 c 0,0,1
461 -88 m 1,41,-1
 276 -205 l 1,42,43
 224 -236 224 -236 195 -265.5 c 128,-1,44
 166 -295 166 -295 166 -338 c 0,45,46
 166 -420 166 -420 240 -420 c 0,47,48
 329 -420 329 -420 384 -329 c 128,-1,49
 439 -238 439 -238 461 -88 c 1,41,-1
EndSplineSet
Substitution2: "Single Substitution lookup 2 subtable" y.fina
EndChar

StartChar: z
Encoding: 122 122 94
Width: 737
GlyphClass: 2
Flags: W
LayerCount: 2
Fore
SplineSet
569 729 m 1,0,-1
 688 743 l 1,1,2
 715 743 715 743 715 713 c 0,3,4
 715 702 715 702 713 700 c 2,5,-1
 578 418 l 1,6,7
 554 362 554 362 481 213 c 1,8,9
 509 203 509 203 527 184.5 c 128,-1,10
 545 166 545 166 545 152 c 1,11,12
 626 205 626 205 745.5 325.5 c 128,-1,13
 865 446 865 446 872 453 c 1,14,-1
 913 379 l 1,15,16
 678 141 678 141 575 63 c 1,17,18
 555 -187 555 -187 441 -354.5 c 128,-1,19
 327 -522 327 -522 158 -535 c 1,20,21
 44 -535 44 -535 -20 -489.5 c 128,-1,22
 -84 -444 -84 -444 -84 -369 c 0,23,24
 -84 -214 -84 -214 34.5 -110 c 128,-1,25
 153 -6 153 -6 389 70 c 1,26,27
 378 73 378 73 311 86 c 128,-1,28
 244 99 244 99 244 111 c 0,29,30
 244 143 244 143 329.5 325.5 c 128,-1,31
 415 508 415 508 438 561 c 1,32,-1
 377 575 l 1,33,34
 358 556 358 556 262 464.5 c 128,-1,35
 166 373 166 373 115 322 c 1,36,-1
 115 432 l 1,37,-1
 309 637 l 1,38,39
 236 673 236 673 236 770 c 0,40,41
 236 829 236 829 288 884.5 c 128,-1,42
 340 940 340 940 424 940 c 0,43,44
 443 940 443 940 459 928 c 128,-1,45
 475 916 475 916 475 891.5 c 128,-1,46
 475 867 475 867 466 839 c 0,47,48
 457 811 457 811 439.5 793.5 c 128,-1,49
 422 776 422 776 414 772 c 1,50,51
 456 729 456 729 569 729 c 1,0,-1
451 -4 m 1,52,53
 367 -50 367 -50 270 -80 c 0,54,55
 173 -110 173 -110 131.5 -156 c 128,-1,56
 90 -202 90 -202 90 -311 c 0,57,58
 90 -357 90 -357 110 -392.5 c 128,-1,59
 130 -428 130 -428 178 -428 c 128,-1,60
 226 -428 226 -428 290.5 -360.5 c 128,-1,61
 355 -293 355 -293 401.5 -192 c 128,-1,62
 448 -91 448 -91 451 -4 c 1,52,53
EndSplineSet
EndChar

StartChar: braceleft
Encoding: 123 123 95
Width: 813
GlyphClass: 2
Flags: W
LayerCount: 2
Fore
SplineSet
86 319 m 1,0,-1
 88 360 l 2,1,2
 90 403 90 403 104.5 491 c 128,-1,3
 119 579 119 579 120 620 c 128,-1,4
 121 661 121 661 116.5 678 c 128,-1,5
 112 695 112 695 103 700.5 c 128,-1,6
 94 706 94 706 85 706.5 c 128,-1,7
 76 707 76 707 61 707 c 128,-1,8
 46 707 46 707 35 711 c 1,9,-1
 61 887 l 1,10,11
 92 885 92 885 124 885 c 128,-1,12
 156 885 156 885 167.5 892 c 0,13,14
 178 899 178 899 186 916 c 0,15,16
 194 935 194 935 208 995 c 0,17,18
 264 1261 264 1261 401 1439 c 0,19,20
 520 1593 520 1593 723 1593 c 0,21,22
 760 1593 760 1593 801 1587 c 1,23,-1
 780 1473 l 1,24,25
 756 1481 756 1481 731 1481 c 0,26,27
 671 1481 671 1481 614 1432.5 c 128,-1,28
 557 1384 557 1384 515 1307 c 0,29,30
 434 1158 434 1158 402.5 1013 c 128,-1,31
 371 868 371 868 330 832 c 128,-1,32
 289 796 289 796 225 782 c 1,33,34
 278 751 278 751 298.5 718 c 128,-1,35
 319 685 319 685 319 640 c 128,-1,36
 319 595 319 595 305 471 c 128,-1,37
 291 347 291 347 291 269.5 c 128,-1,38
 291 192 291 192 303 125.5 c 128,-1,39
 315 59 315 59 346.5 14 c 128,-1,40
 378 -31 378 -31 418.5 -31 c 128,-1,41
 459 -31 459 -31 481 -20 c 1,42,-1
 469 -115 l 1,43,44
 420 -131 420 -131 369 -131 c 0,45,46
 276 -131 276 -131 210 -67 c 0,47,48
 86 54 86 54 86 319 c 1,0,-1
EndSplineSet
EndChar

StartChar: bar
Encoding: 124 124 96
Width: 739
GlyphClass: 2
Flags: W
LayerCount: 2
Fore
SplineSet
459 1374 m 2,0,1
 465 1403 l 2,2,3
 482 1481 482 1481 498 1499.5 c 128,-1,4
 514 1518 514 1518 579.5 1518 c 128,-1,5
 645 1518 645 1518 645 1513 c 1,6,-1
 268 -43 l 2,7,8
 265 -54 265 -54 261.5 -82 c 128,-1,9
 258 -110 258 -110 254 -126 c 128,-1,10
 250 -142 250 -142 237 -156 c 128,-1,11
 224 -170 224 -170 203 -170 c 2,12,-1
 90 -170 l 1,13,-1
 119 -33 l 1,14,15
 157 136 157 136 307 750 c 128,-1,16
 457 1364 457 1364 459 1374 c 2,0,1
EndSplineSet
EndChar

StartChar: braceright
Encoding: 125 125 97
Width: 813
GlyphClass: 2
Flags: W
LayerCount: 2
Fore
SplineSet
708.5 971 m 128,-1,1
 694 883 694 883 693 819.5 c 128,-1,2
 692 756 692 756 728 756 c 2,3,-1
 752 756 l 2,4,5
 767 756 767 756 778 752 c 1,6,-1
 752 575 l 1,7,8
 721 578 721 578 689 578 c 128,-1,9
 657 578 657 578 645.5 571 c 128,-1,10
 634 564 634 564 626.5 546.5 c 128,-1,11
 619 529 619 529 615.5 513.5 c 128,-1,12
 612 498 612 498 605.5 467.5 c 128,-1,13
 599 437 599 437 594 416 c 0,14,15
 449 -131 449 -131 90 -131 c 0,16,17
 53 -131 53 -131 12 -125 c 1,18,-1
 33 -10 l 1,19,20
 57 -18 57 -18 82 -18 c 0,21,22
 142 -18 142 -18 199 30.5 c 0,23,24
 256 78 256 78 298 156 c 0,25,26
 382 312 382 312 410 453 c 0,27,28
 439 593 439 593 481 629 c 0,29,30
 522 665 522 665 588 680 c 1,31,32
 535 711 535 711 514.5 743.5 c 128,-1,33
 494 776 494 776 494 821.5 c 128,-1,34
 494 867 494 867 508 991.5 c 128,-1,35
 522 1116 522 1116 522 1193.5 c 128,-1,36
 522 1271 522 1271 510 1337.5 c 128,-1,37
 498 1404 498 1404 466.5 1448.5 c 128,-1,38
 435 1493 435 1493 394.5 1493 c 128,-1,39
 354 1493 354 1493 332 1483 c 1,40,-1
 344 1577 l 1,41,42
 393 1593 393 1593 444 1593 c 0,43,44
 538 1593 538 1593 603 1529 c 0,45,46
 725 1409 725 1409 725 1143 c 2,47,-1
 725 1102 l 1,48,0
 723 1059 723 1059 708.5 971 c 128,-1,1
EndSplineSet
EndChar

StartChar: asciitilde
Encoding: 126 126 98
Width: 1118
GlyphClass: 2
Flags: W
LayerCount: 2
Fore
SplineSet
246 1188 m 1,0,1
 257 1065 257 1065 328 1065 c 0,2,3
 387 1065 387 1065 481 1094.5 c 128,-1,4
 575 1124 575 1124 672 1153 c 128,-1,5
 769 1182 769 1182 824 1182 c 0,6,7
 921 1182 921 1182 966.5 1109.5 c 128,-1,8
 1012 1037 1012 1037 1012 920 c 1,9,-1
 887 901 l 1,10,11
 873 1030 873 1030 811 1030 c 0,12,13
 732 1030 732 1030 583 967.5 c 128,-1,14
 434 905 434 905 313 905 c 0,15,16
 228 905 228 905 191 965 c 0,17,18
 137 1050 137 1050 137 1167 c 1,19,-1
 246 1188 l 1,0,1
EndSplineSet
EndChar

StartChar: exclamdown
Encoding: 161 161 99
Width: 608
GlyphClass: 2
Flags: W
LayerCount: 2
Fore
SplineSet
494 1139 m 0,0,1
 517 1149 517 1149 539 1149 c 128,-1,2
 561 1149 561 1149 565 1142 c 128,-1,3
 569 1135 569 1135 569 1115.5 c 128,-1,4
 569 1096 569 1096 567 1083 c 2,5,-1
 416 221 l 1,6,7
 391 41 391 41 360 10 c 0,8,9
 350 0 350 0 338 0 c 2,10,-1
 156 0 l 2,11,12
 123 0 123 0 123 53.5 c 128,-1,13
 123 107 123 107 249 458.5 c 128,-1,14
 375 810 375 810 434.5 974 c 128,-1,15
 494 1138 494 1138 494 1139 c 0,0,1
582 1311 m 0,16,17
 470 1311 470 1311 471 1399 c 0,18,19
 471 1443 471 1443 523 1494.5 c 128,-1,20
 575 1546 575 1546 628 1546 c 0,21,22
 721 1546 721 1546 721 1468 c 0,23,24
 721 1414 721 1414 679.5 1362.5 c 128,-1,25
 638 1311 638 1311 582 1311 c 0,16,17
EndSplineSet
EndChar

StartChar: cent
Encoding: 162 162 100
Width: 778
GlyphClass: 2
Flags: W
LayerCount: 2
Fore
SplineSet
561 965 m 1,0,1
 760 966 760 966 760 836 c 0,2,3
 760 798 760 798 723 769.5 c 128,-1,4
 686 741 686 741 629 741 c 0,5,6
 600 741 600 741 576 792.5 c 128,-1,7
 552 844 552 844 518 860 c 1,8,-1
 381 266 l 1,9,-1
 397 266 l 2,10,11
 512 266 512 266 698 410 c 1,12,-1
 739 330 l 1,13,14
 512 131 512 131 342 102 c 1,15,-1
 236 -360 l 2,16,17
 232 -376 232 -376 228 -407 c 128,-1,18
 224 -438 224 -438 220.5 -452.5 c 128,-1,19
 217 -467 217 -467 204.5 -480.5 c 128,-1,20
 192 -494 192 -494 170 -494 c 0,21,22
 141 -494 141 -494 141 -465 c 0,23,24
 141 -444 141 -444 152 -389 c 1,25,-1
 160 -336 l 1,26,27
 191 -179 191 -179 256 96 c 1,28,29
 131 103 131 103 69.5 174 c 128,-1,30
 8 245 8 245 8 343.5 c 128,-1,31
 8 442 8 442 41.5 537.5 c 128,-1,32
 75 633 75 633 133.5 717 c 128,-1,33
 192 801 192 801 278.5 865.5 c 128,-1,34
 365 930 365 930 463 952 c 1,35,-1
 541 1270 l 2,36,37
 577 1414 577 1414 586 1440 c 128,-1,38
 595 1466 595 1466 616 1466 c 0,39,40
 627 1466 627 1466 639 1458.5 c 128,-1,41
 651 1451 651 1451 651 1430 c 1,42,-1
 543 963 l 1,43,-1
 561 965 l 1,0,1
324 383 m 1,44,-1
 440 860 l 1,45,46
 381 842 381 842 331 776 c 0,47,48
 227 640 227 640 227 463 c 0,49,50
 227 340 227 340 301 291 c 1,51,52
 309 334 309 334 324 383 c 1,44,-1
EndSplineSet
EndChar

StartChar: sterling
Encoding: 163 163 101
Width: 1368
GlyphClass: 2
Flags: W
LayerCount: 2
Fore
SplineSet
262 117 m 1,0,1
 37 -29 37 -29 -100 -29 c 0,2,3
 -122 -30 -122 -30 -151 -16 c 0,4,5
 -209 11 -209 11 -209 72 c 0,6,7
 -209 108 -209 108 -166.5 135 c 128,-1,8
 -124 162 -124 162 -55 190 c 1,9,-1
 207 309 l 1,10,-1
 238 420 l 1,11,-1
 94 414 l 1,12,13
 37 414 37 414 37 455 c 0,14,15
 37 526 37 526 86 541 c 1,16,17
 116 547 116 547 276 557 c 1,18,-1
 301 647 l 1,19,-1
 135 639 l 1,20,21
 78 639 78 639 78 680 c 0,22,23
 78 752 78 752 127 766 c 1,24,25
 169 774 169 774 340 784 c 1,26,-1
 438 1137 l 2,27,28
 449 1174 449 1174 461.5 1190.5 c 128,-1,29
 474 1207 474 1207 480 1215.5 c 128,-1,30
 486 1224 486 1224 500.5 1236 c 128,-1,31
 515 1248 515 1248 520.5 1252.5 c 128,-1,32
 526 1257 526 1257 545.5 1271 c 128,-1,33
 565 1285 565 1285 594 1306.5 c 128,-1,34
 623 1328 623 1328 688.5 1371.5 c 128,-1,35
 754 1415 754 1415 851 1466.5 c 128,-1,36
 948 1518 948 1518 991 1518 c 0,37,38
 1120 1518 1120 1518 1224.5 1413 c 128,-1,39
 1329 1308 1329 1308 1329 1178 c 0,40,41
 1329 1120 1329 1120 1284 1097.5 c 128,-1,42
 1239 1075 1239 1075 1026.5 957.5 c 128,-1,43
 814 840 814 840 794 840 c 0,44,45
 756 840 756 840 756 881 c 0,46,47
 756 930 756 930 932 1006 c 0,48,49
 998 1034 998 1034 1053.5 1073 c 128,-1,50
 1109 1112 1109 1112 1110 1147 c 1,51,-1
 1104 1175 l 1,52,53
 1077 1328 1077 1328 1009 1389 c 0,54,55
 978 1417 978 1417 940 1417 c 1,56,57
 892 1411 892 1411 823 1342 c 128,-1,58
 754 1273 754 1273 702 1192.5 c 128,-1,59
 650 1112 650 1112 641 1067 c 0,60,61
 619 961 619 961 580 793 c 1,62,-1
 612 793 l 2,63,64
 821 793 821 793 821 752 c 0,65,66
 821 722 821 722 789.5 688.5 c 128,-1,67
 758 655 758 655 721 655 c 2,68,-1
 584 657 l 1,69,-1
 543 657 l 1,70,71
 530 609 530 609 516 565 c 1,72,73
 549 567 549 567 612 567 c 0,74,75
 821 567 821 567 821 526 c 0,76,77
 821 496 821 496 790 463 c 128,-1,78
 759 430 759 430 721 430 c 2,79,-1
 584 432 l 2,80,81
 526 432 526 432 471 430 c 1,82,83
 464 408 464 408 408 266 c 1,84,85
 421 262 421 262 447 253 c 128,-1,86
 473 244 473 244 485 241 c 128,-1,87
 497 238 497 238 679 178.5 c 128,-1,88
 861 119 861 119 907 119 c 0,89,90
 952 119 952 119 986 135 c 0,91,92
 1097 188 1097 188 1192 268 c 1,93,-1
 1192 168 l 1,94,95
 1150 144 1150 144 1049 74.5 c 128,-1,96
 948 5 948 5 878.5 -26 c 128,-1,97
 809 -57 809 -57 733 -57 c 0,98,99
 728 -57 728 -57 720 -53 c 0,100,101
 607 4 607 4 262 117 c 1,0,1
EndSplineSet
EndChar

StartChar: currency
Encoding: 164 164 102
Width: 1176
GlyphClass: 2
Flags: W
LayerCount: 2
Fore
SplineSet
152 819 m 0,0,1
 152 1004 152 1004 270 1130 c 1,2,-1
 174 1257 l 1,3,4
 154 1270 154 1270 134.5 1303.5 c 128,-1,5
 115 1337 115 1337 115 1359 c 128,-1,6
 115 1381 115 1381 132.5 1406.5 c 128,-1,7
 150 1432 150 1432 178 1432 c 128,-1,8
 206 1432 206 1432 253 1382 c 128,-1,9
 300 1332 300 1332 387 1217 c 1,10,11
 486 1264 486 1264 590.5 1264 c 128,-1,12
 695 1264 695 1264 784 1217 c 1,13,14
 800 1235 800 1235 852 1302.5 c 128,-1,15
 904 1370 904 1370 909 1378 c 1,16,-1
 907 1376 l 1,17,18
 907 1380 907 1380 917 1392 c 0,19,20
 949 1432 949 1432 994 1432 c 128,-1,21
 1039 1432 1039 1432 1090 1384 c 1,22,23
 1085 1362 1085 1362 1077 1354 c 2,24,-1
 885 1126 l 1,25,26
 956 1031 956 1031 956 901 c 0,27,28
 956 706 956 706 829 584 c 1,29,30
 892 501 892 501 958 422 c 0,31,32
 1024 343 1024 343 1024 323.5 c 128,-1,33
 1024 304 1024 304 1000.5 287 c 128,-1,34
 977 270 977 270 937 270 c 128,-1,35
 897 270 897 270 864 313 c 2,36,-1
 719 504 l 1,37,38
 622 457 622 457 515.5 457 c 128,-1,39
 409 457 409 457 326 502 c 1,40,-1
 250 412 l 1,41,42
 176 322 176 322 151.5 308.5 c 128,-1,43
 127 295 127 295 110.5 295 c 128,-1,44
 94 295 94 295 68.5 310 c 128,-1,45
 43 325 43 325 43 348.5 c 128,-1,46
 43 372 43 372 50.5 386.5 c 128,-1,47
 58 401 58 401 77 420 c 128,-1,48
 96 439 96 439 118.5 472.5 c 128,-1,49
 141 506 141 506 215 598 c 1,50,51
 152 687 152 687 152 819 c 0,0,1
738 1050.5 m 128,-1,53
 688 1112 688 1112 577.5 1112 c 128,-1,54
 467 1112 467 1112 397.5 1023.5 c 128,-1,55
 328 935 328 935 328 834 c 128,-1,56
 328 733 328 733 375.5 670.5 c 128,-1,57
 423 608 423 608 532 608 c 128,-1,58
 641 608 641 608 714.5 696 c 128,-1,59
 788 784 788 784 788 886.5 c 128,-1,52
 788 989 788 989 738 1050.5 c 128,-1,53
EndSplineSet
EndChar

StartChar: yen
Encoding: 165 165 103
Width: 1546
GlyphClass: 2
Flags: W
LayerCount: 2
Fore
SplineSet
979 -20 m 2,0,-1
 842 -18 l 1,1,-1
 743 -18 l 1,2,3
 702 -215 702 -215 698 -235 c 0,4,5
 658 -436 658 -436 608 -436 c 2,6,-1
 430 -436 l 2,7,8
 403 -436 403 -436 403 -391 c 128,-1,9
 403 -346 403 -346 430 -225 c 1,10,11
 435 -181 435 -181 463 -27 c 1,12,-1
 250 -37 l 1,13,14
 193 -37 193 -37 193 4 c 0,15,16
 193 76 193 76 242 90 c 1,17,18
 280 96 280 96 492 106 c 1,19,-1
 510 197 l 1,20,-1
 291 188 l 1,21,22
 233 188 233 188 233 229 c 0,23,24
 233 301 233 301 283 315 c 1,25,26
 308 320 308 320 479 330 c 1,27,28
 471 364 471 364 426 532 c 0,29,30
 381 700 381 700 362 840 c 1,31,32
 348 908 348 908 323 1057.5 c 128,-1,33
 298 1207 298 1207 287 1251 c 1,34,-1
 256 1233 l 1,35,36
 237 1221 237 1221 188 1192 c 1,37,-1
 188 1303 l 1,38,39
 286 1376 286 1376 351.5 1429 c 128,-1,40
 417 1482 417 1482 449 1506 c 128,-1,41
 481 1530 481 1530 506.5 1530 c 128,-1,42
 532 1530 532 1530 532 1509 c 1,43,-1
 538 1472 l 1,44,45
 599 1057 599 1057 645 848 c 1,46,47
 686 581 686 581 739 387 c 1,48,-1
 848 487 l 2,49,50
 957 587 957 587 1083.5 731 c 128,-1,51
 1210 875 1210 875 1245 963 c 1,52,53
 1174 974 1174 974 1080 1048 c 0,54,55
 1032 1085 1032 1085 999.5 1148 c 128,-1,56
 967 1211 967 1211 967 1296 c 0,57,58
 967 1381 967 1381 1018 1470 c 128,-1,59
 1069 1559 1069 1559 1182 1559 c 0,60,61
 1384 1559 1384 1559 1384 1063 c 1,62,-1
 1420 1072 l 2,63,64
 1455 1080 1455 1080 1519 1114.5 c 128,-1,65
 1583 1149 1583 1149 1640 1200 c 1,66,-1
 1640 1085 l 1,67,68
 1502 982 1502 982 1372 958 c 1,69,70
 1320 743 1320 743 897 342 c 1,71,-1
 911 342 l 2,72,73
 1120 342 1120 342 1120 301 c 0,74,75
 1120 271 1120 271 1089 238 c 128,-1,76
 1058 205 1058 205 1020 205 c 2,77,-1
 883 207 l 1,78,-1
 793 207 l 1,79,-1
 772 115 l 1,80,-1
 870 117 l 1,81,82
 1079 117 1079 117 1079 76 c 0,83,84
 1079 46 1079 46 1048 13 c 128,-1,85
 1017 -20 1017 -20 979 -20 c 2,0,-1
1255 1069 m 1,86,-1
 1257 1108 l 1,87,88
 1257 1208 1257 1208 1226.5 1294 c 128,-1,89
 1196 1380 1196 1380 1147 1380 c 0,90,91
 1092 1380 1092 1380 1092 1297 c 128,-1,92
 1092 1214 1092 1214 1139.5 1148.5 c 128,-1,93
 1187 1083 1187 1083 1255 1069 c 1,86,-1
EndSplineSet
EndChar

StartChar: brokenbar
Encoding: 166 166 104
Width: 739
GlyphClass: 2
Flags: W
LayerCount: 2
Fore
SplineSet
96 -145 m 1,0,1
 262 571 l 2,2,3
 268 600 268 600 304.5 600 c 128,-1,4
 341 600 341 600 377.5 589 c 128,-1,5
 414 578 414 578 416 571 c 1,6,-1
 268 -43 l 2,7,8
 245 -137 245 -137 230 -153.5 c 128,-1,9
 215 -170 215 -170 203 -170 c 0,10,11
 96 -170 96 -170 96 -145 c 1,0,1
645 1513 m 1,12,-1
 492 881 l 2,13,14
 487 858 487 858 467 858 c 0,15,16
 362 858 362 858 350 866 c 128,-1,17
 338 874 338 874 338 881 c 1,18,-1
 459 1374 l 2,19,20
 463 1390 463 1390 468 1412 c 2,21,-1
 475 1443 l 2,22,23
 488 1501 488 1501 511 1510 c 0,24,25
 534 1518 534 1518 589.5 1518 c 128,-1,26
 645 1518 645 1518 645 1513 c 1,12,-1
EndSplineSet
EndChar

StartChar: section
Encoding: 167 167 105
Width: 1069
GlyphClass: 2
Flags: W
LayerCount: 2
Fore
SplineSet
768 461 m 1,0,1
 838 387 838 387 838 298.5 c 128,-1,2
 838 210 838 210 791 141.5 c 128,-1,3
 744 73 744 73 671 31 c 0,4,5
 518 -57 518 -57 362.5 -57 c 0,6,7
 206 -57 206 -57 124 34 c 0,8,9
 80 83 80 83 80 144.5 c 128,-1,10
 80 206 80 206 121.5 240 c 128,-1,11
 163 274 163 274 223 276 c 1,12,-1
 260 279 l 1,13,14
 256 233 256 233 256 201 c 128,-1,15
 256 169 256 169 256.5 157 c 128,-1,16
 257 145 257 145 259.5 122.5 c 128,-1,17
 262 100 262 100 268 89.5 c 128,-1,18
 274 79 274 79 286 63.5 c 128,-1,19
 298 48 298 48 315.5 41 c 128,-1,20
 333 34 333 34 360 28.5 c 128,-1,21
 387 23 387 23 422 23 c 128,-1,22
 457 23 457 23 499 38 c 128,-1,23
 541 53 541 53 579.5 79.5 c 128,-1,24
 618 106 618 106 644 148 c 128,-1,25
 670 190 670 190 670 243.5 c 128,-1,26
 670 297 670 297 621.5 352 c 128,-1,27
 573 407 573 407 503.5 449.5 c 128,-1,28
 434 492 434 492 365 532 c 0,29,30
 199 627 199 627 199 700 c 0,31,32
 199 803 199 803 253.5 886 c 128,-1,33
 308 969 308 969 401 1026 c 1,34,35
 301 1109 301 1109 301 1185 c 0,36,37
 300 1261 300 1261 336 1324 c 0,38,39
 399 1435 399 1435 550.5 1501 c 128,-1,40
 702 1567 702 1567 846 1567 c 128,-1,41
 990 1567 990 1567 1067.5 1496 c 128,-1,42
 1145 1425 1145 1425 1145 1317 c 0,43,44
 1145 1299 1145 1299 975 1200 c 128,-1,45
 805 1101 805 1101 760 1085 c 1,46,-1
 760 1169 l 1,47,48
 768 1174 768 1174 838 1207 c 0,49,50
 990 1279 990 1279 989 1315 c 0,51,52
 989 1485 989 1485 817 1485 c 0,53,54
 644 1484 644 1484 540 1380 c 0,55,56
 486 1326 486 1326 486.5 1274 c 128,-1,57
 487 1222 487 1222 520 1178 c 128,-1,58
 553 1134 553 1134 677.5 1065.5 c 128,-1,59
 802 997 802 997 863 949 c 0,60,61
 956 876 956 876 956 784 c 0,62,63
 956 586 956 586 768 461 c 1,0,1
614 880 m 0,64,65
 590 896 590 896 545 925.5 c 128,-1,66
 500 955 500 955 479 969 c 1,67,68
 385 892 385 892 385 788 c 0,69,70
 384 730 384 730 456 676 c 0,71,72
 499 644 499 644 579.5 596 c 128,-1,73
 660 548 660 548 692 526 c 1,74,75
 768 599 768 599 768 687 c 128,-1,76
 768 775 768 775 614 880 c 0,64,65
EndSplineSet
EndChar

StartChar: dieresis
Encoding: 168 168 106
Width: 1706
GlyphClass: 2
Flags: W
LayerCount: 2
Fore
SplineSet
688 840 m 0,0,-1
510 1220 m 0,1,2
 622 1220 622 1220 622 1132 c 0,3,4
 622 1088 622 1088 569 1036 c 128,-1,5
 516 984 516 984 464 984 c 0,6,7
 372 984 372 984 372 1062 c 0,8,9
 372 1117 372 1117 413 1168.5 c 128,-1,10
 454 1220 454 1220 510 1220 c 0,1,2
992 1220 m 0,11,12
 1104 1220 1104 1220 1104 1132 c 0,13,14
 1104 1088 1104 1088 1052 1036 c 128,-1,15
 1000 984 1000 984 946 984 c 0,16,17
 854 984 854 984 854 1062 c 0,18,19
 854 1117 854 1117 895 1168.5 c 128,-1,20
 936 1220 936 1220 992 1220 c 0,11,12
EndSplineSet
EndChar

StartChar: copyright
Encoding: 169 169 107
Width: 1819
GlyphClass: 2
Flags: W
LayerCount: 2
Fore
SplineSet
909 831 m 0,0,1
 881 832 881 832 881 860 c 0,2,3
 881 907 881 907 992.5 954 c 128,-1,4
 1104 1001 1104 1001 1104 1036 c 0,5,6
 1104 1076 1104 1076 1073.5 1136 c 128,-1,7
 1043 1196 1043 1196 1006 1196 c 0,8,9
 924 1196 924 1196 850 1152 c 128,-1,10
 776 1108 776 1108 726 1039 c 0,11,12
 618 890 618 890 618 741 c 128,-1,13
 618 592 618 592 681.5 495.5 c 128,-1,14
 745 399 745 399 885 399 c 0,15,16
 1090 399 1090 399 1313 616 c 1,17,-1
 1313 522 l 1,18,19
 1045 266 1045 266 811 266 c 0,20,21
 702 266 702 266 622 322 c 0,22,23
 467 431 467 431 467 664 c 0,24,25
 467 823 467 823 536 961.5 c 128,-1,26
 605 1100 605 1100 734 1186 c 128,-1,27
 863 1272 863 1272 1024 1272 c 0,28,29
 1115 1272 1115 1272 1186 1207.5 c 128,-1,30
 1257 1143 1257 1143 1257 1053 c 0,31,32
 1257 1013 1257 1013 1227.5 993 c 128,-1,33
 1198 973 1198 973 1058.5 902 c 128,-1,34
 919 831 919 831 909 831 c 0,0,1
1585 758 m 1,35,36
 1579 976 1579 976 1469 1149 c 0,37,38
 1294 1425 1294 1425 945 1425 c 0,39,40
 820 1425 820 1425 689.5 1375.5 c 128,-1,41
 559 1326 559 1326 454.5 1238.5 c 128,-1,42
 350 1151 350 1151 285.5 1017.5 c 128,-1,43
 221 884 221 884 221 736.5 c 0,44,45
 221 590 221 590 259 472 c 0,46,47
 328 258 328 258 497.5 147.5 c 128,-1,48
 667 37 667 37 862 37 c 0,49,50
 1002 37 1002 37 1132.5 88.5 c 128,-1,51
 1263 140 1263 140 1363.5 231.5 c 128,-1,52
 1464 323 1464 323 1524.5 460.5 c 128,-1,53
 1585 598 1585 598 1585 758 c 1,35,36
665.5 1470.5 m 128,-1,55
 804 1518 804 1518 953.5 1518 c 128,-1,56
 1103 1518 1103 1518 1225 1476 c 0,57,58
 1451 1397 1451 1397 1579.5 1195.5 c 128,-1,59
 1708 994 1708 994 1708 744.5 c 128,-1,60
 1708 495 1708 495 1566.5 283.5 c 0,61,62
 1426 72 1426 72 1164 -12 c 0,63,64
 1022 -58 1022 -58 884 -57.5 c 128,-1,65
 746 -57 746 -57 643 -30 c 128,-1,66
 540 -3 540 -3 443 57 c 128,-1,67
 346 117 346 117 272.5 204.5 c 128,-1,68
 199 292 199 292 155 422.5 c 128,-1,69
 111 553 111 553 111 689.5 c 128,-1,70
 111 826 111 826 147 940.5 c 128,-1,71
 183 1055 183 1055 255.5 1159 c 128,-1,72
 328 1263 328 1263 427.5 1343 c 128,-1,54
 527 1423 527 1423 665.5 1470.5 c 128,-1,55
EndSplineSet
EndChar

StartChar: ordfeminine
Encoding: 170 170 108
Width: 885
GlyphClass: 2
Flags: W
LayerCount: 2
Fore
SplineSet
168 805 m 0,0,1
 53 805 53 805 53 1022 c 0,2,3
 53 1080 53 1080 93.5 1164 c 128,-1,4
 134 1248 134 1248 201 1313.5 c 128,-1,5
 268 1379 268 1379 361.5 1420.5 c 128,-1,6
 455 1462 455 1462 529 1462 c 128,-1,7
 603 1462 603 1462 680 1438 c 0,8,9
 680 1437 680 1437 657 1335.5 c 128,-1,10
 634 1234 634 1234 615 1138.5 c 128,-1,11
 596 1043 596 1043 596 1006 c 128,-1,12
 596 969 596 969 621 969 c 0,13,14
 671 969 671 969 850 1159 c 1,15,-1
 850 1075 l 1,16,17
 781 1001 781 1001 661.5 903 c 128,-1,18
 542 805 542 805 492 805 c 0,19,20
 434 805 434 805 434 905 c 0,21,22
 434 920 434 920 440 977 c 1,23,24
 388 907 388 907 314.5 856 c 128,-1,25
 241 805 241 805 168 805 c 0,0,1
213 1040 m 0,26,27
 213 926 213 926 289 926 c 0,28,29
 320 926 320 926 367 960 c 128,-1,30
 414 994 414 994 449 1032 c 1,31,-1
 539 1405 l 1,32,33
 457 1405 457 1405 379.5 1346.5 c 128,-1,34
 302 1288 302 1288 257.5 1203.5 c 128,-1,35
 213 1119 213 1119 213 1040 c 0,26,27
EndSplineSet
EndChar

StartChar: guillemotleft
Encoding: 171 171 109
Width: 1122
GlyphClass: 2
Flags: W
LayerCount: 2
Fore
SplineSet
367 438 m 1,0,-1
 459 313 l 1,1,2
 586 157 586 157 586 96 c 0,3,4
 586 72 586 72 565 53.5 c 128,-1,5
 544 35 544 35 501 35 c 128,-1,6
 458 35 458 35 387 123 c 0,7,8
 55 536 55 536 55 616 c 0,9,10
 55 652 55 652 102 703 c 0,11,12
 114 716 114 716 139 743 c 128,-1,13
 164 770 164 770 182 791 c 2,14,-1
 338 965 l 2,15,16
 351 980 351 980 384.5 1023 c 128,-1,17
 418 1066 418 1066 441 1092 c 128,-1,18
 464 1118 464 1118 502.5 1141.5 c 128,-1,19
 541 1165 541 1165 580 1165 c 0,20,21
 635 1165 635 1165 635 1112 c 0,22,23
 635 1092 635 1092 600 1060 c 0,24,25
 445 916 445 916 381 829 c 1,26,-1
 227 649 l 1,27,-1
 367 438 l 1,0,-1
621 649 m 1,28,-1
 831 354 l 1,29,30
 958 198 958 198 958 137 c 0,31,32
 958 113 958 113 937.5 94.5 c 128,-1,33
 917 76 917 76 874 76 c 128,-1,34
 831 76 831 76 760 164 c 0,35,36
 449 543 449 543 449 616 c 0,37,38
 450 652 450 652 498 705 c 0,39,40
 546 758 546 758 575 791 c 2,41,-1
 731 965 l 2,42,43
 745 980 745 980 778 1022.5 c 128,-1,44
 811 1065 811 1065 834.5 1091.5 c 128,-1,45
 858 1118 858 1118 896 1141.5 c 128,-1,46
 934 1165 934 1165 973 1165 c 0,47,48
 1028 1165 1028 1165 1028 1112 c 0,49,50
 1028 1092 1028 1092 993 1060 c 0,51,52
 838 916 838 916 774 829 c 1,53,-1
 621 649 l 1,28,-1
EndSplineSet
EndChar

StartChar: uni00AD
Encoding: 173 173 110
Width: 1038
GlyphClass: 2
Flags: W
LayerCount: 2
Fore
SplineSet
506 821 m 0,0,-1
754 979 m 2,1,-1
 616 981 l 1,2,3
 526 981 526 981 270 963 c 1,4,5
 213 963 213 963 213 1004 c 0,6,7
 213 1074 213 1074 262 1090 c 1,8,9
 288 1097 288 1097 408.5 1106.5 c 128,-1,10
 529 1116 529 1116 645 1116 c 0,11,12
 854 1116 854 1116 854 1075 c 0,13,14
 854 1045 854 1045 823 1012 c 128,-1,15
 792 979 792 979 754 979 c 2,1,-1
EndSplineSet
EndChar

StartChar: registered
Encoding: 174 174 111
Width: 1819
GlyphClass: 2
Flags: W
LayerCount: 2
Fore
SplineSet
553 1008 m 0,0,1
 553 948 553 948 653 909 c 1,2,3
 653 841 653 841 635 795 c 1,4,5
 553 819 553 819 495.5 871 c 128,-1,6
 438 923 438 923 438 991.5 c 128,-1,7
 438 1060 438 1060 476 1110 c 0,8,9
 541 1195 541 1195 686.5 1237.5 c 128,-1,10
 832 1280 832 1280 922 1280 c 128,-1,11
 1012 1280 1012 1280 1079.5 1265 c 128,-1,12
 1147 1250 1147 1250 1211 1220.5 c 128,-1,13
 1275 1191 1275 1191 1316.5 1137.5 c 128,-1,14
 1358 1084 1358 1084 1358 1024 c 128,-1,15
 1358 964 1358 964 1336 920 c 0,16,17
 1297 843 1297 843 1217 805 c 128,-1,18
 1137 767 1137 767 1024 737 c 1,19,20
 1090 680 1090 680 1149 544 c 128,-1,21
 1208 408 1208 408 1221 408 c 0,22,23
 1244 408 1244 408 1298.5 457.5 c 128,-1,24
 1353 507 1353 507 1382 534.5 c 128,-1,25
 1411 562 1411 562 1442 593 c 128,-1,26
 1473 624 1473 624 1479 629 c 1,27,-1
 1479 545 l 1,28,29
 1274 297 1274 297 1159 297 c 0,30,31
 1104 297 1104 297 1056.5 345 c 128,-1,32
 1009 393 1009 393 981.5 452 c 128,-1,33
 954 511 954 511 920.5 586.5 c 128,-1,34
 887 662 887 662 866 692 c 1,35,36
 820 526 820 526 794 480 c 0,37,38
 737 378 737 378 678.5 337.5 c 128,-1,39
 620 297 620 297 536 297 c 128,-1,40
 452 297 452 297 388 342 c 128,-1,41
 324 387 324 387 324 467 c 0,42,43
 324 528 324 528 422 544 c 0,44,45
 444 548 444 548 465 547 c 1,46,-1
 485 545 l 1,47,48
 479 494 479 494 479 485 c 0,49,50
 479 381 479 381 549 381 c 0,51,52
 614 381 614 381 675 571 c 0,53,54
 714 694 714 694 739 835 c 128,-1,55
 764 976 764 976 768 1007 c 128,-1,56
 772 1038 772 1038 778 1064 c 0,57,58
 792 1116 792 1116 889 1116 c 2,59,-1
 938 1116 l 1,60,61
 923 989 923 989 881 772 c 1,62,63
 946 773 946 773 1013.5 801 c 128,-1,64
 1081 829 1081 829 1130.5 884.5 c 128,-1,65
 1180 940 1180 940 1180 1002 c 128,-1,66
 1180 1064 1180 1064 1140 1107 c 0,67,68
 1064 1188 1064 1188 951 1188 c 128,-1,69
 838 1188 838 1188 740 1160 c 0,70,71
 553 1108 553 1108 553 1008 c 0,0,1
1585 758 m 1,72,73
 1579 976 1579 976 1469 1149 c 0,74,75
 1294 1425 1294 1425 945 1425 c 0,76,77
 820 1425 820 1425 689.5 1375.5 c 128,-1,78
 559 1326 559 1326 454.5 1238.5 c 128,-1,79
 350 1151 350 1151 285.5 1017.5 c 128,-1,80
 221 884 221 884 221 736.5 c 0,81,82
 221 590 221 590 259 472 c 0,83,84
 328 258 328 258 497.5 147.5 c 128,-1,85
 667 37 667 37 862 37 c 0,86,87
 1002 37 1002 37 1132.5 88.5 c 128,-1,88
 1263 140 1263 140 1363.5 231.5 c 128,-1,89
 1464 323 1464 323 1524.5 460.5 c 128,-1,90
 1585 598 1585 598 1585 758 c 1,72,73
665.5 1470.5 m 128,-1,92
 804 1518 804 1518 953.5 1518 c 128,-1,93
 1103 1518 1103 1518 1225 1476 c 0,94,95
 1451 1397 1451 1397 1579.5 1195.5 c 128,-1,96
 1708 994 1708 994 1708 744.5 c 128,-1,97
 1708 495 1708 495 1566.5 283.5 c 0,98,99
 1426 72 1426 72 1164 -12 c 0,100,101
 1022 -58 1022 -58 884 -57.5 c 128,-1,102
 746 -57 746 -57 643 -30 c 128,-1,103
 540 -3 540 -3 443 57 c 128,-1,104
 346 117 346 117 272.5 204.5 c 128,-1,105
 199 292 199 292 155 422.5 c 128,-1,106
 111 553 111 553 111 689.5 c 128,-1,107
 111 826 111 826 147 940.5 c 128,-1,108
 183 1055 183 1055 255.5 1159 c 128,-1,109
 328 1263 328 1263 427.5 1343 c 128,-1,91
 527 1423 527 1423 665.5 1470.5 c 128,-1,92
EndSplineSet
EndChar

StartChar: macron
Encoding: 175 175 112
Width: 1038
GlyphClass: 2
Flags: W
LayerCount: 2
Fore
SplineSet
506 821 m 0,0,-1
754 979 m 2,1,-1
 616 981 l 1,2,3
 526 981 526 981 270 963 c 1,4,5
 213 963 213 963 213 1004 c 0,6,7
 213 1074 213 1074 262 1090 c 1,8,9
 288 1097 288 1097 408.5 1106.5 c 128,-1,10
 529 1116 529 1116 645 1116 c 0,11,12
 854 1116 854 1116 854 1075 c 0,13,14
 854 1045 854 1045 823 1012 c 128,-1,15
 792 979 792 979 754 979 c 2,1,-1
EndSplineSet
EndChar

StartChar: degree
Encoding: 176 176 113
Width: 682
GlyphClass: 2
Flags: W
LayerCount: 2
Fore
SplineSet
506 1274 m 0,0,1
 506 1432 506 1432 358 1432 c 0,2,3
 280 1432 280 1432 231 1369.5 c 128,-1,4
 182 1307 182 1307 182 1237 c 0,5,6
 182 1079 182 1079 326 1079 c 0,7,8
 402 1079 402 1079 454 1140.5 c 128,-1,9
 506 1202 506 1202 506 1274 c 0,0,1
556.5 1464 m 128,-1,11
 623 1390 623 1390 623 1267 c 128,-1,12
 623 1144 623 1144 530.5 1058.5 c 128,-1,13
 438 973 438 973 324.5 973 c 128,-1,14
 211 973 211 973 135 1038.5 c 128,-1,15
 59 1104 59 1104 59 1227 c 0,16,17
 58 1401 58 1401 198 1491 c 0,18,19
 270 1538 270 1538 380 1538 c 128,-1,10
 490 1538 490 1538 556.5 1464 c 128,-1,11
EndSplineSet
EndChar

StartChar: plusminus
Encoding: 177 177 114
Width: 1120
GlyphClass: 2
Flags: W
LayerCount: 2
Fore
SplineSet
799 416 m 2,0,-1
 662 418 l 1,1,-1
 584 418 l 1,2,-1
 530 203 l 2,3,4
 526 184 526 184 502 169 c 128,-1,5
 478 154 478 154 439.5 154 c 128,-1,6
 401 154 401 154 401 186 c 0,7,8
 401 204 401 204 406 211 c 1,9,-1
 453 412 l 1,10,-1
 209 399 l 1,11,12
 160 399 160 399 160 426 c 0,13,14
 160 479 160 479 185.5 500.5 c 128,-1,15
 211 522 211 522 229 526 c 1,16,17
 308 539 308 539 483 547 c 1,18,-1
 498 602 l 1,19,20
 504 634 504 634 519 700 c 128,-1,21
 534 766 534 766 541 801 c 0,22,23
 544 815 544 815 578 827.5 c 128,-1,24
 612 840 612 840 641 840 c 0,25,26
 662 840 662 840 662 784 c 128,-1,27
 662 728 662 728 639 631 c 1,28,-1
 618 551 l 1,29,30
 651 553 651 553 719 553 c 0,31,32
 920 553 920 553 920 516 c 0,33,34
 920 487 920 487 878 451.5 c 128,-1,35
 836 416 836 416 799 416 c 2,0,-1
639 -57 m 2,36,-1
 502 -55 l 1,37,38
 424 -55 424 -55 197 -74 c 1,39,40
 139 -74 139 -74 139 -33 c 0,41,42
 139 38 139 38 188 53 c 1,43,44
 218 59 218 59 349 69.5 c 128,-1,45
 480 80 480 80 530 80 c 0,46,47
 739 80 739 80 739 39 c 0,48,49
 739 9 739 9 708 -24 c 128,-1,50
 677 -57 677 -57 639 -57 c 2,36,-1
EndSplineSet
EndChar

StartChar: twosuperior
Encoding: 178 178 115
Width: 817
GlyphClass: 2
Flags: W
LayerCount: 2
Fore
SplineSet
391 -2 m 1,0,-1
 94 -20 l 1,1,2
 47 -20 47 -20 47 6 c 128,-1,3
 47 32 47 32 84 67 c 128,-1,4
 121 102 121 102 192.5 167.5 c 128,-1,5
 264 233 264 233 308 275 c 0,6,7
 604 558 604 558 604 772 c 0,8,9
 604 888 604 888 574 937.5 c 128,-1,10
 544 987 544 987 474 987 c 128,-1,11
 404 987 404 987 329 918 c 0,12,13
 293 885 293 885 269.5 827.5 c 128,-1,14
 246 770 246 770 246 700 c 1,15,16
 275 658 275 658 311.5 641 c 128,-1,17
 348 624 348 624 348 596 c 0,18,19
 348 585 348 585 339 574 c 128,-1,20
 330 563 330 563 310.5 563 c 128,-1,21
 291 563 291 563 202 625.5 c 128,-1,22
 113 688 113 688 113 705 c 0,23,24
 113 871 113 871 211.5 967 c 128,-1,25
 310 1063 310 1063 455 1063 c 0,26,27
 661 1063 661 1063 735 915 c 0,28,29
 766 853 766 853 766 795 c 0,30,31
 766 488 766 488 240 96 c 1,32,33
 274 102 274 102 381 126 c 128,-1,34
 488 150 488 150 557 150 c 0,35,36
 659 150 659 150 659 102 c 0,37,38
 659 70 659 70 639 25 c 128,-1,39
 619 -20 619 -20 594 -20 c 1,40,-1
 391 -2 l 1,0,-1
EndSplineSet
EndChar

StartChar: threesuperior
Encoding: 179 179 116
Width: 842
GlyphClass: 2
Flags: W
LayerCount: 2
Fore
SplineSet
389 489 m 2,0,1
 346 488 346 488 346 526 c 128,-1,2
 346 564 346 564 373 568 c 0,3,4
 382 570 382 570 400 570 c 0,5,6
 502 570 502 570 568.5 671.5 c 0,7,8
 635 772 635 772 635 850 c 0,9,10
 635 1000 635 1000 516 1001 c 0,11,12
 465 1001 465 1001 383 928.5 c 128,-1,13
 301 856 301 856 301 801 c 1,14,15
 309 788 309 788 343 757.5 c 128,-1,16
 377 727 377 727 383 721 c 1,17,18
 383 684 383 684 356 684 c 0,19,20
 338 684 338 684 256 738 c 128,-1,21
 174 792 174 792 174 805 c 0,22,23
 174 900 174 900 274.5 981.5 c 128,-1,24
 375 1063 375 1063 498 1063 c 0,25,26
 793 1063 793 1063 793 850 c 0,27,28
 793 749 793 749 722.5 669 c 128,-1,29
 652 589 652 589 555 549 c 1,30,31
 628 529 628 529 674.5 468 c 128,-1,32
 721 407 721 407 721 321.5 c 128,-1,33
 721 236 721 236 659 152.5 c 128,-1,34
 597 69 597 69 503.5 24.5 c 128,-1,35
 410 -20 410 -20 332.5 -20 c 128,-1,36
 255 -20 255 -20 194.5 -0.5 c 128,-1,37
 134 19 134 19 86.5 63.5 c 128,-1,38
 39 108 39 108 39 159.5 c 128,-1,39
 39 211 39 211 70.5 241.5 c 128,-1,40
 102 272 102 272 137.5 272 c 128,-1,41
 173 272 173 272 187.5 249.5 c 128,-1,42
 202 227 202 227 209 194.5 c 128,-1,43
 216 162 216 162 225 130 c 0,44,45
 247 53 247 53 330.5 53 c 128,-1,46
 414 53 414 53 481.5 148 c 128,-1,47
 549 243 549 243 549 346 c 0,48,49
 549 410 549 410 517 449.5 c 128,-1,50
 485 489 485 489 418 489 c 2,51,-1
 389 489 l 2,0,1
EndSplineSet
EndChar

StartChar: acute
Encoding: 180 180 117
Width: 1706
GlyphClass: 2
Flags: W
LayerCount: 2
Fore
SplineSet
1053 805 m 0,0,-1
1380 1118 m 1,1,2
 1292 1083 l 2,3,4
 1181 1039 1181 1039 895 940 c 1,5,-1
 872 995 l 1,6,7
 960 1076 960 1076 1089 1160.5 c 128,-1,8
 1218 1245 1218 1245 1292 1249 c 1,9,10
 1326 1249 1326 1249 1362.5 1213 c 128,-1,11
 1399 1177 1399 1177 1399 1150 c 0,12,13
 1399 1123 1399 1123 1380 1118 c 1,1,2
EndSplineSet
EndChar

StartChar: mu
Encoding: 181 181 118
Width: 993
GlyphClass: 2
Flags: W
LayerCount: 2
Fore
SplineSet
557 821 m 0,0,-1
627 0 m 0,1,-1
545 195 m 1,2,3
 496 119 496 119 399.5 45 c 128,-1,4
 303 -29 303 -29 225.5 -29 c 128,-1,5
 148 -29 148 -29 104 23 c 1,6,-1
 82 -193 l 1,7,8
 76 -242 76 -242 45.5 -268.5 c 128,-1,9
 15 -295 15 -295 -21 -295 c 128,-1,10
 -57 -295 -57 -295 -78.5 -276.5 c 128,-1,11
 -100 -258 -100 -258 -100 -231.5 c 128,-1,12
 -100 -205 -100 -205 -96 -192.5 c 128,-1,13
 -92 -180 -92 -180 -30.5 4.5 c 128,-1,14
 31 189 31 189 79.5 355.5 c 128,-1,15
 128 522 128 522 217 782 c 1,16,17
 221 807 221 807 379 807 c 2,18,-1
 414 807 l 1,19,20
 414 805 414 805 332 547 c 128,-1,21
 250 289 250 289 250 217 c 128,-1,22
 250 145 250 145 317 145 c 0,23,24
 374 145 374 145 458.5 194 c 128,-1,25
 543 243 543 243 557 272 c 1,26,-1
 666 688 l 2,27,28
 688 773 688 773 721.5 790 c 0,29,30
 756 807 756 807 786 807 c 2,31,-1
 887 807 l 1,32,-1
 854 690 l 1,33,34
 752 316 752 316 737 246 c 1,35,36
 729 170 729 170 729 155 c 128,-1,37
 729 140 729 140 733.5 134.5 c 128,-1,38
 738 129 738 129 756.5 129 c 128,-1,39
 775 129 775 129 835 178 c 256,40,41
 895 227 895 227 1114 438 c 1,42,-1
 1114 326 l 1,43,44
 1090 304 1090 304 1031 248.5 c 0,45,46
 972 192 972 192 941 164 c 0,47,48
 731 -30 731 -30 621 -29 c 0,49,50
 535 -29 535 -29 535 102 c 0,51,52
 535 137 535 137 545 195 c 1,2,3
EndSplineSet
EndChar

StartChar: paragraph
Encoding: 182 182 119
Width: 1217
GlyphClass: 2
Flags: W
LayerCount: 2
Fore
SplineSet
479 -29 m 1,0,1
 504 98 504 98 637 659.5 c 128,-1,2
 770 1221 770 1221 823 1391 c 1,3,4
 783 1389 783 1389 705 1376 c 1,5,6
 646 1141 646 1141 354 -29 c 1,7,-1
 186 -29 l 1,8,9
 211 87 211 87 375 760 c 1,10,11
 248 781 248 781 169 865 c 128,-1,12
 90 949 90 949 90 1052 c 0,13,14
 90 1252 90 1252 286.5 1385 c 128,-1,15
 483 1518 483 1518 881 1518 c 0,16,17
 1049 1518 1049 1518 1192 1507 c 1,18,-1
 1155 1391 l 1,19,20
 1096 1393 1096 1393 922 1393 c 1,21,22
 950 1383 950 1383 964.5 1371.5 c 128,-1,23
 979 1360 979 1360 979 1339 c 1,24,-1
 805 614 l 1,25,26
 744 402 744 402 643 -29 c 1,27,-1
 479 -29 l 1,0,1
EndSplineSet
EndChar

StartChar: periodcentered
Encoding: 183 183 120
Width: 422
GlyphClass: 2
Flags: W
LayerCount: 2
Fore
SplineSet
216 805 m 0,0,1
 328 804 328 804 328 716 c 0,2,3
 328 672 328 672 276 620.5 c 128,-1,4
 224 569 224 569 170 569 c 0,5,6
 78 569 78 569 78 647 c 0,7,8
 78 702 78 702 119 753.5 c 128,-1,9
 160 805 160 805 216 805 c 0,0,1
EndSplineSet
EndChar

StartChar: cedilla
Encoding: 184 184 121
Width: 709
GlyphClass: 2
Flags: W
LayerCount: 2
Fore
SplineSet
360 0 m 0,0,-1
299 -174 m 1,1,2
 221 -151 221 -151 221 -85 c 0,3,4
 221 -54 221 -54 258 -27 c 128,-1,5
 295 0 295 0 360 0 c 0,6,7
 465 0 465 0 465 -117 c 0,8,9
 465 -196 465 -196 425 -290 c 0,10,11
 349 -467 349 -467 231 -492 c 1,12,-1
 215 -430 l 1,13,14
 299 -337 299 -337 299 -174 c 1,1,2
EndSplineSet
EndChar

StartChar: onesuperior
Encoding: 185 185 122
Width: 502
GlyphClass: 2
Flags: W
LayerCount: 2
Fore
SplineSet
61 834 m 0,0,1
 291 982 291 982 369.5 1022.5 c 128,-1,2
 448 1063 448 1063 457 1063 c 0,3,4
 473 1063 473 1063 473 1036 c 2,5,-1
 473 1016 l 1,6,-1
 279 156 l 2,7,8
 278 150 278 150 276 136 c 0,9,10
 261 0 261 0 229 0 c 2,11,-1
 88 0 l 2,12,13
 70 0 70 0 70 33 c 128,-1,14
 70 66 70 66 87 144.5 c 128,-1,15
 104 223 104 223 142.5 365.5 c 128,-1,16
 181 508 181 508 195.5 564.5 c 128,-1,17
 210 621 210 621 236.5 724 c 128,-1,18
 263 827 263 827 274 870.5 c 128,-1,19
 285 914 285 914 287 920 c 1,20,21
 227 871 227 871 145.5 815.5 c 128,-1,22
 64 760 64 760 37 760 c 1,23,24
 18 765 18 765 18 785.5 c 128,-1,25
 18 806 18 806 61 834 c 0,0,1
EndSplineSet
EndChar

StartChar: ordmasculine
Encoding: 186 186 123
Width: 838
GlyphClass: 2
Flags: W
LayerCount: 2
Fore
SplineSet
670 1208 m 0,0,1
 670 1106 670 1106 600 1018 c 1,2,3
 620 1010 620 1010 633 1010 c 128,-1,4
 646 1010 646 1010 669 1020 c 128,-1,5
 692 1030 692 1030 815 1161 c 1,6,-1
 815 1075 l 1,7,8
 768 1028 768 1028 747 1009 c 0,9,10
 686 954 686 954 640.5 954 c 128,-1,11
 595 954 595 954 567 965 c 1,12,13
 511 893 511 893 430.5 848 c 128,-1,14
 350 803 350 803 272 803 c 0,15,16
 194 804 194 804 145 844 c 0,17,18
 57 917 57 917 57 1065 c 0,19,20
 57 1249 57 1249 188 1355.5 c 128,-1,21
 319 1462 319 1462 537 1462 c 0,22,23
 552 1462 552 1462 555 1454 c 1,24,25
 555 1431 555 1431 537 1419 c 1,26,27
 390 1419 390 1419 311.5 1337 c 128,-1,28
 233 1255 233 1255 233 1151 c 128,-1,29
 233 1047 233 1047 278 986.5 c 128,-1,30
 323 926 323 926 389.5 926 c 128,-1,31
 456 926 456 926 514 993 c 1,32,33
 456 1030 456 1030 425.5 1088 c 128,-1,34
 395 1146 395 1146 395 1206.5 c 128,-1,35
 395 1267 395 1267 431 1304 c 128,-1,36
 467 1341 467 1341 536.5 1341 c 128,-1,37
 606 1341 606 1341 638 1304.5 c 128,-1,38
 670 1268 670 1268 670 1208 c 0,0,1
596 1200 m 0,39,40
 596 1270 596 1270 534.5 1270 c 128,-1,41
 473 1270 473 1270 473 1193 c 0,42,43
 473 1158 473 1158 494 1116.5 c 128,-1,44
 515 1075 515 1075 551 1049 c 1,45,46
 566 1073 566 1073 581 1118.5 c 128,-1,47
 596 1164 596 1164 596 1200 c 0,39,40
EndSplineSet
EndChar

StartChar: guillemotright
Encoding: 187 187 124
Width: 1544
GlyphClass: 2
Flags: W
LayerCount: 2
Fore
SplineSet
827 1176 m 1,0,1
 827 1196 827 1196 883 1196 c 128,-1,2
 939 1196 939 1196 999 1108 c 1,3,4
 1297 693 1297 693 1290 614 c 0,5,6
 1287 587 1287 587 1260.5 562.5 c 128,-1,7
 1234 538 1234 538 1212.5 517.5 c 128,-1,8
 1191 497 1191 497 1174 481 c 2,9,-1
 1001 307 l 2,10,11
 988 293 988 293 950.5 249 c 128,-1,12
 913 205 913 205 888 179.5 c 128,-1,13
 863 154 863 154 822.5 130 c 128,-1,14
 782 106 782 106 752 106 c 0,15,16
 691 106 691 106 692 160 c 0,17,18
 694 185 694 185 754 233 c 0,19,20
 882 334 882 334 971 442 c 1,21,-1
 1139 623 l 1,22,-1
 1018 834 l 1,23,-1
 936 958 l 1,24,25
 822 1116 822 1116 827 1176 c 1,0,1
735 653 m 1,26,-1
 549 948 l 1,27,28
 435 1105 435 1105 440 1165 c 1,29,30
 440 1186 440 1186 494 1186 c 128,-1,31
 548 1186 548 1186 612 1098 c 0,32,33
 892 718 892 718 885 645 c 0,34,35
 882 619 882 619 856.5 594.5 c 128,-1,36
 831 570 831 570 807.5 548.5 c 128,-1,37
 784 527 784 527 768 512 c 2,38,-1
 598 338 l 2,39,40
 583 323 583 323 545.5 279.5 c 128,-1,41
 508 236 508 236 483 210 c 128,-1,42
 458 184 458 184 417.5 160.5 c 128,-1,43
 377 137 377 137 338 137 c 0,44,45
 284 137 284 137 289 190 c 0,46,47
 290 209 290 209 327 242 c 128,-1,48
 364 275 364 275 435.5 338.5 c 128,-1,49
 507 402 507 402 565 473 c 1,50,-1
 735 653 l 1,26,-1
EndSplineSet
EndChar

StartChar: onequarter
Encoding: 188 188 125
Width: 1630
GlyphClass: 2
Flags: W
LayerCount: 2
Fore
SplineSet
244 49 m 1,0,1
 854 1210 854 1210 923 1334 c 128,-1,2
 992 1458 992 1458 998.5 1470.5 c 128,-1,3
 1005 1483 1005 1483 1019 1506 c 128,-1,4
 1033 1529 1033 1529 1059.5 1554 c 128,-1,5
 1086 1579 1086 1579 1176 1579 c 0,6,7
 1184 1579 1184 1579 1190 1569 c 128,-1,8
 1196 1559 1196 1559 1196 1546.5 c 128,-1,9
 1196 1534 1196 1534 1190 1513 c 1,10,-1
 350 39 l 1,11,12
 317 -27 317 -27 284 -72.5 c 128,-1,13
 251 -118 251 -118 233 -129.5 c 128,-1,14
 215 -141 215 -141 197 -141 c 0,15,16
 172 -141 172 -141 172 -117 c 0,17,18
 172 -69 172 -69 244 49 c 1,0,1
1120 203 m 1,19,-1
 921 238 l 1,20,21
 863 207 863 207 839 207 c 128,-1,22
 815 207 815 207 800 211.5 c 128,-1,23
 785 216 785 216 767 233.5 c 128,-1,24
 749 251 749 251 749 275 c 128,-1,25
 749 299 749 299 760 315 c 128,-1,26
 771 331 771 331 809 342 c 1,27,-1
 885 371 l 1,28,-1
 1091 846 l 1,29,30
 1137 978 1137 978 1153 997 c 0,31,32
 1192 1043 1192 1043 1223.5 1053 c 128,-1,33
 1255 1063 1255 1063 1294.5 1063 c 128,-1,34
 1334 1063 1334 1063 1341 1049 c 1,35,36
 1239 819 1239 819 1018 346 c 1,37,38
 1084 325 1084 325 1161 311 c 1,39,40
 1233 491 1233 491 1263 567 c 1,41,42
 1276 586 1276 586 1337 586 c 2,43,-1
 1401 586 l 1,44,45
 1393 548 1393 548 1294 299 c 1,46,47
 1385 299 1385 299 1440 330 c 1,48,49
 1449 332 1449 332 1494.5 360 c 128,-1,50
 1540 388 1540 388 1573 416 c 1,51,-1
 1607 356 l 1,52,53
 1566 327 1566 327 1520 287 c 0,54,55
 1474 246 1474 246 1452 230 c 0,56,57
 1397 188 1397 188 1296 188 c 0,58,59
 1268 188 1268 188 1251 190 c 1,60,-1
 1200 68 l 1,61,62
 1180 0 1180 0 1161 0 c 2,63,-1
 1052 0 l 1,64,-1
 1048 14 l 1,65,66
 1096 145 1096 145 1120 203 c 1,19,-1
96 1307 m 0,67,68
 326 1455 326 1455 404.5 1495.5 c 128,-1,69
 483 1536 483 1536 492 1536 c 0,70,71
 508 1536 508 1536 508 1509 c 2,72,-1
 508 1489 l 1,73,-1
 314 629 l 2,74,75
 314 624 314 624 312 610 c 0,76,77
 297 473 297 473 264 473 c 2,78,-1
 123 473 l 2,79,80
 105 473 105 473 105 506 c 128,-1,81
 105 539 105 539 122 617.5 c 128,-1,82
 139 696 139 696 177.5 838.5 c 128,-1,83
 216 981 216 981 230.5 1037.5 c 128,-1,84
 245 1094 245 1094 271.5 1197 c 128,-1,85
 298 1300 298 1300 309 1343.5 c 128,-1,86
 320 1387 320 1387 322 1393 c 1,87,88
 262 1344 262 1344 180.5 1288.5 c 128,-1,89
 99 1233 99 1233 72 1233 c 1,90,91
 53 1238 53 1238 53 1258.5 c 128,-1,92
 53 1279 53 1279 96 1307 c 0,67,68
EndSplineSet
EndChar

StartChar: onehalf
Encoding: 189 189 126
Width: 1640
GlyphClass: 2
Flags: W
LayerCount: 2
Fore
SplineSet
891 1319 m 0,0,1
 933 1394 933 1394 950 1426 c 0,2,3
 1001 1520 1001 1520 1031.5 1549.5 c 128,-1,4
 1062 1579 1062 1579 1151 1579 c 0,5,6
 1159 1579 1159 1579 1165 1569 c 128,-1,7
 1171 1559 1171 1559 1171 1546.5 c 128,-1,8
 1171 1534 1171 1534 1165 1513 c 1,9,-1
 326 39 l 1,10,11
 291 -30 291 -30 258.5 -74 c 128,-1,12
 226 -118 226 -118 208 -129.5 c 128,-1,13
 190 -141 190 -141 172 -141 c 0,14,15
 147 -141 147 -141 147 -108 c 128,-1,16
 147 -75 147 -75 179 -20.5 c 128,-1,17
 211 34 211 34 530 638.5 c 128,-1,18
 849 1243 849 1243 891 1319 c 0,0,1
1229 -2 m 1,19,-1
 932 -20 l 1,20,21
 885 -20 885 -20 885 6 c 128,-1,22
 885 32 885 32 922 67 c 128,-1,23
 959 102 959 102 1030.5 167.5 c 128,-1,24
 1102 233 1102 233 1146 275 c 0,25,26
 1442 558 1442 558 1442 772 c 0,27,28
 1442 888 1442 888 1412 937.5 c 128,-1,29
 1382 987 1382 987 1312 987 c 128,-1,30
 1242 987 1242 987 1167 918 c 0,31,32
 1131 885 1131 885 1107.5 827.5 c 128,-1,33
 1084 770 1084 770 1084 700 c 1,34,35
 1113 658 1113 658 1149.5 641 c 128,-1,36
 1186 624 1186 624 1186 596 c 0,37,38
 1186 585 1186 585 1177 574 c 128,-1,39
 1168 563 1168 563 1148.5 563 c 128,-1,40
 1129 563 1129 563 1040 625.5 c 128,-1,41
 951 688 951 688 951 705 c 0,42,43
 951 871 951 871 1049.5 967 c 128,-1,44
 1148 1063 1148 1063 1293 1063 c 0,45,46
 1499 1063 1499 1063 1573 915 c 0,47,48
 1604 853 1604 853 1604 795 c 0,49,50
 1604 488 1604 488 1078 96 c 1,51,52
 1112 102 1112 102 1219 126 c 128,-1,53
 1326 150 1326 150 1395 150 c 0,54,55
 1497 150 1497 150 1497 102 c 0,56,57
 1497 70 1497 70 1477 25 c 128,-1,58
 1457 -20 1457 -20 1432 -20 c 1,59,-1
 1229 -2 l 1,19,-1
98 1307 m 0,60,61
 328 1455 328 1455 406.5 1495.5 c 128,-1,62
 485 1536 485 1536 494 1536 c 0,63,64
 510 1536 510 1536 510 1509 c 2,65,-1
 510 1489 l 1,66,-1
 316 629 l 2,67,68
 316 624 316 624 314 610 c 0,69,70
 299 473 299 473 266 473 c 2,71,-1
 125 473 l 2,72,73
 107 473 107 473 107 506 c 128,-1,74
 107 539 107 539 124 617.5 c 128,-1,75
 141 696 141 696 179.5 838.5 c 128,-1,76
 218 981 218 981 232.5 1037.5 c 128,-1,77
 247 1094 247 1094 273.5 1197 c 128,-1,78
 300 1300 300 1300 311 1343.5 c 128,-1,79
 322 1387 322 1387 324 1393 c 1,80,81
 264 1344 264 1344 182.5 1288.5 c 128,-1,82
 101 1233 101 1233 74 1233 c 1,83,84
 55 1238 55 1238 55 1258.5 c 128,-1,85
 55 1279 55 1279 98 1307 c 0,60,61
EndSplineSet
EndChar

StartChar: threequarters
Encoding: 190 190 127
Width: 1833
GlyphClass: 2
Flags: W
LayerCount: 2
Fore
SplineSet
1279.5 1502 m 128,-1,1
 1296 1530 1296 1530 1322.5 1554.5 c 128,-1,2
 1349 1579 1349 1579 1438 1579 c 0,3,4
 1446 1579 1446 1579 1452 1569 c 128,-1,5
 1458 1559 1458 1559 1458 1546.5 c 128,-1,6
 1458 1534 1458 1534 1452 1513 c 1,7,-1
 612 39 l 1,8,9
 567 -51 567 -51 546 -76 c 128,-1,10
 525 -101 525 -101 505.5 -121 c 128,-1,11
 486 -141 486 -141 460 -141 c 128,-1,12
 434 -141 434 -141 434 -117 c 0,13,14
 434 -75 434 -75 466 -20 c 128,-1,15
 498 35 498 35 734 483 c 128,-1,16
 970 931 970 931 1116.5 1202.5 c 128,-1,0
 1263 1474 1263 1474 1279.5 1502 c 128,-1,1
1317 203 m 1,17,-1
 1118 238 l 1,18,19
 1060 207 1060 207 1036 207 c 128,-1,20
 1012 207 1012 207 997 211.5 c 128,-1,21
 982 216 982 216 964 233.5 c 128,-1,22
 946 251 946 251 946 275 c 128,-1,23
 946 299 946 299 957 315 c 128,-1,24
 968 331 968 331 1006 342 c 1,25,-1
 1082 371 l 1,26,-1
 1288 846 l 1,27,28
 1334 978 1334 978 1350 997 c 0,29,30
 1389 1043 1389 1043 1420.5 1053 c 128,-1,31
 1452 1063 1452 1063 1491.5 1063 c 128,-1,32
 1531 1063 1531 1063 1538 1049 c 1,33,34
 1436 819 1436 819 1215 346 c 1,35,36
 1281 325 1281 325 1358 311 c 1,37,38
 1430 491 1430 491 1460 567 c 1,39,40
 1473 586 1473 586 1534 586 c 2,41,-1
 1598 586 l 1,42,43
 1590 548 1590 548 1491 299 c 1,44,45
 1582 299 1582 299 1637 330 c 1,46,47
 1646 332 1646 332 1691.5 360 c 128,-1,48
 1737 388 1737 388 1770 416 c 1,49,-1
 1804 356 l 1,50,51
 1763 327 1763 327 1717 287 c 0,52,53
 1672 246 1672 246 1650 230 c 0,54,55
 1595 188 1595 188 1493 188 c 0,56,57
 1465 188 1465 188 1448 190 c 1,58,-1
 1397 68 l 1,59,60
 1377 0 1377 0 1358 0 c 2,61,-1
 1249 0 l 1,62,-1
 1245 14 l 1,63,64
 1293 145 1293 145 1317 203 c 1,17,-1
389 962 m 2,65,66
 346 962 346 962 346 999.5 c 0,67,68
 346 1038 346 1038 373 1042 c 0,69,70
 382 1044 382 1044 400 1043 c 0,71,72
 502 1043 502 1043 568.5 1144.5 c 128,-1,73
 635 1246 635 1246 635 1324 c 0,74,75
 635 1474 635 1474 516 1474 c 0,76,77
 465 1474 465 1474 383 1401.5 c 128,-1,78
 301 1329 301 1329 301 1274 c 1,79,80
 309 1261 309 1261 343 1230.5 c 128,-1,81
 377 1200 377 1200 383 1194 c 1,82,83
 383 1157 383 1157 356 1157 c 0,84,85
 338 1157 338 1157 256 1211 c 128,-1,86
 174 1265 174 1265 174 1278 c 0,87,88
 174 1373 174 1373 274.5 1454.5 c 128,-1,89
 375 1536 375 1536 498 1536 c 0,90,91
 793 1536 793 1536 793 1323 c 0,92,93
 793 1222 793 1222 722.5 1142 c 128,-1,94
 652 1062 652 1062 555 1022 c 1,95,96
 628 1002 628 1002 674.5 941 c 128,-1,97
 721 880 721 880 721 794.5 c 128,-1,98
 721 709 721 709 659 625.5 c 128,-1,99
 597 542 597 542 503.5 497.5 c 128,-1,100
 410 453 410 453 332.5 453 c 128,-1,101
 255 453 255 453 194.5 472.5 c 128,-1,102
 134 492 134 492 86.5 536.5 c 128,-1,103
 39 581 39 581 39 632.5 c 128,-1,104
 39 684 39 684 70.5 714.5 c 128,-1,105
 102 745 102 745 137.5 745 c 128,-1,106
 173 745 173 745 187.5 722.5 c 128,-1,107
 202 700 202 700 209 668 c 128,-1,108
 216 636 216 636 225 604 c 0,109,110
 246 526 246 526 330 526 c 128,-1,111
 414 526 414 526 481.5 621 c 128,-1,112
 549 716 549 716 549 819 c 0,113,114
 549 883 549 883 517 922.5 c 128,-1,115
 485 962 485 962 418 962 c 2,116,-1
 389 962 l 2,65,66
EndSplineSet
EndChar

StartChar: AE
Encoding: 198 198 135
Width: 1878
GlyphClass: 2
Flags: W
LayerCount: 2
Fore
SplineSet
1092 240 m 1,0,-1
 1149 238 l 2,1,2
 1174 238 1174 238 1186 240 c 1,3,4
 1193 238 1193 238 1349 178.5 c 128,-1,5
 1505 119 1505 119 1554 119 c 0,6,7
 1648 119 1648 119 1842 287 c 0,8,9
 1916 351 1916 351 1999 438 c 1,10,-1
 1999 328 l 1,11,12
 1968 300 1968 300 1911 248.5 c 128,-1,13
 1854 197 1854 197 1827 173 c 0,14,15
 1640 7 1640 7 1509 -35 c 0,16,17
 1442 -57 1442 -57 1368 -57 c 0,18,19
 1363 -57 1363 -57 1349 -49 c 0,20,21
 1252 7 1252 7 918 109 c 1,22,-1
 897 195 l 1,23,24
 784 83 784 83 654 13 c 128,-1,25
 524 -57 524 -57 422 -57 c 0,26,27
 244 -57 244 -57 162 39.5 c 128,-1,28
 80 136 80 136 80 328 c 0,29,30
 80 610 80 610 262.5 885 c 128,-1,31
 445 1160 445 1160 755.5 1339 c 128,-1,32
 1066 1518 1066 1518 1423 1518 c 0,33,34
 2044 1518 2044 1518 2044 1491 c 0,35,36
 2044 1479 2044 1479 2025 1460 c 1,37,-1
 1925 1346 l 1,38,39
 1873 1311 1873 1311 1820.5 1311 c 128,-1,40
 1768 1311 1768 1311 1633.5 1332 c 128,-1,41
 1499 1353 1499 1353 1438 1356 c 1,42,43
 1430 1329 1430 1329 1376 1121 c 128,-1,44
 1322 913 1322 913 1284 795 c 1,45,46
 1414 805 1414 805 1522 805 c 128,-1,47
 1630 805 1630 805 1747 799 c 1,48,49
 1784 799 1784 799 1784 767.5 c 128,-1,50
 1784 736 1784 736 1752.5 703 c 128,-1,51
 1721 670 1721 670 1683 670 c 0,52,53
 1389 670 1389 670 1249 659 c 1,54,-1
 1249 657 l 1,55,56
 1196 464 1196 464 1059 238 c 1,57,-1
 1092 240 l 1,0,-1
989 631 m 1,58,59
 898 619 898 619 799 594 c 1,60,61
 750 594 750 594 750 637 c 0,62,63
 750 645 750 645 751 651 c 0,64,65
 759 695 759 695 833 718 c 0,66,67
 861 727 861 727 1026 760 c 1,68,69
 1141 1165 1141 1165 1212 1262 c 0,70,71
 1249 1314 1249 1314 1317 1360 c 1,72,-1
 1358 1421 l 1,73,74
 1128 1419 1128 1419 889 1268.5 c 128,-1,75
 650 1118 650 1118 494 895.5 c 128,-1,76
 338 673 338 673 338 463 c 0,77,78
 338 304 338 304 414.5 219.5 c 128,-1,79
 491 135 491 135 625 135 c 0,80,81
 684 135 684 135 754.5 175 c 128,-1,82
 825 215 825 215 877 276 c 1,83,-1
 877 279 l 1,84,85
 902 317 902 317 989 631 c 1,58,59
EndSplineSet
EndChar

StartChar: Eth
Encoding: 208 208 145
Width: 1780
GlyphClass: 2
Flags: W
LayerCount: 2
Fore
SplineSet
152 326 m 1,0,-1
 145 221 l 1,1,2
 145 139 145 139 170.5 90 c 128,-1,3
 196 41 196 41 264 41 c 0,4,5
 303 41 303 41 339 67.5 c 128,-1,6
 375 94 375 94 397 143 c 1,7,8
 460 272 460 272 522 510 c 1,9,-1
 438 504 l 1,10,11
 381 504 381 504 381 545 c 0,12,13
 381 618 381 618 430 631 c 1,14,15
 453 639 453 639 553 645 c 1,16,-1
 662 1208 l 1,17,18
 675 1247 675 1247 791 1247 c 2,19,-1
 885 1247 l 1,20,21
 877 1200 877 1200 847.5 988 c 128,-1,22
 818 776 818 776 791 657 c 1,23,-1
 813 657 l 2,24,25
 1022 657 1022 657 1022 616 c 0,26,27
 1022 586 1022 586 990.5 553 c 128,-1,28
 959 520 959 520 922 520 c 2,29,-1
 784 522 l 1,30,-1
 756 522 l 1,31,32
 717 391 717 391 655 264 c 1,33,34
 684 176 684 176 768 117.5 c 128,-1,35
 852 59 852 59 941.5 59 c 128,-1,36
 1031 59 1031 59 1117.5 109.5 c 128,-1,37
 1204 160 1204 160 1272.5 248 c 128,-1,38
 1341 336 1341 336 1383 468 c 128,-1,39
 1425 600 1425 600 1425 728.5 c 0,40,41
 1424 857 1424 857 1404 950 c 0,42,43
 1361 1147 1361 1147 1221.5 1270 c 128,-1,44
 1082 1393 1082 1393 840 1393 c 0,45,46
 695 1393 695 1393 551.5 1335 c 128,-1,47
 408 1277 408 1277 318.5 1188 c 128,-1,48
 229 1099 229 1099 229 1014 c 0,49,50
 229 897 229 897 393 834 c 1,51,52
 393 788 393 788 384 737.5 c 128,-1,53
 375 687 375 687 367 672 c 1,54,55
 218 719 218 719 143 806.5 c 128,-1,56
 68 894 68 894 68 984 c 0,57,58
 68 1251 68 1251 391 1410 c 0,59,60
 610 1518 610 1518 971 1518 c 0,61,62
 1116 1518 1116 1518 1236 1476 c 0,63,64
 1453 1400 1453 1400 1568 1217 c 128,-1,65
 1683 1034 1683 1034 1683 841.5 c 128,-1,66
 1683 649 1683 649 1626.5 485.5 c 128,-1,67
 1570 322 1570 322 1473.5 203 c 128,-1,68
 1377 84 1377 84 1240.5 13.5 c 128,-1,69
 1104 -57 1104 -57 950 -57 c 0,70,71
 722 -57 722 -57 584 133 c 1,72,73
 506 21 506 21 416 -17 c 128,-1,74
 326 -55 326 -55 211 -55 c 128,-1,75
 96 -55 96 -55 21.5 20.5 c 128,-1,76
 -53 96 -53 96 -53 184 c 0,77,78
 -53 326 -53 326 152 326 c 1,0,-1
EndSplineSet
EndChar

StartChar: multiply
Encoding: 215 215 152
Width: 1120
GlyphClass: 2
Flags: W
LayerCount: 2
Fore
SplineSet
659 674 m 1,0,1
 882 481 882 481 846 442 c 1,2,3
 780 376 780 376 733 422 c 0,4,5
 716 439 716 439 680.5 471.5 c 128,-1,6
 645 504 645 504 629 520 c 1,7,-1
 571 573 l 1,8,-1
 420 393 l 1,9,10
 390 363 390 363 374.5 367.5 c 128,-1,11
 359 372 359 372 350 381 c 0,12,13
 293 433 293 433 309 463 c 1,14,15
 335 504 335 504 471 664 c 1,16,17
 452 682 452 682 371 753.5 c 0,18,19
 290 824 290 824 285 830 c 0,20,21
 256 862 256 862 283 889 c 1,22,23
 328 939 328 939 377 918 c 1,24,25
 446 866 446 866 561 764 c 1,26,-1
 635 846 l 1,27,28
 779 997 779 997 805 973 c 128,-1,29
 831 949 831 949 833.5 904.5 c 128,-1,30
 836 860 836 860 811 831 c 1,31,-1
 659 674 l 1,0,1
EndSplineSet
EndChar

StartChar: Oslash
Encoding: 216 216 153
Width: 1653
GlyphClass: 2
Flags: W
LayerCount: 2
Fore
SplineSet
241 -162 m 0,0,1
 209 -162 209 -162 209 -141.5 c 128,-1,2
 209 -121 209 -121 242 -80.5 c 128,-1,3
 275 -40 275 -40 286.5 -22.5 c 128,-1,4
 298 -5 298 -5 347 58 c 1,5,6
 100 243 100 243 100 664 c 0,7,8
 100 912 100 912 264.5 1142.5 c 0,9,10
 429 1372 429 1372 696 1466 c 0,11,12
 843 1518 843 1518 1006 1518 c 0,13,14
 1067 1518 1067 1518 1143 1505 c 1,15,-1
 1139 1403 l 1,16,17
 1092 1411 1092 1411 1002.5 1411 c 0,18,19
 912 1410 912 1410 798 1370 c 0,20,21
 588 1296 588 1296 458 1116.5 c 128,-1,22
 328 937 328 937 328 748 c 0,23,24
 328 433 328 433 515 274 c 1,25,-1
 892 756 l 1,26,27
 858 833 858 833 858 926 c 0,28,29
 858 1059 858 1059 949 1149 c 128,-1,30
 1040 1239 1040 1239 1217 1239 c 0,31,32
 1245 1239 1245 1239 1268 1235 c 1,33,-1
 1393 1393 l 2,34,35
 1415 1420 1415 1420 1446 1461 c 128,-1,36
 1477 1502 1477 1502 1496 1519 c 128,-1,37
 1515 1536 1515 1536 1533 1536 c 128,-1,38
 1551 1536 1551 1536 1558.5 1536.5 c 128,-1,39
 1566 1537 1566 1537 1576 1536 c 128,-1,40
 1586 1535 1586 1535 1594 1529.5 c 128,-1,41
 1602 1524 1602 1524 1602 1508 c 128,-1,42
 1602 1492 1602 1492 1591 1477 c 2,43,-1
 1374 1198 l 1,44,45
 1468 1146 1468 1146 1526.5 1037.5 c 128,-1,46
 1585 929 1585 929 1585 768 c 0,47,48
 1585 699 1585 699 1573 637 c 1,49,50
 1710 658 1710 658 1853 743 c 1,51,-1
 1853 651 l 1,52,53
 1718 545 1718 545 1540 510 c 1,54,55
 1479 342 1479 342 1345.5 211 c 128,-1,56
 1212 80 1212 80 1047 11.5 c 128,-1,57
 882 -57 882 -57 724 -57 c 128,-1,58
 566 -57 566 -57 443 1 c 1,59,-1
 401 -53 l 1,60,61
 322 -162 322 -162 241 -162 c 0,0,1
1382 496 m 2,62,63
 1252 496 1252 496 1139.5 538 c 128,-1,64
 1027 580 1027 580 955 660 c 1,65,-1
 608 213 l 1,66,67
 714 160 714 160 842 160 c 0,68,69
 1031 160 1031 160 1173 253.5 c 128,-1,70
 1315 347 1315 347 1395 496 c 1,71,-1
 1382 496 l 2,62,63
1030 999 m 0,72,73
 1030 840 1030 840 1148 735 c 128,-1,74
 1266 630 1266 630 1448 627 c 1,75,76
 1475 712 1475 712 1475 799 c 0,77,78
 1475 942 1475 942 1401.5 1034 c 128,-1,79
 1328 1126 1328 1126 1190 1126 c 0,80,81
 1109 1126 1109 1126 1069.5 1092 c 128,-1,82
 1030 1058 1030 1058 1030 999 c 0,72,73
EndSplineSet
EndChar

StartChar: Thorn
Encoding: 222 222 159
Width: 1554
GlyphClass: 2
Flags: W
LayerCount: 2
Fore
SplineSet
63 176 m 1,0,-1
 61 66 l 1,1,2
 61 -82 61 -82 178 -82 c 0,3,4
 348 -82 348 -82 451 358 c 0,5,6
 462 404 462 404 502 614 c 2,7,-1
 649 1403 l 2,8,9
 654 1432 654 1432 708.5 1447 c 128,-1,10
 763 1462 763 1462 801 1462 c 2,11,-1
 877 1462 l 1,12,-1
 844 1266 l 1,13,14
 870 1268 870 1268 922 1268 c 0,15,16
 1078 1268 1078 1268 1201 1233 c 128,-1,17
 1324 1198 1324 1198 1398 1138 c 0,18,19
 1548 1017 1548 1017 1548 842 c 0,20,21
 1548 666 1548 666 1382 524 c 0,22,23
 1303 456 1303 456 1178.5 414.5 c 128,-1,24
 1054 373 1054 373 925.5 373 c 128,-1,25
 797 373 797 373 674 397 c 1,26,27
 581 23 581 23 387 -109 c 0,28,29
 282 -180 282 -180 161 -180 c 128,-1,30
 40 -180 40 -180 -46.5 -119 c 128,-1,31
 -133 -58 -133 -58 -133 53 c 0,32,33
 -133 176 -133 176 63 176 c 1,0,-1
1094.5 1116.5 m 128,-1,35
 996 1145 996 1145 918 1145 c 128,-1,36
 840 1145 840 1145 821 1143 c 1,37,38
 727 646 727 646 694 506 c 1,39,40
 772 496 772 496 864 496 c 0,41,42
 1115 496 1115 496 1249.5 588.5 c 128,-1,43
 1384 681 1384 681 1384 811 c 0,44,45
 1384 940 1384 940 1255 1040 c 0,46,34
 1193 1088 1193 1088 1094.5 1116.5 c 128,-1,35
EndSplineSet
EndChar

StartChar: germandbls
Encoding: 223 223 160
Width: 983
GlyphClass: 2
Flags: W
LayerCount: 2
Fore
SplineSet
283 43 m 1,0,1
 332 156 l 1,2,3
 418 88 418 88 519.5 88 c 128,-1,4
 621 88 621 88 671 157 c 128,-1,5
 721 226 721 226 721 320.5 c 128,-1,6
 721 415 721 415 692.5 498 c 128,-1,7
 664 581 664 581 606 651.5 c 128,-1,8
 548 722 548 722 471 756 c 1,9,-1
 471 872 l 1,10,11
 560 872 560 872 633.5 905.5 c 128,-1,12
 707 939 707 939 751 992 c 0,13,14
 842 1102 842 1102 842 1225 c 0,15,16
 842 1299 842 1299 810 1347 c 128,-1,17
 778 1395 778 1395 731 1395 c 128,-1,18
 684 1395 684 1395 648 1378 c 0,19,20
 570 1341 570 1341 501.5 1222 c 128,-1,21
 433 1103 433 1103 395 889 c 1,22,23
 387 830 387 830 289 379 c 128,-1,24
 191 -72 191 -72 162 -184 c 1,25,-1
 -45 -184 l 1,26,27
 -47 -176 -47 -176 -47 -133 c 128,-1,28
 -47 -90 -47 -90 -21.5 38 c 128,-1,29
 4 166 4 166 55.5 366 c 128,-1,30
 107 566 107 566 127 625 c 1,31,32
 268 1204 268 1204 480 1405 c 0,33,34
 599 1518 599 1518 734.5 1518 c 128,-1,35
 870 1518 870 1518 944 1430.5 c 128,-1,36
 1018 1343 1018 1343 1018 1212.5 c 128,-1,37
 1018 1082 1018 1082 913 962.5 c 128,-1,38
 808 843 808 843 602 819 c 1,39,40
 712 777 712 777 791 696 c 0,41,42
 942 541 942 541 942 328 c 0,43,44
 942 167 942 167 846 54 c 128,-1,45
 750 -59 750 -59 576 -59 c 128,-1,46
 402 -59 402 -59 283 43 c 1,0,1
EndSplineSet
EndChar

StartChar: ae
Encoding: 230 230 167
Width: 1219
GlyphClass: 2
Flags: W
LayerCount: 2
Fore
SplineSet
793 748 m 1,0,1
 898 840 898 840 1042 840 c 0,2,3
 1128 840 1128 840 1184.5 796 c 128,-1,4
 1241 752 1241 752 1241 653 c 128,-1,5
 1241 554 1241 554 1149.5 469.5 c 128,-1,6
 1058 385 1058 385 942 385 c 0,7,8
 896 385 896 385 846 412.5 c 128,-1,9
 796 440 796 440 762 494 c 1,10,11
 719 405 719 405 719 317 c 0,12,13
 719 86 719 86 887 86 c 0,14,15
 931 86 931 86 995 128 c 128,-1,16
 1059 170 1059 170 1109 217 c 128,-1,17
 1159 264 1159 264 1234 339.5 c 128,-1,18
 1309 415 1309 415 1339 442 c 1,19,-1
 1339 332 l 1,20,21
 1230 212 1230 212 1144 136 c 0,22,23
 956 -29 956 -29 788 -29 c 0,24,25
 702 -29 702 -29 637 12 c 128,-1,26
 572 53 572 53 547 131 c 1,27,-1
 547 129 l 1,28,29
 492 54 492 54 392 12.5 c 128,-1,30
 292 -29 292 -29 199 -29 c 128,-1,31
 106 -29 106 -29 51 43 c 128,-1,32
 -4 115 -4 115 -4 225.5 c 128,-1,33
 -4 336 -4 336 54.5 445.5 c 128,-1,34
 113 555 113 555 216.5 643 c 128,-1,35
 320 731 320 731 476.5 785.5 c 128,-1,36
 633 840 633 840 813 840 c 1,37,-1
 793 748 l 1,0,1
653 764 m 1,38,39
 518 734 518 734 415.5 659 c 128,-1,40
 313 584 313 584 261 485.5 c 128,-1,41
 209 387 209 387 209 281 c 0,42,43
 209 131 209 131 307 131 c 0,44,45
 357 131 357 131 422 164.5 c 128,-1,46
 487 198 487 198 535 246 c 1,47,-1
 653 764 l 1,38,39
791 569 m 1,48,49
 867 471 867 471 958 471 c 0,50,51
 1016 471 1016 471 1059 528 c 128,-1,52
 1102 585 1102 585 1102 648 c 128,-1,53
 1102 711 1102 711 1078 732.5 c 128,-1,54
 1054 754 1054 754 1010 754 c 0,55,56
 924 754 924 754 866 688.5 c 128,-1,57
 808 623 808 623 791 569 c 1,48,49
EndSplineSet
EndChar

StartChar: eth
Encoding: 240 240 177
Width: 1036
GlyphClass: 2
Flags: W
LayerCount: 2
Fore
SplineSet
335 1531 m 2,0,1
 483 1531 483 1531 657 1286 c 1,2,-1
 716 1310 l 1,3,4
 856 1372 856 1372 898.5 1372 c 128,-1,5
 941 1372 941 1372 941 1330 c 0,6,7
 941 1301 941 1301 924.5 1271.5 c 128,-1,8
 908 1242 908 1242 879 1230 c 0,9,10
 797 1197 797 1197 732 1168 c 1,11,12
 839 985 839 985 907.5 775.5 c 128,-1,13
 976 566 976 566 976 390.5 c 128,-1,14
 976 215 976 215 873 100.5 c 128,-1,15
 770 -14 770 -14 581 -14 c 0,16,17
 480 -14 480 -14 387 27.5 c 128,-1,18
 294 69 294 69 228 136 c 128,-1,19
 162 203 162 203 122.5 290.5 c 128,-1,20
 83 378 83 378 83 467 c 0,21,22
 83 632 83 632 177.5 727.5 c 128,-1,23
 272 823 272 823 398 823 c 128,-1,24
 524 823 524 823 600 776 c 0,25,26
 642 750 642 750 642 714 c 0,27,28
 642 698 642 698 633 679 c 1,29,30
 564 710 564 710 491.5 710 c 128,-1,31
 419 710 419 710 369 649 c 128,-1,32
 319 588 319 588 319 487 c 128,-1,33
 319 386 319 386 361 297 c 128,-1,34
 403 208 403 208 466 156.5 c 0,35,36
 530 105 530 105 580 105 c 0,37,38
 671 105 671 105 710.5 143 c 128,-1,39
 750 181 750 181 762.5 242.5 c 128,-1,40
 775 304 775 304 775 398 c 0,41,42
 775 665 775 665 521 1074 c 1,43,-1
 376 1004 l 1,44,45
 346 994 346 994 331 994 c 128,-1,46
 316 994 316 994 303 1020.5 c 128,-1,47
 290 1047 290 1047 290 1072 c 128,-1,48
 290 1097 290 1097 313 1114.5 c 128,-1,49
 336 1132 336 1132 448 1189 c 1,50,51
 350 1334 350 1334 195 1531 c 1,52,-1
 335 1531 l 2,0,1
EndSplineSet
EndChar

StartChar: divide
Encoding: 247 247 184
Width: 862
GlyphClass: 2
Flags: W
LayerCount: 2
Fore
SplineSet
717 614 m 2,0,-1
 518 616 l 2,1,2
 428 616 428 616 172 598 c 1,3,4
 115 598 115 598 115 639 c 0,5,6
 115 711 115 711 164 725 c 1,7,8
 197 731 197 731 344 741.5 c 128,-1,9
 491 752 491 752 547 752 c 0,10,11
 817 752 817 752 817 711 c 0,12,13
 817 681 817 681 785.5 647.5 c 128,-1,14
 754 614 754 614 717 614 c 2,0,-1
440 489 m 0,15,16
 552 490 552 490 551 402 c 0,17,18
 551 358 551 358 499 306 c 128,-1,19
 447 254 447 254 394 254 c 0,20,21
 301 254 301 254 301 332 c 0,22,23
 301 386 301 386 342.5 437.5 c 128,-1,24
 384 489 384 489 440 489 c 0,15,16
506 1100 m 0,25,26
 612 1100 612 1100 612 1012 c 0,27,28
 612 968 612 968 572.5 916 c 128,-1,29
 533 864 533 864 483 864 c 0,30,31
 383 864 383 864 383 952 c 0,32,33
 383 996 383 996 418.5 1048 c 128,-1,34
 454 1100 454 1100 506 1100 c 0,25,26
EndSplineSet
EndChar

StartChar: oslash
Encoding: 248 248 185
Width: 907
GlyphClass: 2
Flags: W
LayerCount: 2
Fore
SplineSet
96 -211 m 1,0,1
 76 -208 76 -208 76 -191.5 c 128,-1,2
 76 -175 76 -175 182 0 c 1,3,4
 106 39 106 39 68.5 127 c 128,-1,5
 31 215 31 215 31 310.5 c 128,-1,6
 31 406 31 406 80.5 500.5 c 128,-1,7
 130 595 130 595 208 669.5 c 128,-1,8
 286 744 286 744 388.5 792 c 128,-1,9
 491 840 491 840 567.5 840 c 128,-1,10
 644 840 644 840 700 823 c 1,11,-1
 772 936 l 2,12,13
 785 955 785 955 802 982 c 128,-1,14
 819 1009 819 1009 833.5 1029 c 128,-1,15
 848 1049 848 1049 878.5 1049 c 128,-1,16
 909 1049 909 1049 909 1020 c 0,17,18
 909 1012 909 1012 903 1006 c 1,19,-1
 770 793 l 1,20,21
 831 757 831 757 889 684 c 1,22,23
 889 641 889 641 848 627 c 1,24,25
 789 695 789 695 729 727 c 1,26,-1
 375 160 l 1,27,28
 412 133 412 133 465 133 c 0,29,30
 553 133 553 133 633 225 c 1,31,32
 573 291 573 291 573 371.5 c 128,-1,33
 573 452 573 452 606 498.5 c 128,-1,34
 639 545 639 545 696 545 c 0,35,36
 805 545 805 545 805 434 c 0,37,38
 805 385 805 385 786 331 c 128,-1,39
 767 277 767 277 748 252 c 1,40,41
 767 244 767 244 785.5 244 c 128,-1,42
 804 244 804 244 823.5 252.5 c 128,-1,43
 843 261 843 261 868 282.5 c 128,-1,44
 893 304 893 304 912 323 c 128,-1,45
 931 342 931 342 967 380 c 128,-1,46
 1003 418 1003 418 1028 442 c 1,47,-1
 1028 332 l 1,48,49
 945 244 945 244 893.5 207 c 128,-1,50
 842 170 842 170 782.5 170 c 128,-1,51
 723 170 723 170 705 186 c 1,52,53
 627 91 627 91 520.5 31 c 128,-1,54
 414 -29 414 -29 301 -29 c 0,55,56
 284 -29 284 -29 260 -25 c 1,57,-1
 192 -137 l 1,58,59
 147 -208 147 -208 96 -211 c 1,0,1
317 217 m 1,60,61
 414 373 414 373 655 752 c 1,62,63
 628 758 628 758 583 758 c 128,-1,64
 538 758 538 758 473 725 c 128,-1,65
 408 692 408 692 362 642 c 0,66,67
 260 528 260 528 260 411.5 c 128,-1,68
 260 295 260 295 317 217 c 1,60,61
692 283 m 1,69,70
 735 369 735 369 735 415 c 128,-1,71
 735 461 735 461 698 461 c 0,72,73
 676 461 676 461 663.5 437 c 128,-1,74
 651 413 651 413 651 381 c 0,75,76
 651 309 651 309 692 283 c 1,69,70
EndSplineSet
EndChar

StartChar: thorn
Encoding: 254 254 191
Width: 967
GlyphClass: 2
Flags: W
LayerCount: 2
Fore
SplineSet
408 -16 m 0,0,1
 336 -16 336 -16 336 36 c 0,2,3
 336 73 336 73 362 104 c 0,4,5
 388 135 388 135 400 150 c 0,6,7
 476 236 476 236 535 364 c 128,-1,8
 594 492 594 492 594 573.5 c 128,-1,9
 594 655 594 655 528 655 c 0,10,11
 415 655 415 655 325.5 482.5 c 128,-1,12
 236 310 236 310 166 84 c 1,13,-1
 139 -2 l 1,14,15
 123 -62 123 -62 43 -389 c 1,16,-1
 -137 -389 l 1,17,18
 -83 -178 -83 -178 -7 174 c 0,19,20
 170 993 170 993 297 1382 c 1,21,22
 323 1452 323 1452 404 1460 c 0,23,24
 424 1462 424 1462 457 1462 c 2,25,-1
 524 1462 l 1,26,27
 514 1427 514 1427 470.5 1256.5 c 128,-1,28
 427 1086 427 1086 357 848 c 128,-1,29
 287 610 287 610 250 477 c 1,30,31
 314 587 314 587 399 674 c 0,32,33
 562 840 562 840 689.5 840 c 128,-1,34
 817 840 817 840 817 688 c 0,35,36
 817 556 817 556 725.5 383.5 c 128,-1,37
 634 211 634 211 528 145 c 1,38,39
 630 146 630 146 798 292 c 0,40,41
 878 362 878 362 983 469 c 1,42,-1
 983 354 l 1,43,44
 959 331 959 331 915 287.5 c 128,-1,45
 871 244 871 244 851.5 225.5 c 128,-1,46
 832 207 832 207 795 172 c 128,-1,47
 758 137 758 137 739 122 c 128,-1,48
 720 107 720 107 687.5 82 c 128,-1,49
 655 57 655 57 633.5 46.5 c 128,-1,50
 612 36 612 36 580 20 c 0,51,52
 506 -16 506 -16 408 -16 c 0,0,1
EndSplineSet
EndChar

StartChar: hbar
Encoding: 295 295 196
Width: 881
GlyphClass: 2
Flags: W
LayerCount: 2
Fore
SplineSet
732 226 m 1,0,1
 732 203 732 203 747.5 203 c 128,-1,2
 763 203 763 203 865.5 306.5 c 128,-1,3
 968 410 968 410 1008 444 c 1,4,-1
 1008 332 l 1,5,6
 693 -29 693 -29 596 -29 c 0,7,8
 532 -29 532 -29 532 47 c 0,9,10
 532 86 532 86 590.5 282 c 128,-1,11
 649 478 649 478 649 598 c 0,12,13
 649 655 649 655 592 655 c 0,14,15
 504 655 504 655 406.5 526.5 c 128,-1,16
 309 398 309 398 274.5 267.5 c 128,-1,17
 240 137 240 137 219 82 c 128,-1,18
 198 27 198 27 166 0 c 1,19,-1
 10 0 l 1,20,21
 25 113 25 113 255 968 c 1,22,23
 244 968 244 968 178 963 c 1,24,25
 121 963 121 963 121 1004 c 0,26,27
 121 1074 121 1074 170 1090 c 1,28,29
 205 1098 205 1098 292 1105 c 1,30,31
 351 1330 351 1330 373 1372 c 128,-1,32
 395 1414 395 1414 407 1428 c 128,-1,33
 419 1442 419 1442 448.5 1452 c 128,-1,34
 478 1462 478 1462 532 1462 c 128,-1,35
 586 1462 586 1462 596 1458 c 1,36,-1
 501 1115 l 1,37,38
 518 1116 518 1116 553 1116 c 0,39,40
 762 1116 762 1116 762 1075 c 0,41,42
 762 1045 762 1045 731 1012 c 128,-1,43
 700 979 700 979 662 979 c 2,44,-1
 524 981 l 2,45,46
 491 981 491 981 464 980 c 1,47,-1
 334 510 l 1,48,49
 408 647 408 647 528 743.5 c 128,-1,50
 648 840 648 840 762 840 c 0,51,52
 860 840 860 840 860 723 c 0,53,54
 860 681 860 681 795.5 493.5 c 128,-1,55
 731 306 731 306 731 233 c 1,56,-1
 732 226 l 1,0,1
EndSplineSet
EndChar

StartChar: dotlessi
Encoding: 305 305 201
Width: 469
GlyphClass: 2
Flags: W
LayerCount: 2
Fore
SplineSet
346 836 m 0,0,-1
231 199 m 0,1,2
 231 133 231 133 266 133 c 0,3,4
 288 133 288 133 404.5 247.5 c 128,-1,5
 521 362 521 362 590 438 c 1,6,-1
 590 326 l 1,7,-1
 570 306 l 1,8,9
 382 120 382 120 290.5 47.5 c 128,-1,10
 199 -25 199 -25 117 -29 c 1,11,12
 73 -29 73 -29 51 10.5 c 128,-1,13
 29 50 29 50 29 112 c 128,-1,14
 29 174 29 174 85 403 c 128,-1,15
 141 632 141 632 165 695 c 0,16,17
 189 758 189 758 223.5 779 c 128,-1,18
 258 800 258 800 295 803.5 c 128,-1,19
 332 807 332 807 389 807 c 1,20,21
 231 301 231 301 231 199 c 0,1,2
EndSplineSet
EndChar

StartChar: IJ
Encoding: 306 306 202
Width: 1851
GlyphClass: 2
Flags: W
LayerCount: 2
Fore
SplineSet
403 303 m 1,0,-1
 401 213 l 1,1,2
 401 117 401 117 428 79 c 128,-1,3
 455 41 455 41 512 41 c 0,4,5
 642 41 642 41 725 285 c 0,6,7
 763 394 763 394 805 625 c 2,8,-1
 819 702 l 1,9,10
 546 722 546 722 427 828 c 0,11,12
 362 886 362 886 362 954 c 0,13,14
 362 1072 362 1072 516 1230 c 0,15,16
 618 1334 618 1334 788 1409.5 c 128,-1,17
 958 1485 958 1485 1178 1485 c 0,18,19
 1477 1485 1477 1485 1776 1485 c 0,20,21
 1821 1485 1821 1485 1893.5 1506.5 c 128,-1,22
 1966 1528 1966 1528 1999 1530 c 1,23,24
 1987 1456 1987 1456 1948 1394 c 128,-1,25
 1909 1332 1909 1332 1847 1311 c 1,26,27
 1742 1128 1742 1128 1675 840 c 1,28,-1
 1528 133 l 1,29,30
 1564 155 1564 155 1629.5 190.5 c 128,-1,31
 1695 226 1695 226 1738 252 c 0,32,33
 1858 323 1858 323 1985 446 c 1,34,-1
 1985 334 l 1,35,36
 1907 242 1907 242 1750 142 c 128,-1,37
 1593 42 1593 42 1505 10 c 1,38,39
 1459 -204 1459 -204 1353 -316 c 128,-1,40
 1247 -428 1247 -428 1104 -428 c 0,41,42
 1039 -428 1039 -428 972.5 -398.5 c 128,-1,43
 906 -369 906 -369 859.5 -311 c 128,-1,44
 813 -253 813 -253 813 -194.5 c 128,-1,45
 813 -136 813 -136 834.5 -93 c 128,-1,46
 856 -50 856 -50 897 -39 c 2,47,-1
 1315 74 l 1,48,49
 1337 206 1337 206 1481 840 c 1,50,51
 1556 1187 1556 1187 1743 1303 c 1,52,53
 1389 1303 1389 1303 1247 1309 c 1,54,55
 1130 1107 1130 1107 1063 827 c 1,56,57
 1165 827 1165 827 1337 854 c 1,58,59
 1337 773 1337 773 1307 739 c 1,60,61
 1164 702 1164 702 1034 692 c 1,62,-1
 1024 647 l 1,63,64
 967 358 967 358 903 223 c 0,65,66
 838 88 838 88 758 29 c 0,67,68
 641 -57 641 -57 494 -57 c 0,69,70
 396 -56 396 -56 306 -2 c 0,71,72
 262 24 262 24 234.5 70 c 128,-1,73
 207 116 207 116 207 172 c 0,74,75
 207 303 207 303 403 303 c 1,0,-1
526 950 m 0,76,77
 526 860 526 860 854 842 c 1,78,79
 899 1010 899 1010 964 1124.5 c 128,-1,80
 1029 1239 1029 1239 1145 1303 c 1,81,82
 1019 1303 1019 1303 910 1272 c 0,83,84
 732 1221 732 1221 629 1114 c 128,-1,85
 526 1007 526 1007 526 950 c 0,76,77
1298 -66 m 1,86,87
 1263 -78 1263 -78 1181.5 -95.5 c 128,-1,88
 1100 -113 1100 -113 1066 -125 c 0,89,90
 996 -150 996 -150 995.5 -207 c 128,-1,91
 995 -264 995 -264 1029.5 -310 c 128,-1,92
 1064 -356 1064 -356 1112 -356 c 0,93,94
 1195 -356 1195 -356 1242 -244 c 0,95,96
 1277 -160 1277 -160 1298 -66 c 1,86,87
EndSplineSet
EndChar

StartChar: ij
Encoding: 307 307 203
Width: 911
GlyphClass: 2
Flags: W
LayerCount: 2
Fore
SplineSet
123 -791 m 0,0,1
 26 -791 26 -791 26 -638 c 0,2,3
 26 -371 26 -371 433 -14 c 1,4,-1
 451 2 l 1,5,-1
 489 137 l 1,6,7
 491 151 491 151 541.5 330 c 128,-1,8
 592 509 592 509 597 531 c 1,9,10
 508 266 508 266 427.5 161 c 128,-1,11
 347 56 347 56 307 32 c 0,12,13
 239 -10 239 -10 198.5 -18.5 c 128,-1,14
 158 -27 158 -27 115.5 -28 c 128,-1,15
 73 -29 73 -29 51 10.5 c 128,-1,16
 29 50 29 50 29 112 c 128,-1,17
 29 174 29 174 85 403 c 128,-1,18
 141 632 141 632 165.5 695.5 c 128,-1,19
 190 759 190 759 224 779.5 c 128,-1,20
 258 800 258 800 295 803.5 c 128,-1,21
 332 807 332 807 389 807 c 1,22,23
 231 301 231 301 231 199 c 0,24,25
 231 133 231 133 266.5 133 c 128,-1,26
 302 133 302 133 358 204.5 c 128,-1,27
 414 276 414 276 493 424 c 128,-1,28
 572 572 572 572 601.5 647 c 128,-1,29
 631 722 631 722 639.5 737.5 c 128,-1,30
 648 753 648 753 660 764 c 128,-1,31
 672 775 672 775 681 782.5 c 128,-1,32
 690 790 690 790 708 794.5 c 128,-1,33
 726 799 726 799 738.5 803 c 0,34,35
 752 807 752 807 804 807 c 2,36,-1
 844 807 l 1,37,38
 842 802 842 802 824 740 c 0,39,40
 664 198 664 198 664 106 c 1,41,42
 684 114 684 114 802 218 c 128,-1,43
 920 322 920 322 1036 440 c 1,44,-1
 1036 328 l 1,45,46
 944 234 944 234 890 182 c 0,47,48
 741 38 741 38 627 -16 c 1,49,50
 622 -40 622 -40 611 -93 c 128,-1,51
 600 -146 600 -146 596.5 -160.5 c 128,-1,52
 593 -175 593 -175 585 -214 c 128,-1,53
 577 -253 577 -253 574 -265.5 c 128,-1,54
 571 -278 571 -278 564 -308.5 c 128,-1,55
 557 -339 557 -339 552.5 -355.5 c 128,-1,56
 548 -372 548 -372 541 -400.5 c 128,-1,57
 534 -429 534 -429 526.5 -455 c 128,-1,58
 519 -481 519 -481 510 -514 c 0,59,60
 483 -611 483 -611 362.5 -701 c 128,-1,61
 242 -791 242 -791 123 -791 c 0,0,1
152 -598.5 m 128,-1,63
 152 -637 152 -637 171.5 -659.5 c 128,-1,64
 191 -682 191 -682 218.5 -682 c 128,-1,65
 246 -682 246 -682 265 -670 c 0,66,67
 295 -650 295 -650 339.5 -559.5 c 128,-1,68
 384 -469 384 -469 446 -117 c 1,69,70
 234 -367 234 -367 193 -463.5 c 128,-1,62
 152 -560 152 -560 152 -598.5 c 128,-1,63
912 1288 m 0,71,72
 1014 1288 1014 1288 1014 1208 c 0,73,74
 1014 1168 1014 1168 966.5 1120.5 c 128,-1,75
 919 1073 919 1073 858 1073 c 0,76,77
 786 1073 786 1073 786 1145 c 0,78,79
 786 1194 786 1194 823 1241 c 128,-1,80
 860 1288 860 1288 912 1288 c 0,71,72
458 1288 m 0,81,82
 559 1288 559 1288 559 1208 c 0,83,84
 559 1168 559 1168 511.5 1120.5 c 128,-1,85
 464 1073 464 1073 403 1073 c 0,86,87
 332 1073 332 1073 332 1145 c 0,88,89
 332 1195 332 1195 369.5 1241.5 c 128,-1,90
 407 1288 407 1288 458 1288 c 0,81,82
EndSplineSet
EndChar

StartChar: kgreenlandic
Encoding: 312 312 207
Width: 905
GlyphClass: 2
Flags: W
LayerCount: 2
Fore
SplineSet
496 113 m 1,0,-1
 510 303 l 1,1,2
 510 336 510 336 497 357.5 c 128,-1,3
 484 379 484 379 447 387 c 1,4,-1
 289 387 l 1,5,-1
 283 360 l 2,6,7
 216 60 216 60 145 0 c 1,8,-1
 -10 0 l 1,9,10
 8 131 8 131 168 687 c 1,11,12
 186 768 186 768 224 788 c 128,-1,13
 262 808 262 808 318 808 c 128,-1,14
 374 808 374 808 387 803 c 1,15,16
 382 785 382 785 355 689 c 128,-1,17
 328 593 328 593 295 457 c 1,18,19
 363 450 363 450 399.5 450 c 128,-1,20
 436 450 436 450 462 459 c 0,21,22
 507 475 507 475 561 576.5 c 128,-1,23
 615 678 615 678 704 805 c 1,24,-1
 879 806 l 1,25,26
 858 772 858 772 806 676 c 0,27,28
 754 580 754 580 716 522 c 0,29,30
 654 426 654 426 592 421 c 1,31,32
 652 411 652 411 669 366 c 128,-1,33
 686 321 686 321 686 262 c 1,34,-1
 684 188 l 1,35,36
 684 121 684 121 702 121 c 0,37,38
 709 121 709 121 714.5 126.5 c 128,-1,39
 720 132 720 132 848 259 c 0,40,41
 976 386 976 386 1028 440 c 1,42,-1
 1028 328 l 1,43,44
 1008 309 1008 309 889 191.5 c 128,-1,45
 770 74 770 74 707 22.5 c 128,-1,46
 644 -29 644 -29 590 -29 c 0,47,48
 496 -29 496 -29 496 113 c 1,0,-1
EndSplineSet
EndChar

StartChar: Lslash
Encoding: 321 321 210
Width: 1368
GlyphClass: 2
Flags: W
LayerCount: 2
Fore
SplineSet
205 880 m 0,0,1
 167 880 167 880 167 940 c 0,2,3
 167 970 167 970 193 989 c 1,4,5
 237 1007 237 1007 417 1060 c 1,6,-1
 439 1137 l 2,7,8
 449 1170 449 1170 457 1182 c 128,-1,9
 465 1194 465 1194 469 1201.5 c 128,-1,10
 473 1209 473 1209 483 1218.5 c 128,-1,11
 493 1228 493 1228 497 1233 c 128,-1,12
 501 1238 501 1238 514 1247.5 c 128,-1,13
 527 1257 527 1257 544 1270 c 128,-1,14
 561 1283 561 1283 591 1304.5 c 128,-1,15
 621 1326 621 1326 688 1371 c 128,-1,16
 755 1416 755 1416 851.5 1467 c 128,-1,17
 948 1518 948 1518 992 1518 c 0,18,19
 1121 1518 1121 1518 1225.5 1413 c 128,-1,20
 1330 1308 1330 1308 1330 1178 c 0,21,22
 1330 1120 1330 1120 1286 1098 c 128,-1,23
 1242 1076 1242 1076 1028.5 958 c 128,-1,24
 815 840 815 840 795 840 c 0,25,26
 756 840 756 840 756 881 c 0,27,28
 756 930 756 930 932 1006 c 0,29,30
 998 1034 998 1034 1053.5 1073 c 128,-1,31
 1109 1112 1109 1112 1110 1147 c 1,32,-1
 1104 1175 l 1,33,34
 1077 1328 1077 1328 1009 1389 c 0,35,36
 978 1417 978 1417 940 1417 c 1,37,38
 882 1410 882 1410 797.5 1315.5 c 128,-1,39
 713 1221 713 1221 665 1128 c 1,40,41
 668 1128 668 1128 721.5 1145.5 c 128,-1,42
 775 1163 775 1163 811.5 1163 c 128,-1,43
 848 1163 848 1163 855 1157 c 128,-1,44
 862 1151 862 1151 862 1130 c 128,-1,45
 862 1109 862 1109 844 1079.5 c 128,-1,46
 826 1050 826 1050 793 1039.5 c 128,-1,47
 760 1029 760 1029 686 1010 c 2,48,-1
 626 995 l 1,49,50
 533 561 533 561 408 266 c 1,51,52
 418 263 418 263 445 254 c 128,-1,53
 472 245 472 245 486 241 c 128,-1,54
 500 237 500 237 663 178 c 128,-1,55
 826 119 826 119 879 119 c 0,56,57
 968 120 968 120 1160 288 c 0,58,59
 1232 352 1232 352 1315 438 c 1,60,-1
 1315 326 l 1,61,62
 1089 100 1089 100 954.5 21.5 c 128,-1,63
 820 -57 820 -57 693 -57 c 0,64,65
 685 -57 685 -57 672.5 -50 c 128,-1,66
 660 -43 660 -43 596 -11 c 0,67,68
 532 21 532 21 263 117 c 1,69,70
 41 -29 41 -29 -100 -29 c 0,71,72
 -121 -30 -121 -30 -150 -16 c 0,73,74
 -208 11 -208 11 -208 72 c 0,75,76
 -208 109 -208 109 -164 136.5 c 128,-1,77
 -120 164 -120 164 -55 190 c 1,78,-1
 207 309 l 1,79,-1
 380 928 l 1,80,-1
 231 885 l 2,81,82
 211 880 211 880 205 880 c 0,0,1
EndSplineSet
EndChar

